STARTFONT 2.1
COMMENT
COMMENT Converted from OpenType font "Q:\font stuff\winfont\MonsieurLaDoulaise-Regular.ttf" by "otf2bdf 3.0".
COMMENT
FONT -FreeType-Monsieur La Doulaise-Medium-R-Normal--72-720-72-72-P-506-ISO10646-1
SIZE 72 72 72
FONTBOUNDINGBOX 186 112 -40 -36
STARTPROPERTIES 19
FOUNDRY "FreeType"
FAMILY_NAME "Monsieur La Doulaise"
WEIGHT_NAME "Medium"
SLANT "R"
SETWIDTH_NAME "Normal"
ADD_STYLE_NAME ""
PIXEL_SIZE 72
POINT_SIZE 720
RESOLUTION_X 72
RESOLUTION_Y 72
SPACING "P"
AVERAGE_WIDTH 506
CHARSET_REGISTRY "ISO10646"
CHARSET_ENCODING "1"
FONT_ASCENT 75
FONT_DESCENT 36
COPYRIGHT "Copyright (c) 2006 Alejandro Paul (sudtipos@sudtipos.com),  with Reserved Font Name "MonsieurLaDoulaise""
_OTF_FONTFILE "Q:\font stuff\winfont\MonsieurLaDoulaise-Regular.ttf"
_OTF_PSNAME "MonsieurLaDoulaise-Regular"
ENDPROPERTIES
CHARS 231
STARTCHAR 0020
ENCODING 32
SWIDTH 152 0
DWIDTH 11 0
BBX 0 0 0 0
BITMAP
ENDCHAR
STARTCHAR 0021
ENCODING 33
SWIDTH 277 0
DWIDTH 20 0
BBX 32 41 2 0
BITMAP
00000002
00000007
0000000F
0000000E
0000001C
0000003C
00000038
00000070
000000E0
000001C0
000001C0
00000380
00000700
00000600
00000C00
00001C00
00003800
00003000
00006000
0000C000
0000C000
00018000
00030000
00060000
00040000
000C0000
00180000
00100000
00200000
00600000
00C00000
00800000
01000000
02000000
02000000
00000000
00000000
10000000
78000000
F0000000
E0000000
ENDCHAR
STARTCHAR 0022
ENCODING 34
SWIDTH 500 0
DWIDTH 36 0
BBX 16 14 27 30
BITMAP
00C2
00C7
01C7
038E
039C
0718
0E38
0C30
1860
10C0
2080
6100
4300
8200
ENDCHAR
STARTCHAR 0023
ENCODING 35
SWIDTH 416 0
DWIDTH 30 0
BBX 25 22 4 3
BITMAP
00020200
00060600
00040400
00080800
00080800
00101000
00101000
1FFFFF80
00202000
00404000
00404000
00808000
00818000
01010000
FFFFFC00
02020000
06040000
04040000
08080000
08080000
10100000
10100000
ENDCHAR
STARTCHAR 0024
ENCODING 36
SWIDTH 375 0
DWIDTH 27 0
BBX 45 53 -7 -8
BITMAP
0000F8000000
000300000008
000C00000010
001000000020
002000000040
0040000000C0
008000000180
010000000300
030000000600
020000003E00
06000001C180
0400000E0040
040000180040
0400003000C0
0C00006000C0
0C0000E00180
040001C00300
040003C00600
060003801C00
060003807800
03000381E000
038003878000
00C003FC0000
007807E00000
000FFFC00000
000001E00000
000001E00000
000000E00000
000000F00000
000000F00000
000000700000
000000780000
000000380000
000000380000
00E000380000
019000380000
031800380000
030800300000
031000700000
031000600000
032000C00000
034001800000
018002000000
01800C000000
01F030000000
021FC0000000
040000000000
080000000000
100000000000
100000000000
200000000000
400000000000
800000000000
ENDCHAR
STARTCHAR 0025
ENCODING 37
SWIDTH 666 0
DWIDTH 48 0
BBX 44 45 6 -6
BITMAP
00000007FE00
000003F80C00
00003C001C00
0001C0001800
000E00003000
00307C007000
00C006006000
0107C600C000
061846018000
083046038000
106086030000
20C084060000
21810C0C0000
4302081C0000
460C18180000
4C10103001E0
3DE030700030
1A0060601E10
300060C06210
3000C1818230
600183830230
600103060420
6003060C0860
C0060C181060
C00C0C302040
C0181870C0C0
C06030630180
E0C070FC0180
7F0060C00300
0000C1800600
000181800600
000383000C00
000303001800
000607003000
000C06006000
000C0600C000
001806018000
003006030000
0070039C0000
006001F00000
00C000000000
018000000000
018000000000
030000000000
060000000000
ENDCHAR
STARTCHAR 0026
ENCODING 38
SWIDTH 694 0
DWIDTH 50 0
BBX 56 76 8 -15
BITMAP
0000000000003C
000000000000C3
00000000000301
00000000000401
00000000001803
00000000003003
00000000002002
00000000004006
0000000000800C
00000000010018
00000000030030
00000000020060
000000000401C0
00000000040700
00000000080E00
00000000183800
0000000010F000
0000000033C000
000000002F0000
000000007C0000
00000000F00000
00000003C00000
0000000F800000
0000003C800000
000000F1800000
000003C1000000
00000701000000
00001C03000000
00007002000000
0001C002000000
00038006000000
000E0004000000
001C0004000000
00700004000000
00E0000C000000
01C00008000000
03800008000000
07000008000000
0E000018000000
0C000018000000
18000010000000
38000010000000
3000003FF80000
700001D01C0000
700003300E0000
E0000C30060000
E0001830070000
E0003030030000
E0006020030000
E000C020030000
E0008020030000
E0018020070000
E0010020060000
F0020020060000
F00200200C0000
70060030180000
78040030100000
3C040030200000
3E040010C00000
1F0C0011800000
07CC0016000000
03FC0038000000
007FFFC8000000
0004700C000000
0004000C000000
00040006000000
00060003000000
00020003800000
00030000C00000
00018000780000
0000C000000000
00006000000000
00003000000000
00000C00000000
000003F1E00000
0000000E000000
ENDCHAR
STARTCHAR 0027
ENCODING 39
SWIDTH 416 0
DWIDTH 30 0
BBX 10 14 27 30
BITMAP
00C0
00C0
01C0
0380
0380
0700
0E00
0C00
1800
1000
2000
6000
4000
8000
ENDCHAR
STARTCHAR 0028
ENCODING 40
SWIDTH 250 0
DWIDTH 18 0
BBX 42 71 1 -10
BITMAP
0000000000C0
000000000380
000000000E00
000000001800
000000006000
00000000C000
000000030000
000000060000
0000001C0000
000000300000
000000600000
000000C00000
000001800000
000007000000
00000E000000
00001C000000
000038000000
000070000000
000060000000
0000C0000000
000180000000
000300000000
000700000000
000E00000000
000C00000000
001C00000000
003800000000
003000000000
007000000000
00E000000000
00C000000000
01C000000000
018000000000
038000000000
030000000000
070000000000
060000000000
0E0000000000
0C0000000000
1C0000000000
1C0000000000
180000000000
380000000000
380000000000
300000000000
700000000000
700000000000
700000000000
600000000000
E00000000000
E00000000000
E00000000000
E00000000000
E00000000000
C00000000000
C00000000000
C00000000000
C00000000000
C00000000000
C00000000000
C00000000000
C00000000000
C00000000000
C00000000000
C00000000000
C00000000000
400000000000
600000000000
600000000000
600000000000
200000000000
ENDCHAR
STARTCHAR 0029
ENCODING 41
SWIDTH 416 0
DWIDTH 30 0
BBX 42 71 -6 -10
BITMAP
000000000100
000000000100
000000000180
000000000180
000000000180
000000000180
000000000180
000000000180
0000000001C0
0000000001C0
0000000001C0
0000000001C0
0000000001C0
0000000001C0
0000000001C0
0000000001C0
0000000001C0
0000000001C0
0000000001C0
000000000180
000000000180
000000000380
000000000380
000000000380
000000000300
000000000700
000000000700
000000000600
000000000600
000000000E00
000000000C00
000000001C00
000000001C00
000000001800
000000003800
000000003000
000000007000
000000006000
00000000E000
00000000C000
00000001C000
000000038000
000000030000
000000070000
0000000E0000
0000000C0000
0000001C0000
000000380000
000000300000
000000600000
000000C00000
000001C00000
000003800000
000007000000
00000E000000
00001C000000
000038000000
000070000000
0000E0000000
000180000000
000300000000
000600000000
001C00000000
003000000000
006000000000
01C000000000
030000000000
0C0000000000
380000000000
E00000000000
800000000000
ENDCHAR
STARTCHAR 002A
ENCODING 42
SWIDTH 291 0
DWIDTH 21 0
BBX 19 20 1 21
BITMAP
020000
020000
010000
010100
018300
018600
008C00
C0D800
3EF000
07E000
01F800
03FF00
0360E0
066000
082000
102000
202000
001000
001000
001000
ENDCHAR
STARTCHAR 002B
ENCODING 43
SWIDTH 416 0
DWIDTH 30 0
BBX 22 22 6 3
BITMAP
000100
000300
000200
000200
000400
000400
000C00
000800
000800
001000
FFFFFC
003000
002000
002000
004000
004000
00C000
008000
008000
010000
010000
030000
ENDCHAR
STARTCHAR 002C
ENCODING 44
SWIDTH 194 0
DWIDTH 14 0
BBX 11 12 -4 -5
BITMAP
00E0
01E0
03C0
01C0
0180
0100
0300
0200
0C00
1000
6000
8000
ENDCHAR
STARTCHAR 002D
ENCODING 45
SWIDTH 388 0
DWIDTH 28 0
BBX 23 4 4 5
BITMAP
1FF000
60FF06
801FF8
0003E0
ENDCHAR
STARTCHAR 002E
ENCODING 46
SWIDTH 166 0
DWIDTH 12 0
BBX 5 3 0 0
BITMAP
38
78
F0
ENDCHAR
STARTCHAR 002F
ENCODING 47
SWIDTH 194 0
DWIDTH 14 0
BBX 48 73 -8 -10
BITMAP
000000000002
000000000007
000000000006
00000000000C
00000000001C
000000000018
000000000030
000000000030
000000000060
0000000000C0
0000000000C0
000000000180
000000000380
000000000300
000000000600
000000000E00
000000000C00
000000001800
000000003800
000000003000
000000006000
000000006000
00000000C000
000000018000
000000018000
000000030000
000000060000
000000060000
0000000C0000
0000001C0000
000000180000
000000300000
000000700000
000000600000
000000C00000
000000C00000
000001800000
000003000000
000003000000
000006000000
00000C000000
00000C000000
000018000000
000038000000
000030000000
000060000000
0000E0000000
0000C0000000
000180000000
000180000000
000300000000
000600000000
000600000000
000C00000000
001800000000
001800000000
003000000000
006000000000
006000000000
00C000000000
01C000000000
018000000000
030000000000
030000000000
060000000000
0C0000000000
0C0000000000
180000000000
300000000000
300000000000
600000000000
C00000000000
C00000000000
ENDCHAR
STARTCHAR 0030
ENCODING 48
SWIDTH 430 0
DWIDTH 31 0
BBX 36 39 2 -1
BITMAP
0003800FC0
000C003060
0030000060
004001E060
00800E1070
0100301070
0200E01060
0401C01060
0803002060
18060040E0
100C0040E0
30180080C0
20380101C0
2070020180
60E00C0380
61C0100300
2180600700
3383800600
1F1C000E00
06E0000C00
0E00001C00
1C00003800
1800003000
3800007000
300000E000
700000C000
7000018000
6000030000
E000060000
C0000E0000
C0001C0000
C000300000
C000600000
C000C00000
C001800000
C007000000
600C000000
3070000000
0F80000000
ENDCHAR
STARTCHAR 0031
ENCODING 49
SWIDTH 208 0
DWIDTH 15 0
BBX 33 41 -3 -1
BITMAP
0000000380
0000000780
0000000480
0000000D00
0000001A00
0000003600
0000002C00
0000007800
000000F000
000001C000
0000018000
0000030000
0000060000
00001C0000
0000380000
0000D80000
0003B00000
000E600000
0078E00000
01C0C00000
0001800000
0003000000
0007000000
0006000000
000C000000
0018000000
0038000000
0030000000
0060000000
00E0000000
01C0000000
0180000000
0300000000
0700000000
0E00000000
1C00000000
1C00000000
3800000000
7000000000
F000000000
E000000000
ENDCHAR
STARTCHAR 0032
ENCODING 50
SWIDTH 500 0
DWIDTH 36 0
BBX 44 50 -8 -10
BITMAP
000001C00000
000000380000
000000060000
000000010000
000000009E00
00000001E0E0
000000062070
000000182030
000000202030
000000402030
000000802070
000001002070
000001002060
0000020060E0
0000020040C0
00000200C1C0
000002018380
000003060780
000000F80700
000000000E00
000000001C00
000000003800
000000007000
00000000E000
00000001E000
00000003C000
000000070000
0000000E0000
0000001C0000
000000380000
000000700000
000000E00000
000003800000
000007000000
03F00C01E000
1C0FB81E1800
6001E0E00C00
C001FD000C00
80061F000C00
801807E01800
C0E0087FE000
3F0010000000
000010000000
000010000000
000010000000
000010000000
000008000000
000004000000
000002000000
000001FF0000
ENDCHAR
STARTCHAR 0033
ENCODING 51
SWIDTH 361 0
DWIDTH 26 0
BBX 36 44 -5 -1
BITMAP
00001F8000
0000006000
0000001000
0000001800
0000000800
0000000800
000001FF00
00000E08C0
0000300870
0000400830
0000801030
0001001030
0003002030
0003004070
0002008060
00020100E0
00030601C0
0001F80180
0000000300
0000000600
00001E0C00
0000E1F800
0001007000
000201B800
00030E1800
0000F01800
0000001800
0000001800
0000003800
0000003000
0000007000
0000006000
000000C000
0000018000
0000030000
0000060000
00000C0000
1000380000
3800600000
7001C00000
E007000000
C01C000000
63E0000000
1C00000000
ENDCHAR
STARTCHAR 0034
ENCODING 52
SWIDTH 402 0
DWIDTH 29 0
BBX 31 45 -1 -2
BITMAP
00000004
00000004
00000004
00000008
00000008
00000010
00000010
00000020
00000020
00000040
000000C0
00000080
00000180
00000300
00000200
00000406
00000C04
0000180C
00003018
00006030
0000C060
00018060
000300C0
00060180
000C0300
00180300
00300600
00E00C00
01C01800
0380381E
0F003062
1E006086
3C00C108
7801C270
FE038780
3FFFFC00
00060400
000E0400
001C0400
00380620
003801C0
00700000
00E00000
01E00000
01C00000
ENDCHAR
STARTCHAR 0035
ENCODING 53
SWIDTH 361 0
DWIDTH 26 0
BBX 41 42 -5 -1
BITMAP
000000000080
000000000080
000000000100
000000800200
000000E00E00
000001FFFC00
000003FFF000
0000027FC000
000006000000
000004000000
000008000000
000008000000
000010000000
000030000000
000020000000
000040000000
0000C0000000
000080000000
00011E000000
0003E1E00000
000300700000
000400300000
000000300000
000000300000
000000300000
000000700000
000000600000
000000E00000
000000C00000
000001800000
000003800000
000007000000
00000E000000
00001C000000
000038000000
100060000000
3801C0000000
700300000000
E00E00000000
C03000000000
63C000000000
1C0000000000
ENDCHAR
STARTCHAR 0036
ENCODING 54
SWIDTH 375 0
DWIDTH 27 0
BBX 38 46 -2 -9
BITMAP
0000000030
00000003CC
0000001C0C
000000700C
000000C01C
0000038038
0000060030
00001C0000
0000300000
0000600000
0000C00000
0003800000
0007000000
000E000000
001C000000
0038000000
0070000000
00E0000000
00C0000000
01801FE000
030060F000
0701807000
0602007000
0C0C007000
1810007000
1820007000
304000E000
308000E000
618001C000
6300038000
6200070000
C4000E0000
CC001C0000
C800380000
C800E00000
7801800000
780E000000
3CF0000000
1300000000
1000000000
1800000000
1800000000
0C00000000
0600000000
01E03C0000
001FC00000
ENDCHAR
STARTCHAR 0037
ENCODING 55
SWIDTH 333 0
DWIDTH 24 0
BBX 32 42 4 -2
BITMAP
00080000
00080000
00080000
003C0001
01FFE003
03107F9C
062007F8
04200030
04400060
078000C0
03000180
00000300
00000700
00000E00
00001C00
00001800
00003000
00007000
0000E000
0001C000
00018000
00038000
00070000
000E0000
000C0000
001C0000
00380000
00700000
00700000
00E00000
01C00000
01C00000
03800000
07000000
07000000
0E000000
1E000000
3C000000
38000000
78000000
F0000000
20000000
ENDCHAR
STARTCHAR 0038
ENCODING 56
SWIDTH 375 0
DWIDTH 27 0
BBX 35 43 -1 -2
BITMAP
000000E000
0000001F00
0000000180
00000000C0
0000000060
0000000060
0000000E20
0000007020
0000038020
0000060060
00000C0060
0000180040
0000380080
0000700100
0000F00200
0000E00400
0000E01800
0000E02000
0000E0C000
0000F30000
0000FC0000
0000F00000
0000F80000
0003780000
000E380000
00183C0000
00603C0000
01C01C0000
03001E0000
0E000E0000
1C000E0000
38000E0000
30000E0000
60000E0000
60000C0000
E0001C0000
E000380000
E000300000
E000E00000
E001800000
7006000000
3C38000000
07C0000000
ENDCHAR
STARTCHAR 0039
ENCODING 57
SWIDTH 402 0
DWIDTH 29 0
BBX 39 44 1 -1
BITMAP
0000070000
0000380000
0001C00000
0006000000
0008000000
0030000000
0040000000
0180007FF8
020003800C
04000E0006
0800380006
0800E00006
1001C0000C
200700000C
200E000018
401C000030
4070000060
40E00001C0
41C0000300
41C0000E00
4380003800
270000E000
3600071C00
0E00787C00
0FFF81DC00
0E00073800
0E001C7000
0700E06000
01FF00E000
000001C000
0000038000
0000070000
00000E0000
0000180000
0000300000
0000E00000
0001C00000
0003000000
7006000000
E018000000
C030000000
80C0000000
EF00000000
3000000000
ENDCHAR
STARTCHAR 003A
ENCODING 58
SWIDTH 166 0
DWIDTH 12 0
BBX 11 13 0 0
BITMAP
00E0
01E0
01C0
0180
0000
0000
0000
0000
0000
0000
3800
7800
F000
ENDCHAR
STARTCHAR 003B
ENCODING 59
SWIDTH 194 0
DWIDTH 14 0
BBX 15 19 -4 -5
BITMAP
000E
001C
003C
0030
0000
0000
0000
00E0
01E0
03C0
01C0
0180
0100
0300
0200
0C00
1000
6000
8000
ENDCHAR
STARTCHAR 003C
ENCODING 60
SWIDTH 416 0
DWIDTH 30 0
BBX 21 16 7 9
BITMAP
000018
000060
000380
000C00
003000
00C000
070000
180000
600000
E00000
1C0000
078000
00E000
001C00
000380
000040
ENDCHAR
STARTCHAR 003D
ENCODING 61
SWIDTH 444 0
DWIDTH 32 0
BBX 24 5 6 13
BITMAP
3FFFFF
000000
000000
000000
FFFFFC
ENDCHAR
STARTCHAR 003E
ENCODING 62
SWIDTH 375 0
DWIDTH 27 0
BBX 20 16 5 9
BITMAP
060000
038000
00E000
003800
000C00
000300
0000C0
000030
000010
0000E0
000700
003800
00C000
070000
380000
C00000
ENDCHAR
STARTCHAR 003F
ENCODING 63
SWIDTH 333 0
DWIDTH 24 0
BBX 33 49 -1 -1
BITMAP
00C0000000
003E000000
0001C00000
0000200000
0000180000
0000080000
000007F000
00001A0C00
0000620200
0001820100
0006030100
0008030100
0010030080
0020030080
0040030080
00C0020100
0080020100
0100060300
0100040600
01000C0E00
0300181C00
0100383C00
0100707800
0180C0F000
00C781E000
007E07C000
00000F8000
00003F0000
00007C0000
0000F80000
0003F00000
0007C00000
000F800000
001E000000
003C000000
0078000000
00E0000000
01C0000000
0380000000
0300000000
0600000000
0600000000
0400000000
0000000000
0000000000
0000000000
3800000000
7800000000
F000000000
ENDCHAR
STARTCHAR 0040
ENCODING 64
SWIDTH 597 0
DWIDTH 43 0
BBX 45 28 -3 -7
BITMAP
0000007FF800
00000F800700
0000780001C0
0001C0000060
000700000030
001C00000030
007000000038
00E003FEE038
01C01F03E030
03007C03C030
0600F0078030
0C03C00F0060
1C07801E00E0
380F003C00C0
300E00F80180
601C01700300
603806E00600
E03009C01C00
C03031803000
C031C100E000
C03E01838000
C00000FC0000
E00000000000
600000000000
700000000000
3C0000000000
0FC03C000000
01FFC0000000
ENDCHAR
STARTCHAR 0041
ENCODING 65
SWIDTH 1416 0
DWIDTH 102 0
BBX 110 84 0 -14
BITMAP
00000000000001C0000000000000
0000000000001E00000000000000
000000000000E000000000000000
0000000000030000000000000000
00000000000C0000000000000000
0000000000100000000000000000
0000000000600000000000000000
0000000000800000000000000000
0000000001000000000000000000
0000000002000000060000000000
0000000004000001FFF000000000
000000000800000F801C00000000
000000001000003C000600000000
00000000200000F0000200000000
00000000200003C0000200000000
000000004000078000030000001C
0000000080000E000002000000FC
0000000080001C000002000003F0
0000000180003800000200000EE0
0000000100007000000400003380
000000010000E000000400004700
000000010001C000000800018C00
000000010001C000001000063800
0000000100038000003000087000
000000010007000000600030C000
000000010007000000C000418000
0000000100060000010000870000
00000001800E00000600030E0000
00000000800E00000C00041C0000
00000000400C0000300008700000
00000000600C0000C000B0E00000
00000000180C0007000161C00000
000000000E0C0078000683800000
0000000003EC3F80000907000000
00000000000FE00000160E000000
00000000000E0000006C1C000000
0000000000060000019838000000
00000000000300000620F0000000
00000000000380001841E0000000
000000000000C000E183C0000000
0000000000003C0F030780000000
00000000000003F0060700000000
00000000000000000C0E00000000
0000000000000000101C00000000
0000000000000000603800000000
0000000000000000C07800000000
00001F000000000180F000000000
0003E0E00000000300E000000000
001C00380000000401C000000000
0070001C0000001801C000000000
00C0000C00000030038000000000
0180000C00000FFF070000380000
0300000C0007F0C1FE0007C7C000
06000008003803000FC03C006000
0C00001801C006000CF0F0003000
1800001007000C001C3FC0001000
380000200C001800180F00001000
3000004038006000183F80001000
600000806000C00010F9C0001000
60000300C003800031E0E0003000
60001C018006000037C070002000
E0006003000C00003F0038004000
C0000002003000003C0018008000
C000000200600000F80018018000
C000000201800003F00018020000
E00000020700000FB0000C0C0000
E00000020C00001E30000C180000
60000002300000F8180008600000
70000001E00003E0180019800000
3800000380000F000E001E000000
1C00001C600078000380F8000000
0E0000601FFF8000007F30000000
07C0078000000000000030000000
00FFF80000000000000060000000
00000000000000000000C0000000
0000000000000000000180000000
0000000000000000000300000000
0000000000000000000600000000
0000000000000000000C00000000
0000000000000000003000000000
000000000000000000E000000000
0000000000000000038000000000
00000000000000000C0000000000
0000000000000000700000000000
ENDCHAR
STARTCHAR 0042
ENCODING 66
SWIDTH 1375 0
DWIDTH 99 0
BBX 125 80 -1 -15
BITMAP
00000000000000FFFC00000000000000
00000000000007000F00000000000000
000000000000380001C0000000000000
000000000000C0000060000000000000
00000000000300000030000000000000
00000000000C00000030000000000000
00000000003000000018000000000000
0000000000600000001800000001F800
000000000180000003EFFF80003E0F80
00000000030000003C0C007001C001C0
000000000C000001C00C000C07000060
0000000018000006000C00031C000030
0000000000000038000C0001F0000038
0000000000000060000C0000C0000018
0000000000000180001C0003E0000018
00000000000003000018000730000018
00000000000006000018001C30000018
0000000000000C000038003818000018
0000000000001800003000F018000010
0000000000003000007001E018000030
0000000000006000006003C018000060
000000000000C00000E00780180000C0
000000000001C00000C00E0038000180
000000000001800001C01C0038000300
00000000000380000380380030000C00
00000000000300000700700070003000
00000000000700000600E000E003C000
00000000000600000C01E001E0000000
00000000000600001803C003C0000000
00000000000600007007800780000000
0000000000060000E00F000F00000000
0000000000070001801E001C00000000
000000000003000607FC007800000000
000000000003801C387E01E000000000
000000000001E1E020F1870000000000
0000000000003E0039E0780000000000
00000000000000000FFFA00000000000
00000000000000000780300000000000
00000001FFC000000F00180000000000
0000000E00E000001E00080000000000
00000010007000003C000C0000000000
000000600030000078000C0000000000
0000008000300000F0000C0000000000
0000030000300001E0000E0000000000
0000060000300003C0000E0000000000
000004000030000780000E0000000000
000008000070000F00000E0000000000
0000107FF070001F00000C0000000000
00003F800FE0003E00001C0000000000
0003E00000F8007C00001C0000000000
000C400001C700F800001C0000000000
00704000018181F00000380000000000
01C040000380E3E0007FFF0000000000
0300800007003780038079E000000000
0C0080000E001F000C00703000000000
180080001C001E003000E01C00000000
3000800038003E006001E00E00000000
20008000700077008003C00600000000
60008001E000E3030007800300000000
4000800380038382000F000300000000
C000400700060184001E000300000000
C000601C001C0188003C000300000000
400020700070018800F0000300000000
600019C001C0018803C0000300000000
30000F000E00018E1F00000200000000
0E00F3F0F0000183E000000600000000
01FF000F000003800000000C00000000
00000000000003800000000C00000000
00000000000007000000001800000000
00000000000006000000003000000000
0000000000000E000000006000000000
0000000000001C00000000C000000000
00000000000038000000030000000000
000000000000600000000C0000000000
000000000001C0000000300000000000
00000000000700000007C00000000000
00000000001C00000000000000000000
0000000000E000000000000000000000
000000000F0000000000000000000000
00000000300000000000000000000000
ENDCHAR
STARTCHAR 0043
ENCODING 67
SWIDTH 1027 0
DWIDTH 74 0
BBX 88 85 0 -14
BITMAP
0000000E00000000000000
0000007800000000000000
000001C000000000000000
0000070000000000000000
00001C0000000000000000
0000300000000000000000
0000600000000000000000
0000C00000000000000000
0001800000000000000000
000300000003E000000000
00060000007FFE00000000
000E000003C00300000000
000C00000E000180000000
001C0000180000C0000000
00180000700000C0000000
00380000C00000C0000000
00300001800000C0000000
003000030000008001FFF8
00300006000001800F000E
0030000C00000100780006
0030001800000203E00003
003000100000040F800003
003800300000083E000003
0038006000003078000002
00180040000061F0000006
000C00C0000183C0000004
000E008000060F8000000C
0003008000381F00000018
0001C18000E03C00000010
000079801F007800000030
000007FFE000F000000060
000001000001E0000000C0
000001000007C000000180
0000010000078000000300
00000100000F0000000C00
00000100001E0000001800
00000100003E0000003000
00000100007C000000E000
0000018000F80000018000
0000018000F00000070000
000000C001E000001C0000
000000C003E00000700000
0000006003C00001C00000
0000003007800007000000
000000180F800038000000
0000000E0F0001E0000000
00000003DF001E00000000
00000000FFFFE000000000
000000003FF00000000000
000000003C000000000000
000000003C000000000000
000000007800000FF00000
00001FFFFE0000F03C0000
0003E00079E003000C0000
001C0000F01C1C00060000
00F00000F0077000060000
01C00000F001C000020000
07000000F0036000020000
0C000000F00E3800060000
18000000F0381C00060000
30000000F0F00E00060000
70000000F1C006000C0000
60000000F78003000C0000
E00000007E000380180000
C00000007C000180300000
C0000000F8000180200000
C0000003F80001C0C00000
C000000F1C0001C1800000
6000003E0E0001C3000000
700000F0070001CC000000
380003C001E001F0000000
0C001E00007FFF80000000
03F7F00000000380000000
0008000000000300000000
0000000000000700000000
0000000000000E00000000
0000000000001C00000000
0000000000003800000000
0000000000007000000000
000000000000E000000000
000000000003C000000000
00000000000F0000000000
00000000003C0000000000
0000002007E00000000000
0000001FFE000000000000
ENDCHAR
STARTCHAR 0044
ENCODING 68
SWIDTH 1166 0
DWIDTH 84 0
BBX 115 70 0 -6
BITMAP
0000000000007FE000000000000000
00000000000F803C00000000000000
000000000078000700000000000000
000000000180000380000000000000
000000000E000000C0000000000000
0000000030000000C0000000000000
00000000C000000060000000000000
00000003000000007FF00000000000
000000040000000FFFFF80000FF800
00000018000000FE2001E000F00600
00000020000007F020003803800180
000000C000001F8020000C0E0000C0
0000010000007C0020000638000040
000002000001F000200001E0000060
000000000003E000200001C0000060
00000000000F8000200007C0000060
00000000001E000060000E60000060
00000000003C000040001C60000040
000000000078000040007820000040
0000000000E00000C000F030000080
0000000001C000008001E030000180
00000000038000018003C030000300
000000000300000100070010000600
0000000006000002001E0018000800
000000000E000006003C0018003000
000000000C00000400780038004000
000000001800000800F00038000000
000000001800001001E00038000000
000000001000002003C00030000000
00000000100000C007800030000000
00000000200001800F000070000000
00000000200007001E000070000000
0000000020000C003C000070000000
0000000010003800780000E0000000
000000001801E000F00000E0000000
000000000FBF8001E00001E0000000
0000000003FC0003C00001C0000000
0000000000000007C00003C0000000
000000000000000F80000380000000
000000000000001F00000780000000
000000000000003E00000F00000000
000000000000007C00000F00000000
00000000000000F800001E00000000
00000000000001F000003E00000000
00000000000003E000003C00000000
00000000000007C000007800000000
0000000000000F800000F000000000
0000000000001F000001F000000000
0000000000003C000003E000000000
00000000000078000007C000000000
000000000000F000000F8000000000
000000000003E000001F0000000000
000000000007C000003E0000000000
00000000000F800000FC0000000000
00000000001F000001F00000000000
00000000003C000003E00000000000
00000000007800000FC00000000000
0000000001F000001F000000000000
0000000003E000007E000000000000
0380000007800000F8000000000000
7DFF00001F000003E0000000000000
C003F0003C00001F80000000000000
C0003F00F800007C00000000000000
C00003F1E00003F000000000000000
E000003F80003F0000000000000000
7000003FFF7FF00000000000000000
3C0000F81FF8000000000000000000
1F0007E00000000000000000000000
0FFFFF000000000000000000000000
01FFF0000000000000000000000000
ENDCHAR
STARTCHAR 0045
ENCODING 69
SWIDTH 1041 0
DWIDTH 75 0
BBX 92 90 0 -14
BITMAP
000000000380000000000000
000000001E00000000000000
000000007000000000000000
00000001C000000000000000
000000030000000000000000
0000000E0000000000000000
000000180000000000000000
000000300000000000000000
000000600000000000000000
000000C00000003F00000000
000001C000000FFFE0000000
0000018000003C0038000000
000003000000E00018000000
000007000003800008000000
00000600000E000008000000
000006000018000008000000
00000E000030000008000000
00000C000060000010000000
00000C0000C0000010000000
00000C000180000020000000
00000C000300000040000000
00000C000600000080000000
00000E0004000003003FFF80
00000E000C00000601F800E0
00000700080000180FC00060
00000300180000703F000030
00000180100001C07C000020
000000C010000701F8000060
0000007030003803E0000040
0000001E3003C007C00000C0
00000001FFFC000F80000180
000000003000001F00000300
000000003000001E00000600
000000003000003C00001800
000000001000007800003000
00000000100000700000C000
00000000180000F000038000
000000000C0000E0000E0000
000000000C0000E000300000
00000000070000C000C00000
00000000018000C007000000
0000000000E000C078000000
00000000003E00DF80000000
000000000003FFE000000000
000000000000004000000000
000000000000004000000000
0000000000000020FE000000
000000000000007F01C00000
000000000000078C00C00000
0000000000001C03FF000000
000000000000E00000000000
000000000003800000000000
00000000000E000000000000
000000000018000000000000
000000000070000000000000
0000000000E0000000000000
0000000001C0000000000000
00007FFFFF80003FF0000000
0007800007E001C03C000000
003800000E1C0E000C000000
00C000001E033C000E000000
030000001C00F00006000000
060000003801E00007000000
180000003807100006000000
30000000781E08000E000000
20000000703804000E000000
6000000070F002001C000000
C0000000F3C002001C000000
C0000000F700010038000000
C00000007E00010070000000
C000000078000100E0000000
C0000001F8000101C0000000
C0000007F800010380000000
6000001E3C00010E00000000
300000781E00013800000000
1C0003C00F0002E000000000
0F003C0003E00F0000000000
00FFC000007FF40000000000
0000000000000C0000000000
000000000000080000000000
000000000000100000000000
000000000000600000000000
000000000000C00000000000
000000000001800000000000
000000000006000000000000
000000000018000000000000
000000000060000000000000
000000000380000000000000
000000003C00000000000000
00000000C000000000000000
ENDCHAR
STARTCHAR 0046
ENCODING 70
SWIDTH 1027 0
DWIDTH 74 0
BBX 135 69 0 -4
BITMAP
000000000000000000000000000000FF80
00000000000000000000000000000FFFF0
0000000000000000000000000000780038
00000000000007FFF8000000000380000C
00000000000038000E000000000C000006
000000000001C000018000000000000002
000000000006000000C000000000000002
0000000000180000002000000000000002
0000000000700000003000000000000006
0000000000C00000001000000000000004
000000000300000001FFFE000000000008
00000000060000003E080FF80000000030
0000000008000001E008007FE0000000E0
000000003000000700080001FF80000780
000000006000003C000800000FFF81FE00
000000000000007000100000087FFFE000
00000000000001E0001000007000000000
0000000000000380001000038000000000
0000000000000F000010000E0000000000
0000000000001C000020003C0000000000
0000000000003800002000700000000000
0000000000007000004001E00000000000
000000000000E00000C003C00000000000
000000000000C00000800F000000000000
000000000001800001001E000000000000
000000000003000003003C000000000000
0000000000030000020078000000000000
00000000000600000400F0000000000000
00000000000400000801E0000000000000
00000000000C00001003C0000000000000
00000000000C0000200780000000000000
0000000000080000400F00000000000000
0000000000080001801E00000000000000
0000000000080002003C00000000000000
000000000004000C007800000000000000
000000000004003000F800000000000000
00000000000300C001F000000000000000
000000000000FF0003E000000000000000
000000000000000007C000000000000000
000000007F0000000F8000000000000000
0000000381C000001F0000000000000000
0000000C00E000003E0000000000000000
00000030006000007C0000000000000000
0000004000700000780000000000000000
0000018000700000F00000000000000000
0000030000700001E00400000000000000
0000020000600003C03B00000000000000
0000040000E00007806200000000000000
0000080000E0000F01C400000000000000
00001FFF80C0001E038800000000000000
0003F0007FC0003C073000000000000000
001C200003FF00780FC000000000000000
00E020000300FFF1FE0000000000000000
01804000070001EE180000000000000000
060040000E0003C0300000000000000000
0C0080001C000780600000000000000000
1800800018000F00C00000000000000000
3000800030001E01800000000000000000
6000800060003803000000000000000000
40008001C0007004000000000000000000
C00080030001E000000000000000000000
C000800600038000000000000000000000
C000800C00070000000000000000000000
C0004030001C0000000000000000000000
C00040C000300000000000000000000000
4000230000C00000000000000000000000
60001C0003000000000000000000000000
100066001C000000000000000000000000
0FFF81FFE0000000000000000000000000
ENDCHAR
STARTCHAR 0047
ENCODING 71
SWIDTH 930 0
DWIDTH 67 0
BBX 86 92 0 -17
BITMAP
00000000E0000000000000
0000000700000000000000
0000001C00000000000000
0000006000000000000000
000001C000000000000000
0000030000000000000000
0000060000000000000000
00000C0000000000000000
0000180000000000000000
0000300000000F80000000
000060000003FFF8000000
0000E000000F001C000000
0000C00000380006000000
0001800000E00002000000
0001800003800002000000
0003800006000002000000
000300000C000006000000
0003000018000004000000
0003000030000008000000
0007000060000018000000
00070000C0000030007FC0
00030001800000600FC0F0
00030003000000C07E0018
0003800200000101F0000C
0001800600000607C0000C
0001C0040000181F80000C
0000E00C0000703E000018
00007008000380FC000018
00001C18001E01F0000030
0000079801E003E0000060
0000007FFE0007C0000040
0000001000000F80000080
0000001000001F00000300
0000003000003E00000600
0000001000003C00000C00
0000001000007800001800
000000100000F000006000
000000180000F000008000
000000180001E000030000
0000000C0001C0000C0000
0000000C0001C000300000
0000000600038001C00000
000000030003800E000000
00000001C0030078000000
00000000780307C0000200
000000001FFFF800000C00
00000000003A0000001800
0000000000020000003000
0000000000020000006000
000000003F020000018000
00000001C0E20000030000
00000006007100000E0000
00000018003080007C0000
0000002000384003D80000
0000004000183FFC300000
0000008000380000600000
0000010000380000C00000
0000020000300001C00000
0000040000300003800000
00000FFFFE700007000000
0001F80001F0000E000000
001E100000EE001C000000
0060300001C18038000000
01802000038060F0000000
06006000038019F0000000
0C00400007000FE0000000
1800C0000E0007C0000000
3000C0001C000F80000000
6000800038001F00000000
40008000F0003C80000000
C0008001E000F880000000
C00180038001F0C0000000
C000800F0007C040000000
C000801C000F0040000000
4000C070003C0040000000
6000C1C000F00040000000
38006F0003C00080000000
0E00F0001E000080000000
01FF1C00F0000080000000
000007FF00000100000000
0000000000000300000000
0000000000000600000000
0000000000000C00000000
0000000000001800000000
0000000000003000000000
0000000000004000000000
0000000000018000000000
0000000000060000000000
0000000000180000000000
0000000000E00000000000
000000000F000000000000
0000000038000000000000
ENDCHAR
STARTCHAR 0048
ENCODING 72
SWIDTH 1138 0
DWIDTH 82 0
BBX 103 88 0 -15
BITMAP
0000001E000000000000000000
000000E0000000000000000000
00000700000000000000000000
00001800000000000000000000
00006000000000000000000000
00008000000000000000000000
00030000000000000000000000
00040000000000000000000000
00080000000000000000000000
0010000000FE00000000000000
002000000FFFE0000000000000
004000007C0030000000000000
00800001E00018000000000000
01000007800008000000000000
0100000E00000C000000000078
0200003C00000C0000000007C6
02000078000008000070003E02
040000F000000800018000F002
040001E000001000070003C004
040003C0000030000C000F800C
040003800000200030001E0008
040007000000400060007C0010
04000E0000018001C000F00020
06000E00000300030003E00040
02001C00000400060007800180
03001C000018001C000F000200
0100380000600038003E000C00
00C0380001800070007C001000
006030000E0000E000F0006000
001C3000F00001C001E0008000
0003FFFF0000038007C0030000
0000700000000F000F80040000
0000300000001E001F00180000
0000300000003C003E00600000
000030000000F8007C01800000
000030000003F000F806000000
000018000005E001F018000000
00000C00001BC003E060000000
0000060000E78007C180000000
000003000707000F8E00000000
000000FDF80E000F3000000000
00000002001E001FC000000000
00000000003C003E0000000000
00000000007800780000000000
0000000000F000F00000000000
0000000001E007E00000000000
0000000003C039E00000000000
000000000781C3C00000000000
000000000F0607800000000000
000000001E380F000000000000
000000003DC00F000000000000
000000007E001E000000000000
00000000F0001C0007F8000000
00000003E0003C00181C000000
0000001FC0007800600C000000
000000E780007000C00E000000
0000030F0000F001800E000000
00001C1E0000E002000E000000
0000E03C0001C004000E000000
000700780001C008000E000000
001800F000038018001C000000
006001F000038030001C000000
018003C0000380200038000000
06000780000300600038000000
18000F00000700400070000000
30003C00000700800060000000
400078000007008000E0000000
4000E0000006008001C0000000
8003C000000601000380000000
80070000000601000700000000
801C0000000301000E00000000
80700000000301001800000000
67800000000181006000000000
180000000000C1018000000000
000000000000391E0000000000
00000000000007E00000000000
00000000000001000000000000
00000000000001000000000000
00000000000001000000000000
00000000000001000000000000
00000000000000800000000000
00000000000000800000000000
00000000000000400000000000
00000000000000200000000000
00000000000000100000000000
00000000000000080000000000
00000000000000070040000000
0000000000000000FF80000000
ENDCHAR
STARTCHAR 0049
ENCODING 73
SWIDTH 902 0
DWIDTH 65 0
BBX 111 57 0 -2
BITMAP
00000000000000000000000003FE
0000000000000000000000001C02
000000000000000000000000E002
0000000000000000000000038004
00000000000000000000000E0018
00000000000000000000001807E0
00000000000000000000007FF800
00000000000000000001FFE00000
000000000000000000FF83800000
000000000000000007C007000000
00000000000000003C000E000000
0000000000000001E0001C000000
0000000000000003800078000000
000000000000000E0000F0000000
00000000000000180001E0000000
00000000000000100003C0000000
0000000000000030000700000000
0000000000000060000F00000000
0000000000000060001E00000000
0000000000000060003C00000000
0000000000000040007800000000
000000000000004001F000000000
000000000000006003E000000000
0000000000000061FFF000000000
000000000000003E0FB000000000
00000000000001F81F3000000000
0000000000000E0E3EE000000000
0000000000003003FF0000000000
000000000000C000F80000000000
0000000000018001F00000000000
0000000000060003E00000000000
00000000000C0007C00000000000
000000000010000F800000000000
000000000020001F000000000000
000000000040003E000000000000
000000000080007C000000000000
00000000010000F8000000000000
00000000030001F0000000000000
00000000060003E0000000000000
0000000004000780000000000000
000000000C001F00000000000000
0000000008003E00000000000000
0000000008007C00000000000000
600000001000F800000000000000
E00000001003E000000000000000
C00000001007C000000000000000
80000000100F8000000000000000
80000000103E0000000000000000
8000000010780000000000000000
C000000011F00003000000000000
4000000017C00006000000000000
200000000F000018000000000000
180000007C000060000000000000
0E000001E6000180000000000000
03C0000F83800E00000000000000
003FC7F800FFF800000000000000
00003C0000060000000000000000
ENDCHAR
STARTCHAR 004A
ENCODING 74
SWIDTH 555 0
DWIDTH 40 0
BBX 115 86 -30 -29
BITMAP
000000000000001800000000001FC0
0000000000000FEFF000000000E0E0
00000000000070000E0000000300E0
0000000000038000030000000C00C0
00000000000C000000800000300100
000000000030000000400000C00600
0000000000C0000000200001007800
0000000001800000002000063F8000
00000000060000000013FFFFF00000
000000000C00000007FFFE10000000
0000000010000000FF900060000000
000000006000000FF01000C0000000
00000000C000007F00100180000000
00000000000001F000100300000000
00000000000007C000100600000000
0000000000001F0000200C00000000
0000000000003C0000203800000000
000000000000F00000207000000000
000000000001E0000040E000000000
000000000003C0000041C000000000
000000000007800000838000000000
000000000007000000870000000000
00000000000E0000010E0000000000
00000000000C0000021C0000000000
000000000018000006380000000000
00000000001800000C700000000000
000000000018000018E00000000000
000000000018000031C00000000000
000000000018000063800000000000
0000000000180000C7000000000000
00000000001800010E000000000000
00000000000C00061E000000000000
00000000000600083C000000000000
000000000003007078000000000000
000000000000FF80F0000000000000
0000000000000001E0000000000000
0000000000000001C0000000000000
000000000000000380000000000000
000000000000000700000000000000
000000000000000F00000000000000
000000000000001E00000000000000
000000000000003C00000000000000
000000000000007800000000000000
00000000000000F000000000000000
00000000000001E000000000000000
00000000000003C000000000000000
00000000000007C000000000000000
0000000000000F8000000000000000
0000000000001F0000000000000000
0000000000003E0000000000000000
0000000000003C0000000000000000
0000000000007B0000000000000000
00000000000FF4FC00000000000000
0000000000F1E00300000000000000
000000000F03C00180000000000000
000000007807800180000000000000
00000003C00F0001C0000000000000
0000000F001F000180000000000000
0000003C003E000180000000000000
000000E0007C000300000000000000
0000038000F8000300000000000000
00000F0001F0000600000000000000
00003C0003E0000C00000000000000
0000700007C0001800000000000000
0001C0000F80007000000000000000
000380001F0000C000000000000000
000600003E00018000000000000000
001C00007C00060000000000000000
00380000F800180000000000000000
00600031F000600000000000000000
00C0001BC003800000000000000000
01800007801C000000000000000000
0300000FFFE0000000000000000000
0600003E0000000000000000000000
0C00007C0000000000000000000000
180000F00000000000000000000000
300001E00000000000000000000000
200007C00000000000000000000000
40000F000000000000000000000000
40001E000000000000000000000000
800078000000000000000000000000
8001E0000000000000000000000000
800780000000000000000000000000
C01E00000000000000000000000000
7FF000000000000000000000000000
040000000000000000000000000000
ENDCHAR
STARTCHAR 004B
ENCODING 75
SWIDTH 1500 0
DWIDTH 108 0
BBX 147 88 -1 -17
BITMAP
00000000000001800000000000000000000000
0000000000001E000000000000000000000000
00000000000060000000000000000000000000
00000000000380000000000000000000000000
00000000000C00000000000000000000000000
00000000001000000000000000000000000000
00000000006000000000000000000000000000
00000000008000000000000000000000000000
00000000010000000000000000000000000000
00000000020000000000000000000000000000
0000000004000000FFE0000000000000003C00
000000000800000F80380000000000000FC380
000000001000003C000C0000000000007000C0
00000000200000F00006000000000001800040
00000000400003C00006000000000006000060
0000000040000780000200000000001C000020
0000000080000E000002000001800070000020
0000000080003C0000020000060000E0000060
00000001000078000006000018000180000040
00000001000070000004000060000700040040
000000010000E000000C0001C0000E003800C0
000000020001C0000008000300001C00C00080
00000002000380000010000E00007801000180
00000002000380000020001C0000F002000300
0000000200070000006000380001C004000200
00000003000700000080006000038008000400
00000003000E0000010001C000070008001800
00000001000E000006000380000E0008003000
00000001800C00000C000700003C0008006000
00000000801C000030000E0000780008018000
00000000401C0000C0009C0000F0000C0E0000
00000000301C00070001380001E00003F00000
000000001C1C00380006700003800000000000
00000000079C07C00008E00007000000000000
00000000007FF8000031C0001E000000000000
00000000000C0000004380003C000000000000
00000000000C00000187000078000000000000
0000000000060000060E0000E0000000000000
0000000000030000181C0003C0000000000000
0000000000018000E038000700000000000000
0000000000007007007F001C00000000000000
0000000000000FF800F0C07000000000000000
000000000000000001F823C000000000000000
000000000000000003CFFE0000000000000000
00000000000000000780180000000000000000
00000001FFC000000F00180000000000000000
0000000E00E000001E00180000000000000000
00000010007000003C00180000000000000000
00000060003000007800180000000000000000
0000008000300000F000380000000000000000
0000030000300001E000380000000000000000
0000060000300003C000700000000000000000
00000400003000078000F0007E000000000000
000008000070000F0001E00183800000000000
0000107FF070001E0003E00601800000000000
00003F800FE0003C0007C01801C00000000000
0003E00000F800780007802001C00000000000
000C400001C700F0000F00C001C00000000000
00704000018181E0001E018001C00000000000
01C040000380E3C0003C030003800000000000
03008000070037800038020003800000000000
0C0080000E001F000078040003800000000000
180080001C001C0000700C0007000000000000
3000800038003E000060080006000000000000
200080007000F700006018000E000000000000
60008001E001C300006010001C000000000000
40008003800783800040300038000000000000
C0004007000E01800040200030000000000000
C000601C003801800040200060000000000000
4000207000F0018000202000C0000000000000
600019C0038001800020600380000000000000
30000F001E0001800010400600000000000000
0E00F3F1F00001800018401800000000000000
01FF000E00000380000640E000000000000000
00000000000003800001FF0000000000000000
00000000000007000000400000000000000000
00000000000006000000400000000000000000
0000000000000E000000200000000000000000
0000000000001C000000200000000000000000
00000000000038000000200000000000000000
00000000000060000000100000000000000000
000000000001C0000000100000000000000000
00000000000700000000080000000000000000
00000000001C00000000040000000000000000
0000000000E000000000020000000000000000
000000000F000000000001C000000000000000
00000000300000000000003E78000000000000
00000000000000000000000180000000000000
ENDCHAR
STARTCHAR 004C
ENCODING 76
SWIDTH 1250 0
DWIDTH 90 0
BBX 104 89 0 -18
BITMAP
00000000000000800000000000
0000000000000F000000000000
00000000000030000000000000
000000000000C0000000000000
00000000000300000000000000
00000000000400000000000000
00000000001800000000000000
00000000002000000000000000
00000000004000000000000000
0000000000800000FFF8000000
0000000001000007E01E000000
000000000200001E0007000000
00000000040000780003000000
00000000040000E00003000000
00000000080003C00001800000
00000000100007000001000000
0000000010000E000003000000
0000000020001C0000030000C0
00000000200018000002001FFC
0000000020003000000600700E
0000000020006000000C01C006
000000004000E0000008070007
000000004000C00000180E0007
000000004001C00000303C0007
00000000400180000060780006
00000000600300000080F0000E
00000000200300000301E0000C
00000000300300000603C0001C
00000000100600001807800038
0000000008060000600F000030
0000000006060001801E000070
000000000386000E003C0000E0
0000000000F401F000780001C0
00000000000FFE0000F0000380
000000000004000001E0000700
000000000004000003C0000E00
00000000000400000780001C00
00000000000600000F00003800
00000000000600001E0000E000
00000000000200003C0001C000
00000000000300007800038000
0000000000010000F0000E0000
0000000000018000E0003C0000
000000000000C001C000700000
00000000000060038001C00000
0000000000003007000F000000
0000000000001C0E0038000000
000000000000079E01E0000000
00000000000000FFFE00000000
000000000000007B0000000000
00000000000000F00000000000
00000000000001E00000000000
00000000000003C00000000000
00000000000007000000000000
0000000000000E000000000000
0000000000001C000000000000
00000000000038000000000000
00000000000070000000000000
000000000000E0000000000000
000000000003C0000000000000
00000000000700000000000000
00000000000E00000000000000
00000000001C00000000000000
03FE000000780001FFFC000000
1E07F00000E0001E0003800000
30003F8001C000600000C00000
600003F8070001800000600000
6000003F9C0006000000600000
E0000003FC000C000000600000
60000000FFC018000000600000
6000000383FC30000000C00000
3000001C003FE0000003800000
1C0000F00003FE00000F000000
07000F000000CFFC01F8000000
01FFF0000000C03FFF80000000
00000000000080000000000000
00000000000080000000000000
00000000000080000000000000
00000000000080000000000000
000000000000C0000000000000
00000000000040000000000000
00000000000060000000000000
00000000000020000000000000
00000000000010000000000000
00000000000008000000000000
00000000000006000000000000
00000000000003000000000000
00000000000000E00000000000
000000000000001FE000000000
ENDCHAR
STARTCHAR 004D
ENCODING 77
SWIDTH 1611 0
DWIDTH 116 0
BBX 128 87 -1 -15
BITMAP
00000000000000400000000000000000
00000000000007800000000000000000
00000000000038000000000000000000
000000000000C0000000000000000000
00000000000300000000000000000000
00000000000C00000000000000000000
00000000003000000000000000000000
00000000004000000000000000000000
00000000008000000000000000000000
00000000010000000000000000000000
00000000020000003FE0000000000000
0000000004000003F0F8000000000000
000000000800001F000E000000000000
00000000100000780006000000000000
00000000200001E00003000000000001
00000000200003C00003000001C00006
0000000040000700000100000E00001C
00000000C0001E00000300001C000038
0000000080003C0000020000780000F0
000000008000380000020000B0000140
00000001000070000006000360000680
000000010000E00000040006C0000B00
000000010001C0000008000980003600
000000010001C0000010001300004C00
00000001000380000030002700019800
00000001000300000060004E00023000
00000001000700000080009C0004E000
0000000180070000030001380019C000
00000000800E00000600023800238000
00000000C00E00001800047000470000
00000000600E0000700048E0018E0000
00000000300C0001800091E003180000
000000001C0C000E000321C006300000
00000000078C00F00004438008600000
0000000000FFFF000008878011C00000
00000000000600000031070023800000
000000000006000000C20E0047800000
000000000007000001041E018F000000
00000000000300000E081C031E000000
000000000001C000301038063C000000
0000000000006001C020780838000000
0000000000001FFE0040701070000000
00000000000000000080F020E0000000
00000000000000000100E041C0000000
00000000000000000201C08380000000
00000001FF0000000403C10700000000
0000000E01C000000803820F00000000
00000030006000001007041E00000000
0000004000600000200F081C00000000
0000018000700000400E103800000000
0000020000300000801E2070001C0000
0000040000700001001C40F000F78000
0000080000600002003880E00301C000
0000100000600004007901C00400C000
0000300000E00008007203C01800C000
00003FFFFFC0001000E403803000E000
0001C00001F0002000E807006000E000
000E4000019C004001D00700C000E000
007080000387008003E00E008001C000
018080000701C10003C00E010001C000
070080000E00620007800C020001C000
0C0100000C003C0007001C0200038000
18010000180018000E001C0400038000
3001000070003C001C00180C00070000
60010000E0004E0018001808000E0000
C0010001C000860030001818000E0000
C00180038003070060001810001C0000
8000800E000403006000181000380000
8000C01C00180380C000182000700000
80004070002003808000082000E00000
C00031C000C003810000082003800000
60001F00070003830000042007000000
1800F70078000380000002201C000000
07FF00FF8000030000000120E0000000
0000000000000700000000FF00000000
00000000000006000000002000000000
0000000000000E000000002000000000
0000000000001C000000002000000000
00000000000018000000001000000000
00000000000030000000001000000000
000000000000E0000000000800000000
000000000001C0000000000400000000
00000000000700000000000300000000
00000000001C000000000000F0300000
0000000000F00000000000000FC00000
00000000070000000000000000000000
00000000380000000000000000000000
ENDCHAR
STARTCHAR 004E
ENCODING 78
SWIDTH 1097 0
DWIDTH 79 0
BBX 141 87 -1 -15
BITMAP
000000000000010000000000000000000000
0000000000001E0000000000000000000000
000000000000E00000000000000000000000
000000000003000000000000000000000000
00000000001C000000000000000000000000
000000000020000000000000000000000000
0000000000C0000000000000000000000000
000000000100000000000000000000000000
000000000200000000000000000000000000
000000000C00000000000000000000000000
0000000018000001FF800000000000000000
000000003000000FC3E00000000000000000
000000002000007800300000000000000000
00000000400001E000180000000000000000
000000008000078000080000000000000000
0000000100000F00000C0000070000000000
0000000100003C00000C00001C0000000000
0000000200007800000C000070000000FC00
000000020000F00000080000E000001F0380
000000060001E00000080003C00000E00060
000000040001C00000100005800003000020
00000004000380000030000B00000C000030
000000040007000000200017000030000010
00000004000F00000040006E0000C0000018
00000004000E0000008000CC000100000018
00000004001C000001000198000600000018
00000004001C000002000338000800000018
00000006001800000C000270003000000038
0000000200380000180004E0004000000038
0000000300380000600009E0018000000070
0000000180300001800011C0030001800070
00000000C0300006000223800600060000E0
0000000070300038000C47800800180001C0
000000001C3007C0001087001000300003C0
0000000003FFF80000610E00200060000780
000000000030000000831E004000C0000700
000000000018000003061C01800080001E00
00000000001800000C0C3803000100003C00
00000000000C000030187806000100007800
0000000000060000C030700C00030000E000
00000000000180070060E01000020003C000
0000000000007FF80041E020000200070000
00000000000000000081C0400003001E0000
00000000000000000103C080000100780000
000000000000000002038180000181E00000
00000001FF0000000407830000007F000000
0000000E01C00000080F0600000000000000
0000003000600000100E0C00000000000000
0000004000600000201E1800000000000000
0000018000700000401C1000000000000000
0000020000300000803C2000000000000000
000004000070000100384000000000000000
000008000060000200708000000000000000
000010000060000400710000000000000000
0000300000E0000800E20000000000000000
00003FFFFFC0001000E40000000000000000
0001C00001F0002001CC0000000000000000
000E4000019C004001D80000000000000000
007080000387008003B00000000000000000
018080000701C10003E00000000000000000
070080000E00620007C00000000000000000
0C0100000C003C0007800000000000000000
18010000180018000F000000000000000000
3001000070003C000E000000000000000000
60010000E0004E000E000000000000000000
C0010001C00086001C000000000000000000
C00180038003070018000000000000000000
8000800E0004030030000000000000000000
8000C01C0018038020000000000000000000
800040700020038060000000000000000000
C00031C000C00380C0000000000000000000
60001F000700038080000000000000000000
1800F7007800038000000000000000000000
07FF00FF8000030000000000000000000000
000000000000070000000000000000000000
000000000000060000000000000000000000
0000000000000E0000000000000000000000
0000000000001C0000000000000000000000
000000000000180000000000000000000000
000000000000300000000000000000000000
000000000000E00000000000000000000000
000000000001C00000000000000000000000
000000000007000000000000000000000000
00000000001C000000000000000000000000
0000000000F0000000000000000000000000
000000000700000000000000000000000000
000000003800000000000000000000000000
ENDCHAR
STARTCHAR 004F
ENCODING 79
SWIDTH 680 0
DWIDTH 49 0
BBX 82 81 -12 -5
BITMAP
00003C0000000000000000
0000E00000000000000000
0007000000000000000000
000C000000000000000000
0030000000000000000000
0060000000000000000000
00C000000FFE0000000000
018000007C078000000000
03000001C0008000000000
0600000700004000000000
0C00000C00004000000000
1C00003000006000000000
1800006000004000000000
380000C000004000000000
3000018000004000000000
700002000000C000000000
6000060000008000000000
60000C0000010000000000
6000180000030000000000
E00030000006000001FC00
E0002000000C00000E0300
6000600000180000380180
6000400000300000600080
6000C000006000000000C0
7000800000C001FF0000C0
3001800003800F818000C0
3801000006007C008000C0
1C0300001801F0008000C0
0E030000E007C000800080
03820003800F8001800080
00E2003C003E0001000180
001FFFC0007C0003000100
0006000000F80002000300
0006000003E00004000300
0006000007C0000C000600
000600000F800018000600
000600001F000030000C00
000600003E000060000C00
000200007C0001C0001800
00020000F8000300001800
00030001F0000600003000
00010003E0001C00006000
00018007C0003000006000
0000C00F8000C00000C000
0000601F00030000018000
0000383E001C0000018000
00001E3E00F00000030000
000007FC1F800000060000
000000FFF00000000C0000
000001F0000000000C0000
000001E000000000180000
000003E000000000300000
000007C000000000600000
0000078000000000C00000
00000F8000000001C00000
00000F0000000001800000
00001E0000000003000000
00001E0000000006000000
00003C000000000C000000
00003C0000000018000000
0000780000000030000000
0000780000000060000000
0000F000000000C0000000
0000F00000000180000000
0000E00000000300000000
0000E00000000600000000
0001E00000001800000000
0001C00000003000000000
0001C00000006000000000
0001C0000000C000000000
0001C00000038000000000
0001C00000060000000000
0001C000000C0000000000
0001C00000300000000000
0000C00000600000000000
0000C00001800000000000
0000E00006000000000000
0000700018000000000000
00003800E0000000000000
00000FDF00000000000000
0000002000000000000000
ENDCHAR
STARTCHAR 0050
ENCODING 80
SWIDTH 958 0
DWIDTH 69 0
BBX 125 79 0 -15
BITMAP
00000000000000FFFC00000000000000
0000000000000F000700000000000000
000000000000700001C0000000000000
000000000001C00000E0000000000000
00000000000700000070000000000000
00000000001C00000030000000000000
0000000000300000001800000003F000
0000000000C00000001FC000003C0F00
000000000180000007F83FC001C001C0
000000000600000078180038070000E0
000000000C000003800C000E1C000070
000000001000000C001C000370000030
0000000000000030001C0001C0000018
00000000000000C000180003E0000018
00000000000001800018000E60000018
00000000000006000018001C70000018
0000000000000C000038007830000018
0000000000001800003000F038000030
0000000000003000003001C038000030
00000000000060000070038038000060
000000000000E00000600700380000C0
000000000000C00000C00E0038000180
000000000001800001C03C0038000300
00000000000380000180780070000C00
00000000000300000300F00070007000
00000000000700000701E000F0038000
00000000000600000E03C001E0000000
00000000000600001C078001C0000000
000000000006000038070003C0000000
0000000000060000600E000780000000
0000000000060000C01C000F00000000
00000000000600038038001E00000000
000000000007000E0078007800000000
000000000003803800F000F000000000
000000000001F3C001E003C000000000
0000000000001C0003C00F0000000000
00000000000000000780FC0000000000
00000001FF8000007FFFE00000000000
0000000E00E000001E40000000000000
00000030006000003C00000000000000
00000040003000007800000000000000
0000018000300000F000000000000000
0000030000300001E000000000000000
0000040000300003C000000000000000
00000C00003000078000000000000000
000018000070000F0000000000000000
0000107FF060001E0000000000000000
00003F800FE0003C0000000000000000
0003E00000F800780000000000000000
001C400001CE00F80000000000000000
00604000038181E00000000000000000
018080000700E3C00000000000000000
07008000060037800000000000000000
0C0080000E001F000000000000000000
180080001C001E000000000000000000
3000800038003E000000000000000000
60008000E00076000000000000000000
40008001C000C3000000000000000000
C0008003800383000000000000000000
C000C00E000E03800000000000000000
C000401C001801800000000000000000
C0002070006001800000000000000000
600031C0038001800000000000000000
30000E000E0001800000000000000000
0E01F3E1F00003800000000000000000
01FE000E000003800000000000000000
00000000000003000000000000000000
00000000000007000000000000000000
0000000000000E000000000000000000
0000000000000C000000000000000000
00000000000018000000000000000000
00000000000030000000000000000000
000000000000E0000000000000000000
000000000001C0000000000000000000
00000000000700000000000000000000
00000000001C00000000000000000000
0000000000E000000000000000000000
000000000F0000000000000000000000
00000000300000000000000000000000
ENDCHAR
STARTCHAR 0051
ENCODING 81
SWIDTH 1208 0
DWIDTH 87 0
BBX 82 81 0 -17
BITMAP
0000000007FFC000000000
0000000038003800000000
00000001C0000C00000000
0000000E00000200000000
0000003000000100000000
000000C000000180000000
00000100000000C0000000
00000600000000C0000000
00000800000001FFF80000
0000300000003E400F8000
000040000001C06000E000
00008000000E0060007000
0001000000300060001C00
0002000000C000E0000C00
00040000030000C0000E00
000000000C0000C0000700
00000000180000C0000700
00000000600001C0000700
00000000C0000180000700
0000000100000380000780
0000000600000380000780
0000000C00000700000700
0000001800000700000700
0000003000000E00000700
0000006000000E00000F00
000000C000001C00000F00
0000018000003800000E00
0000010000007800001E00
0000020000007000001C00
000006000000E000003C00
00000C000001C000007800
0000080000038000007800
000018000007800000F000
00001000000E000001E000
00003000001C000001E000
000020000078000003C000
0000200000F00000078000
0000200003C000000F0000
00006000078000001E0000
000060001E0000003E0000
00002000780000007C0000
00003003C0000000F80000
00001E3E00000001F00000
000003C000000003E00000
0000000000000007C00000
000000000000000F000000
000000000000001E000000
000000000000003C000000
00000000000000F8000000
00000000000001F0000000
00000000000003C0000000
0000000000000F80000000
0000000000001E00000000
0000000000007C00000000
000000000000F0007FE000
003FF8000003E007C03E00
03F0FFF0000F8038000300
0C0001FF803E00C0000180
3000000FF8F801000000C0
60000000FFE00200000040
C00000001FFC0400000040
800000003DFFC8000000C0
80000001F01FFC00000180
8000000F8001FFE0000300
4000007C00002FFF801E00
60000FC00000603FFFF000
1F1FF80000004000000000
00E0000000004000000000
0000000000004000000000
0000000000004000000000
0000000000004000000000
0000000000006000000000
0000000000006000000000
0000000000002000000000
0000000000003000000000
0000000000001800000000
0000000000000C00000000
0000000000000600000000
0000000000000180000000
0000000000000070030000
000000000000000FFC0000
ENDCHAR
STARTCHAR 0052
ENCODING 82
SWIDTH 1513 0
DWIDTH 109 0
BBX 125 81 -1 -16
BITMAP
00000000000000FFFC00000000000000
00000000000007000F00000000000000
000000000000380001C0000000000000
000000000000C0000060000000000000
00000000000300000030000000000000
00000000000C00000030000000000000
00000000003000000018000000000000
0000000000600000001800000001F800
000000000180000003EFFF80003E0F80
00000000030000003C0C007001C001C0
000000000C000001C00C000C07000060
0000000018000006000C00031C000030
0000000000000038000C0001F0000038
0000000000000060000C0000C0000018
0000000000000180001C0003E0000018
00000000000003000018000730000018
00000000000006000018001C30000018
0000000000000C000038003818000018
0000000000001800003000F018000010
0000000000003000007001E018000030
0000000000006000006003C018000060
000000000000C00000E00780180000C0
000000000001C00000C00E0038000180
000000000001800001C01C0038000300
00000000000380000380380030000C00
00000000000300000700700070003000
00000000000700000600E000E003C000
00000000000600000C01E001E0000000
00000000000600001803C003C0000000
00000000000600007007800780000000
0000000000060000E00F000F00000000
0000000000070001801E001C00000000
000000000003000607FC007800000000
000000000003801C387B81E000000000
000000000001E1E020F0678000000000
0000000000003E0039E0780000000000
00000000000000000FFF980000000000
00000000000000000780080000000000
00000001FFC000000F000C0000000000
0000000E00E000001E000C0000000000
00000010007000003C000C0000000000
000000600030000078001C0000000000
0000008000300000F0001C0000000000
0000030000300001E000380000000000
0000060000300003C000380000000000
0000040000300007800078003F000000
000008000070000F0000F001C1C00000
0000107FF070001F0001F00600C00000
00003F800FE0003E0003E00C00E00000
0003E00000F8007C0007C03000E00000
000C400001C700F8000F806000E00000
00704000018181F0000F00C000C00000
01C040000380E3E0001E018001C00000
0300800007003780001C030001C00000
0C0080000E001F000038020003800000
180080001C001E000038040003800000
3000800038003E0000300C0007000000
20008000700077000030080007000000
60008001E000E300002018000E000000
4000800380038380002010001C000000
C0004007000601800020100038000000
C000601C001C01800020100070000000
400020700070018000202000E0000000
600019C001C0018000102001C0000000
30000F000E0001800010200300000000
0E00F3F0F00001800008200C00000000
01FF000F000003800006207000000000
00000000000003800001FF8000000000
00000000000007000000200000000000
00000000000006000000200000000000
0000000000000E000000200000000000
0000000000001C000000100000000000
00000000000038000000100000000000
00000000000060000000100000000000
000000000001C0000000080000000000
00000000000700000000040000000000
00000000001C00000000020000000000
0000000000E000000000010000000000
000000000F000000000000C000000000
00000000300000000000003F78000000
00000000000000000000000080000000
ENDCHAR
STARTCHAR 0053
ENCODING 83
SWIDTH 930 0
DWIDTH 67 0
BBX 106 73 0 -16
BITMAP
00000000000000003FE000000000
0000000000000007C00000000000
0000000000000018000000000000
0000000000000060000000001F00
000000000000018000000001E080
00000000000002000000000E0040
00000000000004000000003C0040
0000000000000800000000700040
0000000000001000000001E00040
0000000000002000000003C00080
0000000000006000000007800080
000000000000400000000F000100
000000000000800000001E000300
000000000001800000003C000200
0000000000018000000078000400
00000000000100000000F0000800
00000000000100000001E0001000
00000000000300000003C0002000
00000000000300000007C0004000
0000000000030000000F80018000
0000000000030000000F00030000
0000000000030000001E00060000
0000000000030000003E00180000
0000000000010000007C00300000
0000000000018000007800C00000
000000000001800000F003800000
000000000000C00001F006000000
000000000000600003E018000000
000000000000300003C0E0000000
000000000000180007C380000000
0000000000000E000F9C00000000
00000001FF8003C01FE000000000
0000000E00E0007FFE0000000000
00000030006000003E0000000000
00000040003000007C0000000000
0000008000300000F80000000000
0000010000300001F00000000000
0000020000300001E00000000000
0000040000700003E00000000000
0000080000600007C00000000000
0000187FF060000F800000000000
00003F800FE0001F000000000000
0003F00000F8001E000000000000
001C2000018E003C000000000000
0060200003838078000000000000
018040000700C0F0000000000000
060040000E0071E0000000000000
0C0040000C001BC0000000000000
1800400018001F80000000000000
3000400070000F00000000000000
60004000E0001E00000000000000
40004001C0003F00000000000000
C00040038000F300000000000000
C000400E0001E380000000000000
C000201C00078380000000000000
C0003070000E0380000000000000
600013C000380380000000000000
30001E0001E00380000000000000
0E01F7000F000380000000000000
01FE01FFF8000300000000000000
0000000000000700000000000000
0000000000000700000000000000
0000000000000E00000000000000
0000000000000C00000000000000
0000000000001800000000000000
0000000000003000000000000000
000000000000E000000000000000
000000000001C000000000000000
0000000000070000000000000000
00000000001C0000000000000000
0000000000E00000000000000000
000000000F000000000000000000
0000000030000000000000000000
ENDCHAR
STARTCHAR 0054
ENCODING 84
SWIDTH 944 0
DWIDTH 68 0
BBX 142 87 -1 -17
BITMAP
00000000000000000000000000000001FF80
0000000000000000000000000000001FFFE0
000000000000000038000000000000F00038
000000000000000FC7F0000000000700000C
0000000000000070000E0000000008000004
000000000000038000030000000000000004
0000000000000C000000C000000000000004
000000000000300000004000000000000004
000000000000600000002000000000000004
000000000001800000002000000000000008
00000000000200000007FFFE000000000010
00000000000C00000078100FF80000000060
000000000010000003C010007FE0000001C0
00000000006000000E00100003FF80000F00
0000000000C0000038001000001FFF8FFC00
0000000000000000E000100000007FFFC000
0000000000000003C000200000C000000000
000000000000000700002000070000000000
000000000000001E000020001C0000000000
000000000000003C00004000700000000000
000000000000007000004000C00000000000
00000000000000E000008003800000000000
00000000000001C000008006000000000000
00000000000001800001001C000000000000
000000000000030000030038000000000000
000000000000070000020070000000000000
0000000000000600000400C0000000000000
0000000000000C0000080380000000000000
0000000000000C0000100700000000000000
000000000000080000200E00000000000000
000000000000180000401C00000000000000
000000000000180000803800000000000000
000000000000100003007000000000000000
00000000000008000400E000000000000000
00000000000008001801C000000000000000
000000000000040060038000000000000000
000000000000030180070000000000000000
00000000000000FE000E0000000000000000
0000000000000000001E0000000000000000
0000000000000000003C0000000000000000
000000000000000000780000000000000000
000000000000000000F00000000000000000
000000000000000001E00000000000000000
000000000000000003C00000000000000000
000000000000000007800000000000000000
00000000FF8000000F000000000000000000
0000000700E000001E000000000000000000
00000018007000003C000000000000000000
000000600030000078000000000000000000
0000008000300000F0000000000000000000
0000010000300001E0000000000000000000
0000020000300003C0000000000000000000
000004000030000780000000000000000000
000008000030000F00000000000000000000
000010078070001E00000000000000000000
00003FF87FE0003E00000000000000000000
0001E00000F8007C00000000000000000000
000E400001CE00F800000000000000000000
00304000018381F000000000000000000000
00C040000380E3C000000000000000000000
030080000700378000000000000000000000
060080000E001F0000000000000000000000
1C0080001C001E0000000000000000000000
1000800038003E0000000000000000000000
300080007000770000000000000000000000
60008000E001E30000000000000000000000
40008003C003838000000000000000000000
C0004007000F018000000000000000000000
C000401E003C018000000000000000000000
400020780070018000000000000000000000
600011E003C0018000000000000000000000
30000F000F00018000000000000000000000
0C007B807800018000000000000000000000
03FF807F8000038000000000000000000000
000000000000038000000000000000000000
000000000000070000000000000000000000
000000000000070000000000000000000000
0000000000000E0000000000000000000000
0000000000001C0000000000000000000000
000000000000380000000000000000000000
000000000000700000000000000000000000
000000000000C00000000000000000000000
000000000003800000000000000000000000
00000000000E000000000000000000000000
000000000070000000000000000000000000
000000000780000000000000000000000000
000000003800000000000000000000000000
ENDCHAR
STARTCHAR 0055
ENCODING 85
SWIDTH 861 0
DWIDTH 62 0
BBX 103 79 -25 -15
BITMAP
0000003FFF0000000000000000
000003C000C000000000000000
00001C00003000000000000000
00006000000C00000000000000
00038000000600000000000000
000C0000000300000000000000
00300000000100000000000000
00400000000080000000000000
01800000000080000000000000
06000000000FFF800000000000
0800000000F04060000000001C
100000000300401000000000E6
200000001C0040080000000386
40000000600040080000000E06
800000018000C0040000001C0C
000000060000C0040000007008
0000000C0000C004000001E018
000000300000C0040000038030
00000060000180040000070060
000000C00001800C00001E00C0
000001000003800C00003C0180
00000200000300180000700300
00000400000700180000E00600
00000C00000600380003C00800
00001800000C00700007801000
00003000001C00F0000F006000
00002000003800E0001E00C000
00006000007001E0003C018000
0000600000E003C00078020000
0000400001C0078000F00C0000
0000400003800F0001E0180000
0000C00007001F0003C0300000
0000C0001C003E000780400000
0000400070007C000F01800000
00006001C000F8001E03000000
0000301F0003F0003C04000000
00001FF00007E0007818000000
00000000000FC000F030000000
00000000001F8000E0C0000000
00000000003F0001C180000000
00000000007E00038200000000
0000000000FC00070C00000000
0000000001F0000F1800000000
0000000003E0000E6000000000
0000000007C0001CC007C00000
000000000F80003B0038700000
000000001F00007E00C0380000
000000003E0000780300180000
000000007C0000F00600180000
00000000F00001C00800180000
00000001E00001C01000180000
00000003C00007802000180000
0000000780000B004000100000
0000000700003700C000300000
0000000E0000C6008000200000
0000001E00018E010000400000
0000001C00060C010000C00000
0000003800180C020001800000
0000003000701C020003000000
0000003000C018060006000000
00000020030018040008000000
000000200C0018040030000000
00000020300018040060000000
00000031C00018040180000000
0000001E000018040600000000
0000000000000C041C00000000
0000000000000E04E000000000
00000000000007FF8000000000
00000000000000740000000000
00000000000000040000000000
00000000000000040000000000
00000000000000020000000000
00000000000000020000008000
00000000000000010000010000
00000000000000018000020000
0000000000000000C0000C0000
00000000000000003000300000
00000000000000000E03C00000
000000000000000001FC000000
ENDCHAR
STARTCHAR 0056
ENCODING 86
SWIDTH 902 0
DWIDTH 65 0
BBX 91 74 0 -19
BITMAP
0000000007F8000000000000
000000007807000000000000
000000038000C00000030000
0000000C0000200000058000
000000700000300000088000
000000800000100000088000
000003000000080000188000
00000C000000080000108000
000010000000080000118000
0000200000000C0000110000
0000C00000000C0000110020
000180003C000C0000120040
00020001C7000C00000A00C0
0004000603000C00000C0100
0008001803000C0000040600
0018006003001C00000B1800
00100080030018000008E000
002001000300380000100000
004006000600780000200000
00400C000600700000200000
008018000C00F00000400000
008030001801E00000800000
008060003803E00001800000
0180C0007003C00001000000
01018000E007800002000000
01010001C00F800004000000
01020003001F000008000000
0184000E003E000010000000
008C003800FC000030000000
0098007001F8000060000000
00D001C003F00000C0000000
00600F0007E0000180000000
007FF8000FC0000300000000
004000001F80000600000000
008000003F00000C00000000
018000007E00001800000000
01000000FC00003000000000
02000001F000006000000000
02000003E00000C000000000
04000007C000018000000000
0400000F8000020000000000
0800001F0000040000000000
0800003E0000180000000000
100000780000300000000000
100000F00000600000000000
100000E00000C00800000000
200001C00003000800000000
200003800006001000000000
40000380000C001000000000
400007000030002000000000
400006000060002000000000
40000C0000C0004000000000
80000C000300004000000000
80000C000E00008000000000
800008001800018000000000
800008006000010000000000
800008018000020000000000
8000040E0000040000000000
800007F80000080000000000
800000000000100000000000
800000000000200000000000
800000000000400000000000
800000000000800000000000
800000000001000000000000
400000000006000000000000
400000000008000000000000
600000000030000000000000
200000000040000000000000
100000000180000000000000
080000000600000000000000
040000003800000000000000
03000000C000000000000000
00E0000F0000000000000000
003FFFF00000000000000000
ENDCHAR
STARTCHAR 0057
ENCODING 87
SWIDTH 722 0
DWIDTH 52 0
BBX 120 67 -8 -6
BITMAP
000000007FF8000000000000000000
000000078006000000000000000000
000000180003000000000000000000
000000E00001000000000000000000
000003000003000000000000000000
00000C000003000000000000000000
000030000003000000000000000000
000060000006000000000000001FC0
00018000000E00000000000001E0F0
00030000001C01F8000400000F001C
00040000003807080018000038000C
0008000000700C1800300000E00006
001000000060383000E00001800006
006000000060606001C00006000003
00C0000000C0C1800780000C000003
01800000004186000B000030000003
030000000047380036000060000003
02000000003FE0006E0000C0000003
04000000001E0000DC000180000007
0C000000001C000138000200000006
180000000038000270000C00000006
100000000070000CE000180018000E
3000000000E00019E000300060001C
2000000001E00033C0006001800018
4000000003C0004780008002000038
400000000780008700030004000070
C00000000700010E000600080000E0
800000400F00021E000C00100001C0
800001801E000C3C00180030000380
800003003C00187800200020000700
80000400380030F800400060001E00
80001800780060F001800040003800
C0006000F000C1E003000040007000
60038001E00103C00600004001C000
301C0001E00207C00C000060070000
0FE00003C0040780100000201C0000
0000000780180F0060000019F00000
0000000F00301F00C0000006000000
0000000F00601E0180000000000000
0000001E00C03C0300000000000000
0000003C0180780600000000000000
000000780200F80800000000000000
000000780400F03000000000000000
000000F00801E06000000000000000
000001E03003E0C000000000000000
000003C06003C18000000000000000
000003C0C007830000000000000000
00000781800F0C0000000000000000
00000F03001F180000000000000000
00001E04001E300000000000000000
00001C18003C600000000000000000
000038300078C00000000000000000
0000706000F3000000000000000000
0000F08000E6000000000000000000
0000E30001CC000000000000000000
0001C60003D8000000000000000000
0003880007B0000000000000000000
000730000740000000000000000000
000E60000F80000000000000000000
001C80001F00000000000000000000
003300003E00000000000000000000
006400007800000000000000000000
00D800007000000000000000000000
01E00000E000000000000000000000
03C000018000000000000000000000
070000030000000000000000000000
000000040000000000000000000000
ENDCHAR
STARTCHAR 0058
ENCODING 88
SWIDTH 1055 0
DWIDTH 76 0
BBX 96 81 -1 -20
BITMAP
0000007FFC00000000000000
000007800380000000000000
000038000060000000000000
0000C0000010000000000000
00030000000C000000000000
000C00000006000000000000
003000000003000000000000
004000000001000000000000
01800000001FFC0000000000
0200000001E187C000000000
0C0000000E0080F000000000
100000007000C078000001FE
200000018000C03C00000F01
400000030000C03C00003C02
8000000C0000C01E0001F002
000000180000C01E0003C002
000000300001C01E000F0004
000000600001C01E003E0008
000000C00001801E00780010
000001800003803E01F00020
000001000003803C03C00040
000002000007003C0F800180
000006000007007C1E000200
00000400000E00787C000C00
00000400001C00F8F8001000
00000800001C00F1F0006000
00000800003801F3C0008000
00000800007001E780030000
0000080000E003FF000C0000
00000800038007FE00300000
00000800070007FC00C00000
000008001C000FF803000000
0000040078001FF00C000000
00000601E0003FC030000000
000001FF00003F81C0000000
0000000000007F0600000000
000000000000FE1800000000
000000000001FCE000000000
000000000003FF0000000000
000000000007F80000000000
00000000000FF00000000000
00000000001FE00000000000
00000000003FC00000000000
00000000007F800000000000
0000000003FF000000000000
000000000DFE0007F8000000
0000000073DC00181C000000
0000000387BC00600C000000
0000001C0F3800C00E000000
000000E01E7001800E000000
000007003CE002000E000000
00001800F0E004000E000000
0000E001E1C008000E000000
00030003C1C018001C000000
001C0007038030001C000000
0060001E038020001C000000
0180003C0300400038000000
020000F00700400078000000
0C0001C00600800070000000
1000078006008000E0000000
20000E0006008001C0000000
200038000601000380000000
4000E0000601000700000000
400380000601000E00000000
600E00000601001C00000000
30F000000601007000000000
0F000000030100C000000000
000000000181030000000000
0000000000C11C0000000000
00000000003FE00000000000
000000000001000000000000
000000000001000000000000
000000000001000000000000
000000000000800000000000
000000000000800000000000
000000000000400000000000
000000000000200000000000
000000000000100000000000
000000000000080000000000
000000000000070040000000
00000000000000FF80000000
ENDCHAR
STARTCHAR 0059
ENCODING 89
SWIDTH 597 0
DWIDTH 43 0
BBX 113 100 -30 -36
BITMAP
000000007FFC000000000000000000
000000078003800000000000000000
000000380000600000000000000000
000001C00000100000000000000000
000006000000080000000000000000
000018000000040000000000000000
000060000000020000000000000000
000180000000030000000000000000
000200000000010000000000000000
000C000000001FFF00000000000000
001000000001E180C0000000000000
00200000000E018060000000000F80
00C000000030018030000000007180
0180000000C0018010000000018180
010000000300018010000000060180
000000000C00018008000000180100
000000001000018008000000600200
000000006000030018000000C00400
00000000C000030018000001000C00
000000010000030018000006001000
00000006000006001000000C002000
0000000C0000060030000018004000
0000001800000C0070000030008000
0000001000001C00600000E0030000
0000002000001800E00001C0060000
0000006000003001C0000380080000
0000004000007003C0000700100000
000000C00000E00780000E00600000
000000800001C00F80001C00C00000
000001800003800F00003801000000
000001800007001E00007006000000
00000180001C003C0000E00C000000
00000180003800F80001C030000000
0000018000E001F000038060000000
00000080038003F000070080000000
000000E03C0007E0000E0300000000
0000003FC0000FC0001C0600000000
0000000000001F0000381800000000
0000000000003E0000703000000000
0000000000007C0000F0C000000000
000000000000F80001E18000000000
000000000003F00003C60000000000
000000000007E000078C0000000000
00000000000FC00007300000000000
00000000001F80000E600000000000
00000000003F00001D800000000000
00000000007E00003E000000000000
0000000000F800007C000000000000
0000000001F00000F0000000000000
0000000003E00001E0000000000000
0000000003C00003C0000000000000
000000000780000780000000000000
000000000F00001F00000000000000
000000001E00003F00000000000000
000000001C0000DE00000000000000
000000003800033C00000000000000
0000000030000E7800000000000000
00000000700018F000000000000000
00000000600061E000000000000000
00000000400183C000000000000000
00000000C00607C000000000000000
00000000C0180F8000000000000000
00000000C0E01F0000000000000000
0000000043803E0000000000000000
000000007C003C0000000000000000
000000000000780000000000000000
000000000000F00000000000000000
000000000001E00000000000000000
000000000007FFC000000000000000
0000000001FFC03800000000000000
000000001E0F800C00000000000000
00000000F01F000600000000000000
00000007803E000600000000000000
0000003C007C000600000000000000
000000F000F8000600000000000000
000003C001F0000C00000000000000
00000F0003E0000C00000000000000
00003C0007C0001800000000000000
0000F0000F80003000000000000000
0001C0001F00006000000000000000
000780003E0000C000000000000000
000E00007C00038000000000000000
001C0000F800060000000000000000
00300001F0001C0000000000000000
00E00003E000300000000000000000
01C00087C000C00000000000000000
030000CF8007000000000000000000
0600007E0038000000000000000000
0C00003E03C0000000000000000000
18000079FC00000000000000000000
100001F00000000000000000000000
200003C00000000000000000000000
600007800000000000000000000000
40001F000000000000000000000000
80003C000000000000000000000000
8000F0000000000000000000000000
8001C0000000000000000000000000
C00F00000000000000000000000000
607C00000000000000000000000000
3FC000000000000000000000000000
ENDCHAR
STARTCHAR 005A
ENCODING 90
SWIDTH 777 0
DWIDTH 56 0
BBX 101 93 0 -32
BITMAP
00000000000000000800003FF0
0000000000000000100001C008
000000000000000020000E0008
00000000000FF0002000380010
0000000007F07FF84000E00030
00000000380000FFE003800040
00000001C0000007FF07000180
00000007000000023FFE001E00
0000000C00000004007FFFE000
000000380000000800E0000000
000000600000001001C0000000
000000C0000000200380000000
00000180000000C00F00000000
00000380000001001E00000000
00000300000002003800000000
0000060000000C007000000000
0000060000001000E000000000
0000060000006003C000000000
00000600000180078000000000
000006000006000F0000000000
000006000018001E0000000000
000002000060003C0000000000
00000300038000780000000000
000000E03C0000F00000000000
0000001FC00001E00000000000
00000000000003C00000000000
00000000000007800000000000
0000000000000F000000000000
0000000000001E000000000000
0000000000003C000000000000
00000000000078000000000000
000000000000F0000000000000
000000000001E0000000000000
000000000003C0000000000000
00000000000780000000000000
00000000000F00000000000000
000000FFFF9E00000000000000
00000F00007C00000000000000
00007000007C00000000000000
0003800000F300000000000000
000E000001E180000000000000
001C000003C0C0000000000000
00700000078040000000000000
00E000000F0020000000000000
018000001E0020000000000000
030000003C0030000000000000
06000000F80030000000000000
0C0000FFF70030000000000000
18000701E0C020000000000000
18001803803020000000000000
3000200F000820000000000000
2000C01E000C40000000000000
60010038000440000000000000
40020070000480000000000000
C00401C0000680000000000000
C0040700100700000000000000
80033C00200600000000000000
8001E000C00600000000000000
80000001000E00000000000000
80000006001400000000000000
80000018006C00000000000000
40000020008C00000000000000
400001C0031C00000000000000
20000600041800000000000000
18003800183800000000000000
07C7C000603000000000000000
00380001807000000000000000
0000000600E000000000000000
0000001800E000000000000000
0000006001C000000000000000
00000180038000000000000000
00000600078000000000000000
000018000F0000000000000000
000060000E0000000000000000
000180001C0000000000000000
000600003C0000000000000000
00180000780000000000000000
00600000F00000000000000000
00C00001E00000000000000000
01000007C00000000000000000
0600000F800000000000000000
0C00001F000000000000000000
1000003C000000000000000000
20000078000000000000000000
600001F0000000000000000000
400003C0000000000000000000
80000F80000000000000000000
80001E00000000000000000000
80007800000000000000000000
8001E000000000000000000000
C0078000000000000000000000
607C0000000000000000000000
1FC00000000000000000000000
ENDCHAR
STARTCHAR 005B
ENCODING 91
SWIDTH 347 0
DWIDTH 25 0
BBX 37 66 4 -7
BITMAP
00000000E0
00000001F8
0000000180
0000000300
0000000300
0000000600
0000000600
0000000C00
0000000C00
0000001800
0000001800
0000003000
0000003000
0000006000
0000006000
000000C000
000000C000
0000018000
0000018000
0000030000
0000070000
0000060000
00000E0000
00000C0000
0000180000
0000180000
0000300000
0000300000
0000600000
0000600000
0000C00000
0000C00000
0001800000
0001800000
0003000000
0003000000
0006000000
0006000000
000C000000
000C000000
0018000000
0018000000
0030000000
0030000000
0060000000
0060000000
00C0000000
00C0000000
0180000000
0180000000
0300000000
0300000000
0600000000
0600000000
0C00000000
0C00000000
1800000000
1000000000
3000000000
2000000000
6000000000
4000000000
C000000000
E000000000
7000000000
3800000000
ENDCHAR
STARTCHAR 005C
ENCODING 92
SWIDTH 194 0
DWIDTH 14 0
BBX 6 86 2 -15
BITMAP
80
C0
C0
C0
C0
C0
C0
C0
C0
C0
C0
C0
C0
C0
C0
C0
C0
40
40
40
40
40
60
60
60
60
60
60
60
60
60
60
60
60
60
60
60
60
20
20
20
20
20
30
30
30
30
30
30
30
30
30
30
30
30
30
30
30
10
10
10
10
10
10
18
18
18
18
18
18
18
18
18
18
18
18
18
18
18
08
08
08
08
08
08
0C
ENDCHAR
STARTCHAR 005D
ENCODING 93
SWIDTH 319 0
DWIDTH 23 0
BBX 38 67 1 -7
BITMAP
0000000060
0000000070
0000000038
000000001C
000000000C
0000000018
0000000018
0000000030
0000000030
0000000060
0000000060
00000000C0
00000000C0
0000000180
0000000100
0000000300
0000000200
0000000600
0000000400
0000000C00
0000001800
0000001800
0000003000
0000003000
0000006000
0000006000
000000C000
000000C000
0000018000
0000018000
0000030000
0000030000
0000060000
0000060000
00000C0000
00000C0000
0000180000
0000180000
0000300000
0000300000
0000600000
0000600000
0000C00000
0000C00000
0001800000
0001800000
0003000000
0003000000
0006000000
0006000000
000C000000
001C000000
0018000000
0038000000
0030000000
0070000000
0060000000
00E0000000
00C0000000
01C0000000
0180000000
0300000000
0300000000
0600000000
7E00000000
FC00000000
0400000000
ENDCHAR
STARTCHAR 005E
ENCODING 94
SWIDTH 347 0
DWIDTH 25 0
BBX 14 7 5 4
BITMAP
0060
01F0
0730
1C10
6018
8008
0004
ENDCHAR
STARTCHAR 005F
ENCODING 95
SWIDTH 513 0
DWIDTH 37 0
BBX 34 1 -3 -3
BITMAP
FFFFFFFFC0
ENDCHAR
STARTCHAR 0060
ENCODING 96
SWIDTH 500 0
DWIDTH 36 0
BBX 11 6 16 16
BITMAP
C000
7000
1C00
0700
00C0
0020
ENDCHAR
STARTCHAR 0061
ENCODING 97
SWIDTH 361 0
DWIDTH 26 0
BBX 28 15 -3 -1
BITMAP
000FFB80
007C0F80
01F00F00
03C01E00
0F003C00
1E007800
3C00F000
3803E000
7007C030
E01B8040
C0270180
C0C60600
C3061800
FC066000
00038000
ENDCHAR
STARTCHAR 0062
ENCODING 98
SWIDTH 291 0
DWIDTH 21 0
BBX 47 43 -4 -1
BITMAP
00000000003E
0000000000E2
000000000384
000000000608
000000001C10
000000003830
000000006060
00000001C0C0
000000038180
000000070200
0000001C0400
000000381800
000000703000
000000E06000
000001C08000
000003810000
000007060000
00001E0C0000
00003C100000
000070200000
0000E0C00000
0001C1800000
000382000000
000704000000
000E18000000
001C20000000
001840000000
003980000000
007200000000
00E40E000000
01D81C000000
03A038000000
07C078000000
0700E0000000
0E00C0000000
1C0180000000
180380000000
300781800000
601986000000
6031FC000000
40C0F0000000
C38000000000
7E0000000000
ENDCHAR
STARTCHAR 0063
ENCODING 99
SWIDTH 250 0
DWIDTH 18 0
BBX 20 15 -3 -1
BITMAP
001FC0
007040
01C1C0
0383C0
070300
1E0000
3C0000
380000
700010
E00060
E00180
E00600
E03800
7FC000
1C0000
ENDCHAR
STARTCHAR 0064
ENCODING 100
SWIDTH 361 0
DWIDTH 26 0
BBX 56 44 -3 -1
BITMAP
0000000000000F
0000000000001E
0000000000003C
00000000000078
000000000000F0
000000000001E0
000000000003C0
00000000000700
00000000000E00
00000000001C00
00000000003800
00000000007000
0000000000E000
0000000001C000
00000000038000
00000000070000
000000000E0000
000000001C0000
00000000380000
00000000700000
00000000E00000
00000001C00000
00000003800000
00000007000000
0000000E000000
0000001C000000
00000038000000
00000070000000
000001E0000000
000FFBC0000000
007C0F80000000
01F00F00000000
03C01E00000000
0F003C00000000
1E007800000000
3C00F000000000
3803E000000000
7005C030000000
E01B8040000000
C0670180000000
C0C60600000000
C7061800000000
F8066000000000
00038000000000
ENDCHAR
STARTCHAR 0065
ENCODING 101
SWIDTH 236 0
DWIDTH 17 0
BBX 18 15 -2 -2
BITMAP
000380
003CC0
00F080
03C180
0F8200
1E0C00
3C3000
79C000
7E0000
E000C0
C00180
C00600
C01800
C06000
7F8000
ENDCHAR
STARTCHAR 0066
ENCODING 102
SWIDTH 236 0
DWIDTH 17 0
BBX 70 70 -27 -28
BITMAP
00000000000000003C
0000000000000000CC
000000000000000308
000000000000000E18
000000000000001810
000000000000003020
00000000000000E040
000000000000018080
000000000000030100
000000000000060600
0000000000001C0C00
000000000000381800
000000000000703000
000000000000E06000
000000000001C08000
000000000007030000
00000000000E060000
00000000001C0C0000
000000000038180000
000000000070600000
0000000000E0C00000
0000000001C1800000
000000000382000000
00000000070C000000
000000000E18000000
000000001C20000000
0000000038C0000000
000000007180000000
00000000E200000000
00000001CC00000000
000000039000000000
000000076000000000
0000000E8000000000
0000001F0000000000
0000003C0000000000
000000780020000000
000000F00060000000
000001E00180000000
000003E00600000000
000007F01800000000
00000F78E000000000
00001E470000000000
00003C800000000000
000078800000000000
000071000000000000
0000E1000000000000
0001C2000000000000
000382000000000000
000704000000000000
000E04000000000000
001E08000000000000
001C10000000000000
003810000000000000
007020000000000000
00E060000000000000
01C040000000000000
01C080000000000000
038180000000000000
070100000000000000
0E0200000000000000
0E0400000000000000
1C0800000000000000
181800000000000000
303000000000000000
702000000000000000
604000000000000000
608000000000000000
C30000000000000000
C40000000000000000
780000000000000000
ENDCHAR
STARTCHAR 0067
ENCODING 103
SWIDTH 319 0
DWIDTH 23 0
BBX 49 41 -27 -28
BITMAP
000000000FF380
000000007C1F00
00000001F00E00
00000007C01C00
0000000F007800
0000001E00F000
0000003C01E000
0000007803C000
000000700F8180
000000E0170200
000000C06E0C00
000000C19C3000
000000CE384000
000000F0718000
00000000E60000
00000001D80000
00000003E00000
00000007800000
0000000E000000
0000001C000000
00000078000000
000001F0000000
000006E0000000
000019C0000000
00006380000000
00018700000000
00060E00000000
00181C00000000
00203800000000
00C07000000000
0300E000000000
0601C000000000
08030000000000
10060000000000
200C0000000000
40380000000000
40700000000000
80C00000000000
81800000000000
86000000000000
FC000000000000
ENDCHAR
STARTCHAR 0068
ENCODING 104
SWIDTH 333 0
DWIDTH 24 0
BBX 49 43 -7 -1
BITMAP
00000000000780
00000000001880
00000000006180
0000000000C100
00000000018200
00000000060400
000000000C0800
00000000181000
00000000302000
00000000E04000
00000001C18000
00000003030000
00000006060000
0000000C0C0000
00000018180000
00000070200000
000000E0C00000
000001C1800000
00000383000000
00000704000000
00000E18000000
00001C30000000
00003840000000
00007180000000
0000E300000000
0001C400000000
00039800000000
00072000000000
000EC000000000
001D0780000000
003E18C0000000
007861C0000000
00F18380000000
01C60700000000
038C1E00000000
07303C04000000
0F40780C000000
0F80F030000000
1E01E060000000
3C018180000000
70018600000000
E001F800000000
0000C000000000
ENDCHAR
STARTCHAR 0069
ENCODING 105
SWIDTH 166 0
DWIDTH 12 0
BBX 19 22 -5 -2
BITMAP
000060
0001E0
0001C0
000180
000000
000000
000000
000000
003800
007000
01E000
03C000
078000
0F0000
0E0000
1C0300
380600
701800
606000
E18000
FE0000
700000
ENDCHAR
STARTCHAR 006A
ENCODING 106
SWIDTH 138 0
DWIDTH 10 0
BBX 55 48 -40 -28
BITMAP
0000000000000E
0000000000001E
0000000000001C
00000000000000
00000000000000
00000000000000
00000000000000
00000000000380
00000000000700
00000000000E00
00000000001C00
00000000007800
00000000007000
0000000000E000
0000000001C000
00000000038180
00000000070600
000000000E0C00
000000001C3000
0000000038C000
00000000718000
00000000E60000
00000001D80000
00000003E00000
00000007800000
0000000E000000
0000001C000000
00000078000000
000001F0000000
000006E0000000
000019C0000000
00006380000000
00018700000000
00060E00000000
00181C00000000
00203800000000
00C07000000000
0300E000000000
04018000000000
08030000000000
10060000000000
201C0000000000
40380000000000
80700000000000
80C00000000000
83800000000000
86000000000000
F8000000000000
ENDCHAR
STARTCHAR 006B
ENCODING 107
SWIDTH 333 0
DWIDTH 24 0
BBX 49 43 -7 -1
BITMAP
00000000000780
00000000001880
00000000006180
0000000000C100
00000000018200
00000000060400
000000000C0800
00000000181000
00000000302000
00000000E04000
00000001C18000
00000003030000
00000006060000
0000000C0C0000
00000018180000
00000070200000
000000E0C00000
000001C1800000
00000383000000
00000704000000
00000E18000000
00001C30000000
00003840000000
00007180000000
0000E300000000
0001C400000000
00039800000000
00072000000000
000EC1F0000000
001D0E38000000
003E3038000000
0078C070000000
00F300F0000000
01C603C0000000
0398FF00000000
0730E002000000
0FC07006000000
0F80F018000000
1E01E060000000
3C03C0C0000000
70038300000000
E003FC00000000
0001E000000000
ENDCHAR
STARTCHAR 006C
ENCODING 108
SWIDTH 180 0
DWIDTH 13 0
BBX 47 44 -4 -1
BITMAP
00000000003E
0000000000E2
000000000384
000000000608
000000001C10
000000003830
000000006060
00000001C0C0
000000038180
000000070200
0000001C0400
000000381800
000000703000
000000E06000
000001C08000
000003810000
000007060000
00001E0C0000
00003C100000
000070200000
0000E0C00000
0001C1800000
000382000000
000704000000
000E18000000
000C20000000
001840000000
003980000000
007200000000
00E400000000
01D800000000
03A000000000
07C000000000
070000000000
0E0000000000
1C0000000000
180100000000
300300000000
600C00000000
601000000000
406000000000
C18000000000
7E0000000000
200000000000
ENDCHAR
STARTCHAR 006D
ENCODING 109
SWIDTH 597 0
DWIDTH 43 0
BBX 43 15 -1 -2
BITMAP
001000000000
006C07C07E00
018C18C18600
061861C60E00
0C39C1981C00
187303E03C00
606C07807800
C0D80F00F020
01F01E01E060
03C03C03C180
078078070300
1F00E00E0C00
3C01C00C3000
7803800FC000
0000000E0000
ENDCHAR
STARTCHAR 006E
ENCODING 110
SWIDTH 416 0
DWIDTH 30 0
BBX 31 15 -1 -2
BITMAP
001C0000
006C07E0
018C3860
031CC0E0
0C3901C0
187603C0
60780780
C0F01F02
01E03E04
03807818
0700F060
0E00E0C0
1C01C300
3801FC00
0000E000
ENDCHAR
STARTCHAR 006F
ENCODING 111
SWIDTH 319 0
DWIDTH 23 0
BBX 25 15 -3 -1
BITMAP
001FC000
00F86000
03C06000
0700E000
0E01C000
1C01C000
38038000
70030080
70030180
E0070600
E00B9800
E031E000
E0C00000
FF800000
3C000000
ENDCHAR
STARTCHAR 0070
ENCODING 112
SWIDTH 402 0
DWIDTH 29 0
BBX 56 52 -28 -25
BITMAP
00000000000007
0000000000000E
0000000000001C
00000000000038
00000000000060
000000000000C0
00000000000380
00000000000700
00000000000E00
00000000001C00
00000000007800
0000000000F000
0000000003C000
00000000078000
000000001B0380
00000000361CC0
000000006C60C0
000000019981C0
00000003360780
0000000C680F00
00000018F01E00
00000001C07C03
0000000780F004
0000000F01E018
0000001E01C060
0000003C038180
00000070030600
000000E003F800
000001C0000000
00000380000000
00000700000000
00000E00000000
00001C00000000
00003800000000
00007000000000
0000E000000000
0001C000000000
00038000000000
000F0000000000
001E0000000000
003C0000000000
00780000000000
00F00000000000
01E00000000000
03C00000000000
07800000000000
0F000000000000
1E000000000000
38000000000000
70000000000000
E0000000000000
40000000000000
ENDCHAR
STARTCHAR 0071
ENCODING 113
SWIDTH 333 0
DWIDTH 24 0
BBX 42 41 -18 -28
BITMAP
0000001FE700
000000F83F00
000003E01E00
00000F803800
00001E00F000
00003C01E000
00007803C000
0000F0078040
0000E01F0080
0001C03E0300
000180FC0C00
000183783000
00019CFDC000
0001F1D60000
000003A00000
000007200000
00000E400000
00001C400000
000038800000
000070800000
0000E1000000
0001C2000000
000386000000
000704000000
000E08000000
001C10000000
003830000000
003020000000
006040000000
00C080000000
018100000000
030300000000
060600000000
0C0C00000000
181800000000
303000000000
206000000000
408000000000
430000000000
860000000000
F80000000000
ENDCHAR
STARTCHAR 0072
ENCODING 114
SWIDTH 305 0
DWIDTH 22 0
BBX 22 16 -1 -2
BITMAP
007000
00E000
01C000
038C00
07FE00
0C0600
180E00
603C00
C07800
00F004
01E018
038060
070080
060300
0C1C00
07E000
ENDCHAR
STARTCHAR 0073
ENCODING 115
SWIDTH 250 0
DWIDTH 18 0
BBX 21 18 -4 -3
BITMAP
000100
000200
000600
000E00
003E00
006E00
018C00
031C00
0C1C00
181C00
003818
003830
E070C0
C07300
80EC00
C1F000
67C000
180000
ENDCHAR
STARTCHAR 0074
ENCODING 116
SWIDTH 166 0
DWIDTH 12 0
BBX 36 38 -4 -2
BITMAP
0000000030
00000000F0
00000001E0
00000003C0
0000000700
0000000E00
0000001C00
0000003800
0000007000
000000E000
000001C000
0000038000
00000F0000
00001E0000
07FFFFFFE0
0000780000
0000F00000
0001E00000
0003C00000
0007000000
000E000000
001C000000
0038000000
0070000000
00E0000000
01E0000000
03C0000000
0780000000
0F00000000
0E00000000
1C01000000
3806000000
700C000000
F030000000
E0E0000000
E380000000
FE00000000
7000000000
ENDCHAR
STARTCHAR 0075
ENCODING 117
SWIDTH 361 0
DWIDTH 26 0
BBX 28 15 -3 -1
BITMAP
00700000
00E00700
01C00E00
03803C00
07007800
0E01F000
1C03E000
380DC010
70138030
706700C0
E18E0300
C60E0600
D80C1800
600FE000
00070000
ENDCHAR
STARTCHAR 0076
ENCODING 118
SWIDTH 388 0
DWIDTH 28 0
BBX 28 15 -1 -1
BITMAP
000000F0
000001E0
001803C0
00EC0780
030C0F00
041C1E00
18781C00
60F03000
C1E07000
03C0F030
078330C0
0F063F80
0E181E00
1C600000
0F800000
ENDCHAR
STARTCHAR 0077
ENCODING 119
SWIDTH 541 0
DWIDTH 39 0
BBX 40 16 -1 -2
BITMAP
0000000002
000000000E
000000001C
003C00E07C
00CE01E078
030C0380E0
0C3C0701C0
18780E0380
60F03C0300
81E0780601
03C1F01A02
078260320C
0F0CE043F0
0E31C181C0
1CC1860000
0F01F80000
ENDCHAR
STARTCHAR 0078
ENCODING 120
SWIDTH 361 0
DWIDTH 26 0
BBX 31 14 -6 -1
BITMAP
0001F03C
000633CC
00183E00
00607800
0080F000
0300E000
0401C002
00078006
000F0018
001F0060
007601C0
00C70700
C703F800
F8000000
ENDCHAR
STARTCHAR 0079
ENCODING 121
SWIDTH 388 0
DWIDTH 28 0
BBX 49 40 -22 -28
BITMAP
00000000C00700
00000007600E00
00000018601C00
00000020E03800
000000C3C07000
0000030780E000
0000060F03C000
0000001E078180
0000003C0F0200
000000783E0C00
00000070DC3000
000000E3386000
0000007C718000
00000000E60000
00000001D80000
00000003E00000
00000007800000
0000000E000000
0000001C000000
00000078000000
000001F0000000
000006E0000000
000019C0000000
00006380000000
00018700000000
00060E00000000
00181C00000000
00203800000000
00C07000000000
0300E000000000
0601C000000000
08030000000000
10060000000000
200C0000000000
40380000000000
40700000000000
80C00000000000
81800000000000
86000000000000
FC000000000000
ENDCHAR
STARTCHAR 007A
ENCODING 122
SWIDTH 347 0
DWIDTH 25 0
BBX 27 17 -3 -2
BITMAP
00060000
001E0300
003C0600
00301C00
0079F000
00DFE000
03018000
06070000
180E0000
30380020
00700060
01DF8180
03E38200
0F060C00
1C0C3000
300CC000
C0070000
ENDCHAR
STARTCHAR 007B
ENCODING 123
SWIDTH 250 0
DWIDTH 18 0
BBX 37 66 4 -8
BITMAP
00000000F8
00000001C0
0000000380
0000000600
0000000E00
0000000C00
0000001800
0000001800
0000003000
0000003000
0000002000
0000006000
0000006000
000000C000
000000C000
0000008000
0000018000
0000018000
0000030000
0000030000
0000020000
0000060000
0000040000
00000C0000
0000180000
0000180000
0000300000
0000600000
0000E00000
0003C00000
003F800000
003E000000
003C000000
001C000000
000E000000
000E000000
000E000000
000C000000
000C000000
001C000000
0018000000
0018000000
0030000000
0030000000
0060000000
00E0000000
00C0000000
0180000000
0180000000
0300000000
0600000000
0600000000
0C00000000
0C00000000
1800000000
1000000000
3000000000
2000000000
6000000000
6000000000
4000000000
C000000000
C000000000
6000000000
7000000000
3800000000
ENDCHAR
STARTCHAR 007C
ENCODING 124
SWIDTH 236 0
DWIDTH 17 0
BBX 28 82 0 -13
BITMAP
00000030
00000020
00000060
00000060
00000040
000000C0
000000C0
00000080
00000180
00000180
00000180
00000300
00000300
00000300
00000600
00000600
00000600
00000C00
00000C00
00000C00
00001800
00001800
00001800
00003000
00003000
00003000
00002000
00006000
00006000
00004000
0000C000
0000C000
00008000
00018000
00018000
00010000
00030000
00030000
00030000
00060000
00060000
00060000
000C0000
000C0000
000C0000
00180000
00180000
00180000
00300000
00300000
00300000
00600000
00600000
00600000
00400000
00C00000
00C00000
00800000
01800000
01800000
01000000
03000000
03000000
03000000
06000000
06000000
06000000
0C000000
0C000000
0C000000
18000000
18000000
18000000
30000000
30000000
30000000
60000000
60000000
60000000
C0000000
C0000000
40000000
ENDCHAR
STARTCHAR 007D
ENCODING 125
SWIDTH 430 0
DWIDTH 31 0
BBX 37 66 3 -8
BITMAP
00000000E0
0000000030
0000000018
0000000018
0000000018
0000000018
0000000030
0000000030
0000000020
0000000060
0000000040
00000000C0
0000000180
0000000180
0000000300
0000000200
0000000600
0000000C00
0000001C00
0000001800
0000003800
0000003000
0000006000
0000006000
000000C000
000000C000
000001C000
0000018000
0000018000
0000038000
0000018000
000001C000
000001E000
000000F000
000003E000
00000FE000
00001C0000
0000380000
0000300000
0000600000
0000C00000
0000C00000
0001800000
0001000000
0003000000
0002000000
0006000000
0006000000
000C000000
000C000000
0008000000
0018000000
0018000000
0030000000
0030000000
0020000000
0060000000
0060000000
00C0000000
00C0000000
0180000000
0300000000
0700000000
0E00000000
BC00000000
F800000000
ENDCHAR
STARTCHAR 007E
ENCODING 126
SWIDTH 291 0
DWIDTH 21 0
BBX 16 4 4 6
BITMAP
3F00
47C3
81FE
0078
ENDCHAR
STARTCHAR 00A1
ENCODING 161
SWIDTH 277 0
DWIDTH 20 0
BBX 31 42 -11 -28
BITMAP
00000006
0000000E
0000001E
0000001C
00000000
00000000
00000000
00000040
00000080
00000100
00000200
00000600
00000400
00000800
00001800
00003000
00006000
00004000
0000C000
00018000
00030000
00030000
00060000
000C0000
00180000
00380000
00300000
00600000
00E00000
01C00000
03800000
03000000
07000000
0E000000
1C000000
3C000000
38000000
70000000
E0000000
E0000000
C0000000
80000000
ENDCHAR
STARTCHAR 00A2
ENCODING 162
SWIDTH 305 0
DWIDTH 22 0
BBX 27 31 0 3
BITMAP
00000020
00000040
000000C0
00000180
00000300
00000200
00000400
00000800
00001000
0001EC00
000F0400
001C1C00
00783800
00E03000
01C00000
03800000
07000000
07000300
0E000C00
0E403800
0E80E000
0F038000
0FFC0000
03800000
04000000
08000000
10000000
20000000
40000000
40000000
80000000
ENDCHAR
STARTCHAR 00A3
ENCODING 163
SWIDTH 763 0
DWIDTH 55 0
BBX 62 55 -4 -11
BITMAP
0000000001F00000
000000000E000000
0000000038000000
0000000060000000
00000000C0000000
0000000180000000
0000000300000000
0000000600000000
00000004000001E0
0000000800000618
000000080000180C
000000180000300C
000000100000E00C
000000100001C018
0000001000038018
0000001000070030
00000010000E0060
00000010001E00C0
00000010001C0300
0000001000380600
0000001000701800
0000000800E06000
0000000401E38000
0000000301DC0000
00000000FFE00000
0000000007000000
000000000E000000
000000001E000000
000000001C000000
000000FFFFFC0000
0000000070000000
00000000E0000000
00000001C0000000
0000000380000000
0000000700000000
0000000E00000000
0000001C00000000
00000030003F8000
3FF8006007C0F000
6007C1C01C003800
C0007F0070001800
C0000FC0C0001800
6000307C80003000
3001C007E000E000
0F3E00011FFF0000
00C0000300000000
0000000300000000
0000000100000000
0000000100000000
0000000180000000
0000000080000000
0000000060000000
0000000030000000
000000000E000000
0000000001C00000
ENDCHAR
STARTCHAR 00A4
ENCODING 164
SWIDTH 388 0
DWIDTH 28 0
BBX 19 17 7 7
BITMAP
100000
080000
0C0000
07F060
060980
0C0700
0C0600
180600
180600
180600
180400
180C00
180C00
3C1800
67F400
818600
000300
ENDCHAR
STARTCHAR 00A5
ENCODING 165
SWIDTH 277 0
DWIDTH 20 0
BBX 53 45 0 -2
BITMAP
000000000003F0
00000000000C18
00000000007018
00000000018038
00001800020070
000018000C0060
00001800300000
00001800400000
00001800800000
00001803000000
00001006000000
00001008000000
00003010000000
00003020000000
00003040000000
00002080000000
00006100000000
00004200000000
00004400000000
0000C800000000
00009000000000
0001A000000000
00014000000000
00018000000000
00038000000000
07FFFF80000000
00060000000000
000C0000000000
00080000000000
1FFFFE00000000
00300000000000
00200000000000
00600000000000
00C00000000000
01800000000000
01800000000000
03000000000000
06000000000000
0E000000000000
1C000000000000
38000000000000
38000000000000
70000000000000
E0000000000000
E0000000000000
ENDCHAR
STARTCHAR 00A6
ENCODING 166
SWIDTH 236 0
DWIDTH 17 0
BBX 28 82 0 -13
BITMAP
00000030
00000020
00000060
00000060
00000040
000000C0
000000C0
00000080
00000180
00000180
00000100
00000300
00000300
00000300
00000600
00000600
00000600
00000C00
00000C00
00000C00
00001800
00001800
00001800
00003000
00003000
00003000
00002000
00006000
00006000
00004000
0000C000
0000C000
00008000
00000000
00000000
00000000
00000000
00000000
00000000
00000000
00000000
00000000
00000000
00000000
000C0000
00180000
00180000
00180000
00300000
00300000
00300000
00600000
00600000
00600000
00400000
00C00000
00C00000
00800000
01800000
01800000
01000000
03000000
03000000
03000000
06000000
06000000
06000000
0C000000
0C000000
0C000000
18000000
18000000
18000000
30000000
30000000
30000000
60000000
60000000
60000000
C0000000
C0000000
40000000
ENDCHAR
STARTCHAR 00A7
ENCODING 167
SWIDTH 416 0
DWIDTH 30 0
BBX 43 52 -1 -3
BITMAP
0000F0000000
000300000000
000C00000000
001000000000
002000000000
004000000000
008000000000
018000000000
010000000000
020000007F00
0200000180C0
060000060060
0600001C0060
040000380060
0400007000C0
040000E00180
060001C00380
060001C00600
060007C01C00
03000FC07800
03001FC1E000
01803BC78000
00E073FC0000
003F7FE00000
0007F9E00000
0000E1E00000
0000E0F00000
0000E0F00000
0000F0700000
0000F0780000
0000F0780000
000078380000
000078380000
0000383C0000
00003C3C0000
00003C380000
00001C380000
00001E380000
00001E300000
00000E600000
38000EC00000
7C000F800000
C6000E000000
C0000C000000
C0001C000000
C00018000000
C00030000000
C00060000000
4000C0000000
600300000000
380C00000000
0FF000000000
ENDCHAR
STARTCHAR 00A8
ENCODING 168
SWIDTH 166 0
DWIDTH 12 0
BBX 10 4 6 16
BITMAP
30C0
F1C0
E380
C300
ENDCHAR
STARTCHAR 00A9
ENCODING 169
SWIDTH 472 0
DWIDTH 34 0
BBX 29 29 3 -1
BITMAP
000FFC00
003C1F00
00C003C0
030001E0
06000060
0C000070
08000030
10007C18
30038218
200E0618
601C1C18
40383808
40F00008
C1E00008
83C00008
83800088
87000318
87000C10
CE003810
CE00E030
C78F0020
C3F80040
600000C0
60000080
30000100
38000600
1E000C00
0F807000
03FFC000
ENDCHAR
STARTCHAR 00AA
ENCODING 170
SWIDTH 361 0
DWIDTH 26 0
BBX 22 12 11 21
BITMAP
007F70
03C0E0
0F01C0
1C0380
380700
700E00
603C04
C05818
81B020
8630C0
B82300
401C00
ENDCHAR
STARTCHAR 00AB
ENCODING 171
SWIDTH 402 0
DWIDTH 29 0
BBX 25 12 1 0
BITMAP
00000080
00060700
00781C00
03C0E000
1F078000
FC3E0000
E0F80000
38380000
0C0C0000
03030000
00C0C000
00203000
ENDCHAR
STARTCHAR 00AC
ENCODING 172
SWIDTH 416 0
DWIDTH 30 0
BBX 22 11 6 6
BITMAP
FFFFFC
000004
000008
000008
000018
000010
000010
000020
000020
000060
000040
ENDCHAR
STARTCHAR 00AE
ENCODING 174
SWIDTH 472 0
DWIDTH 34 0
BBX 29 29 3 -1
BITMAP
000FFC00
003C1F00
00C003C0
030001E0
06000060
0C000070
08018030
10078018
300F0018
200E0018
601FF008
40301008
40C03008
C180F008
8601E008
8407C038
800F0078
801E0190
C03C0210
C0380C30
C0303020
C021C040
603E00C0
60000080
30000100
38000600
1E000C00
0F807000
03FFC000
ENDCHAR
STARTCHAR 00AF
ENCODING 175
SWIDTH 361 0
DWIDTH 26 0
BBX 19 1 7 16
BITMAP
FFFFE0
ENDCHAR
STARTCHAR 00B0
ENCODING 176
SWIDTH 222 0
DWIDTH 16 0
BBX 8 7 11 30
BITMAP
1C
62
C3
82
82
84
F8
ENDCHAR
STARTCHAR 00B1
ENCODING 177
SWIDTH 416 0
DWIDTH 30 0
BBX 25 22 3 4
BITMAP
00002000
00006000
00004000
00004000
00008000
00008000
00018000
00010000
07FFFF80
00020000
00020000
00060000
00040000
00040000
00080000
00080000
00000000
00000000
00000000
00000000
00000000
FFFFE000
ENDCHAR
STARTCHAR 00B2
ENCODING 178
SWIDTH 430 0
DWIDTH 31 0
BBX 28 33 4 8
BITMAP
00010000
0000E000
00001000
00000FE0
00003C30
00004430
00008430
00010630
00020430
00020C60
000218E0
000230C0
0001C180
00000380
00000700
00000E00
00001C00
00003800
00007000
0000E000
00018000
00030000
1F8C1C00
60F8E100
807F0180
80C78300
8705FE00
78080000
00080000
00080000
00080000
00060000
0001F000
ENDCHAR
STARTCHAR 00B3
ENCODING 179
SWIDTH 375 0
DWIDTH 27 0
BBX 24 29 6 13
BITMAP
000E00
0001C0
000020
000020
0000F0
00073E
001823
002023
006043
004086
004106
003E0C
000018
000030
003FE0
0061E0
006E60
001060
000060
000060
0000E0
0000C0
000180
000380
000600
601C00
403000
81C000
7E0000
ENDCHAR
STARTCHAR 00B4
ENCODING 180
SWIDTH 500 0
DWIDTH 36 0
BBX 11 5 16 16
BITMAP
00E0
03C0
0F00
3800
E000
ENDCHAR
STARTCHAR 00B5
ENCODING 181
SWIDTH 361 0
DWIDTH 26 0
BBX 52 33 -27 -20
BITMAP
00000000700000
00000000E00700
00000001C00E00
00000003803C00
0000000F007800
0000001E01F000
0000003C03E000
000000780DC010
000000F0138030
000001F06700C0
000003E18E0300
000007C60E0600
00000ED80C1800
00001C600FE000
00003800070000
00007000000000
0000E000000000
0001C000000000
00038000000000
00070000000000
000E0000000000
001C0000000000
00380000000000
00700000000000
00E00000000000
01C00000000000
03800000000000
07000000000000
0E000000000000
1C000000000000
38000000000000
70000000000000
E0000000000000
ENDCHAR
STARTCHAR 00B6
ENCODING 182
SWIDTH 250 0
DWIDTH 18 0
BBX 39 57 -5 -14
BITMAP
00000E0004
000071E01E
00009F9FF8
00007FF3E0
0001FFFB00
0003FFF200
0007FFF400
000FFFE400
001FFFC800
003FFFD800
003FFF9000
007FFFB000
007FFF2000
00FFFE6000
00FFF6C000
00FFEC8000
00FFCD8000
00FF190000
007C130000
0000320000
0000260000
0000640000
0000CC0000
0000D80000
0001980000
0001300000
0003300000
0002600000
0006600000
0004C00000
000CC00000
0009800000
0019800000
0033000000
0033000000
0066000000
0066000000
00CC000000
00CC000000
0188000000
0198000000
0318000000
0330000000
0730000000
0660000000
0660000000
0C60000000
0CC0000000
1CC0000000
1980000000
3980000000
3980000000
3300000000
7300000000
7200000000
F000000000
C000000000
ENDCHAR
STARTCHAR 00B7
ENCODING 183
SWIDTH 166 0
DWIDTH 12 0
BBX 5 4 2 4
BITMAP
18
38
78
E0
ENDCHAR
STARTCHAR 00B8
ENCODING 184
SWIDTH 250 0
DWIDTH 18 0
BBX 11 8 -5 -9
BITMAP
0400
0400
0E00
01E0
00E0
00C0
8180
7E00
ENDCHAR
STARTCHAR 00B9
ENCODING 185
SWIDTH 305 0
DWIDTH 22 0
BBX 22 27 7 14
BITMAP
00001C
000034
000028
000058
0000F0
0001C0
000180
000300
000E00
003C00
00E800
039800
043000
006000
00E000
00C000
018000
030000
070000
060000
0C0000
1C0000
380000
300000
600000
E00000
C00000
ENDCHAR
STARTCHAR 00BA
ENCODING 186
SWIDTH 319 0
DWIDTH 23 0
BBX 19 11 11 21
BITMAP
01FC00
070600
0C0E00
381C00
301C00
601800
E01820
C038C0
C0CF00
C10000
FE0000
ENDCHAR
STARTCHAR 00BB
ENCODING 187
SWIDTH 388 0
DWIDTH 28 0
BBX 25 11 -1 1
BITMAP
06060000
01818000
00606000
00383800
000E0E00
001F0780
007C3F00
01E0F800
0F078000
381C0000
C0600000
ENDCHAR
STARTCHAR 00BC
ENCODING 188
SWIDTH 569 0
DWIDTH 41 0
BBX 32 47 7 -2
BITMAP
00000003
00000006
0000000E
0000000C
00001C18
00003438
00002830
00005860
0000F0E0
0001C0C0
00018180
00030180
000E0300
003C0600
00E80600
03980C00
04301802
00601802
00E03002
00C06004
01806004
0300C008
0701C018
06018010
0C030030
1C070060
380600C3
300C0086
601C010C
E0180208
C0300618
00300C30
00603860
00C070C0
00C0C0C0
01818187
03070319
030E0722
061E067C
0C03FFC0
0C001840
18003840
30007038
3000E000
6000E000
C0000000
40000000
ENDCHAR
STARTCHAR 00BD
ENCODING 189
SWIDTH 694 0
DWIDTH 50 0
BBX 38 50 7 -5
BITMAP
0000000300
0000000600
0000000E00
0000000C00
00001C1800
0000343800
0000283000
0000586000
0000F0E000
0001C0C000
0001818000
0003018000
000E030000
003C060000
00E8060000
03980C0000
0430180000
006018E000
00E0301800
00C0600600
01806003F8
0300C00D0C
0701C0310C
060180610C
0C0300C10C
1C0700811C
3806008318
300C008638
601C008870
E018007060
C0300000C0
0030000180
0060000380
00C0000700
00C0000C00
0180001800
0300003000
0300006000
060001C000
0C0FE30F80
0C303C7040
18201F8040
306061E0C0
3033833F00
600C020000
C000020000
4000020000
0000020000
0000018200
0000007C00
ENDCHAR
STARTCHAR 00BE
ENCODING 190
SWIDTH 611 0
DWIDTH 44 0
BBX 38 47 4 -2
BITMAP
000000000C
0000000018
001C000038
0003800030
0000400060
00002000E0
0001E000C0
000E3C0180
0030660180
0060460300
0040C60600
00C1860600
00C20C0C00
007C181800
0000301800
0000603000
007FC06008
00C1C06008
00CE40C008
0030618010
0000618010
0000C30020
0000C70060
0001860040
00038C00C0
00071C0180
000E18010C
4018300218
8060700430
8380600820
FC00C01860
0000C030C0
000180E180
000301C300
0003030300
000606061C
000C1C0C64
000C381C88
00187819F0
00300FFF00
0030006100
006000E100
00C001C0E0
00C0018000
0180038000
0380000000
0100000000
ENDCHAR
STARTCHAR 00BF
ENCODING 191
SWIDTH 291 0
DWIDTH 21 0
BBX 32 49 -12 -35
BITMAP
00000007
0000000F
0000000E
0000000C
00000000
00000000
00000030
00000030
00000060
00000060
000000E0
000001C0
00000380
00000F00
00001E00
00003C00
0000F800
0001F000
0007C000
000F8000
001F0000
007C0000
00F80000
01F03E00
03C0FF80
07838080
0F0700C0
1C0C0040
38180040
30180040
60300040
602000C0
C0600080
80600100
80400300
80400200
80400400
80401800
80403000
40404000
40418000
202E0000
1FF00000
00100000
00080000
00040000
00030000
0000E000
00001F80
ENDCHAR
STARTCHAR 00C0
ENCODING 192
SWIDTH 1416 0
DWIDTH 102 0
BBX 114 84 0 -14
BITMAP
00000000000001C000000000000000
0000000000001E0000000000000000
000000000000E00000000000000000
000000000003000000000000000000
00000000000C000000000000000000
000000000010000000000000000000
000000000060000000000000010000
00000000008000000000000001C000
000000000100000000000000007000
000000000200000006000000001C00
0000000004000001FFF00000000700
000000000800000F801C00000000C0
000000001000003C00060000000000
00000000200000F000020000000000
00000000200003C000020000000000
000000004000078000030000001C00
0000000080000E000002000000FC00
0000000080001C000002000003F000
0000000180003800000200000EE000
000000010000700000040000338000
000000010000E00000040000470000
000000010001C000000800018C0000
000000010001C00000100006380000
000000010003800000300008700000
000000010007000000600030C00000
000000010007000000C00041800000
000000010006000001000087000000
00000001800E00000600030E000000
00000000800E00000C00041C000000
00000000400C000030000870000000
00000000600C0000C000B0E0000000
00000000180C0007000161C0000000
000000000E0C007800068380000000
0000000003EC3F8000090700000000
00000000000FE00000160E00000000
00000000000E0000006C1C00000000
000000000006000001983800000000
00000000000300000620F000000000
00000000000380001841E000000000
000000000000C000E183C000000000
0000000000003C0F03078000000000
00000000000003F006070000000000
00000000000000000C0E0000000000
0000000000000000101C0000000000
000000000000000060380000000000
0000000000000000C0780000000000
00001F000000000180F00000000000
0003E0E00000000300E00000000000
001C00380000000401C00000000000
0070001C0000001801C00000000000
00C0000C0000003003800000000000
0180000C00000FFF07000038000000
0300000C0007F0C1FE0007C7C00000
06000008003803000FC03C00600000
0C00001801C006000CF0F000300000
1800001007000C001C3FC000100000
380000200C001800180F0000100000
3000004038006000183F8000100000
600000806000C00010F9C000100000
60000300C003800031E0E000300000
60001C018006000037C07000200000
E0006003000C00003F003800400000
C0000002003000003C001800800000
C000000200600000F8001801800000
C000000201800003F0001802000000
E00000020700000FB0000C0C000000
E00000020C00001E30000C18000000
60000002300000F818000860000000
70000001E00003E018001980000000
3800000380000F000E001E00000000
1C00001C600078000380F800000000
0E0000601FFF8000007F3000000000
07C007800000000000003000000000
00FFF8000000000000006000000000
00000000000000000000C000000000
000000000000000000018000000000
000000000000000000030000000000
000000000000000000060000000000
0000000000000000000C0000000000
000000000000000000300000000000
000000000000000000E00000000000
000000000000000003800000000000
00000000000000000C000000000000
000000000000000070000000000000
ENDCHAR
STARTCHAR 00C1
ENCODING 193
SWIDTH 1416 0
DWIDTH 102 0
BBX 120 84 0 -14
BITMAP
00000000000001C000000000000000
0000000000001E0000000000000000
000000000000E00000000000000000
000000000003000000000000000000
00000000000C000000000000000000
000000000010000000000000000000
000000000060000000000000000003
00000000008000000000000000000F
00000000010000000000000000003C
0000000002000000060000000000E0
0000000004000001FFF00000000380
000000000800000F801C0000000C00
000000001000003C00060000000000
00000000200000F000020000000000
00000000200003C000020000000000
000000004000078000030000001C00
0000000080000E000002000000FC00
0000000080001C000002000003F000
0000000180003800000200000EE000
000000010000700000040000338000
000000010000E00000040000470000
000000010001C000000800018C0000
000000010001C00000100006380000
000000010003800000300008700000
000000010007000000600030C00000
000000010007000000C00041800000
000000010006000001000087000000
00000001800E00000600030E000000
00000000800E00000C00041C000000
00000000400C000030000870000000
00000000600C0000C000B0E0000000
00000000180C0007000161C0000000
000000000E0C007800068380000000
0000000003EC3F8000090700000000
00000000000FE00000160E00000000
00000000000E0000006C1C00000000
000000000006000001983800000000
00000000000300000620F000000000
00000000000380001841E000000000
000000000000C000E183C000000000
0000000000003C0F03078000000000
00000000000003F006070000000000
00000000000000000C0E0000000000
0000000000000000101C0000000000
000000000000000060380000000000
0000000000000000C0780000000000
00001F000000000180F00000000000
0003E0E00000000300E00000000000
001C00380000000401C00000000000
0070001C0000001801C00000000000
00C0000C0000003003800000000000
0180000C00000FFF07000038000000
0300000C0007F0C1FE0007C7C00000
06000008003803000FC03C00600000
0C00001801C006000CF0F000300000
1800001007000C001C3FC000100000
380000200C001800180F0000100000
3000004038006000183F8000100000
600000806000C00010F9C000100000
60000300C003800031E0E000300000
60001C018006000037C07000200000
E0006003000C00003F003800400000
C0000002003000003C001800800000
C000000200600000F8001801800000
C000000201800003F0001802000000
E00000020700000FB0000C0C000000
E00000020C00001E30000C18000000
60000002300000F818000860000000
70000001E00003E018001980000000
3800000380000F000E001E00000000
1C00001C600078000380F800000000
0E0000601FFF8000007F3000000000
07C007800000000000003000000000
00FFF8000000000000006000000000
00000000000000000000C000000000
000000000000000000018000000000
000000000000000000030000000000
000000000000000000060000000000
0000000000000000000C0000000000
000000000000000000300000000000
000000000000000000E00000000000
000000000000000003800000000000
00000000000000000C000000000000
000000000000000070000000000000
ENDCHAR
STARTCHAR 00C2
ENCODING 194
SWIDTH 1416 0
DWIDTH 102 0
BBX 117 84 0 -14
BITMAP
00000000000001C000000000000000
0000000000001E0000000000000000
000000000000E00000000000000000
000000000003000000000000000000
00000000000C000000000000000000
000000000010000000000000000000
000000000060000000000000000080
0000000000800000000000000003C0
000000000100000000000000000E60
000000000200000006000000003860
0000000004000001FFF0000001C030
000000000800000F801C0000030010
000000001000003C00060000000018
00000000200000F000020000000000
00000000200003C000020000000000
000000004000078000030000001C00
0000000080000E000002000000FC00
0000000080001C000002000003F000
0000000180003800000200000EE000
000000010000700000040000338000
000000010000E00000040000470000
000000010001C000000800018C0000
000000010001C00000100006380000
000000010003800000300008700000
000000010007000000600030C00000
000000010007000000C00041800000
000000010006000001000087000000
00000001800E00000600030E000000
00000000800E00000C00041C000000
00000000400C000030000870000000
00000000600C0000C000B0E0000000
00000000180C0007000161C0000000
000000000E0C007800068380000000
0000000003EC3F8000090700000000
00000000000FE00000160E00000000
00000000000E0000006C1C00000000
000000000006000001983800000000
00000000000300000620F000000000
00000000000380001841E000000000
000000000000C000E183C000000000
0000000000003C0F03078000000000
00000000000003F006070000000000
00000000000000000C0E0000000000
0000000000000000101C0000000000
000000000000000060380000000000
0000000000000000C0780000000000
00001F000000000180F00000000000
0003E0E00000000300E00000000000
001C00380000000401C00000000000
0070001C0000001801C00000000000
00C0000C0000003003800000000000
0180000C00000FFF07000038000000
0300000C0007F0C1FE0007C7C00000
06000008003803000FC03C00600000
0C00001801C006000CF0F000300000
1800001007000C001C3FC000100000
380000200C001800180F0000100000
3000004038006000183F8000100000
600000806000C00010F9C000100000
60000300C003800031E0E000300000
60001C018006000037C07000200000
E0006003000C00003F003800400000
C0000002003000003C001800800000
C000000200600000F8001801800000
C000000201800003F0001802000000
E00000020700000FB0000C0C000000
E00000020C00001E30000C18000000
60000002300000F818000860000000
70000001E00003E018001980000000
3800000380000F000E001E00000000
1C00001C600078000380F800000000
0E0000601FFF8000007F3000000000
07C007800000000000003000000000
00FFF8000000000000006000000000
00000000000000000000C000000000
000000000000000000018000000000
000000000000000000030000000000
000000000000000000060000000000
0000000000000000000C0000000000
000000000000000000300000000000
000000000000000000E00000000000
000000000000000003800000000000
00000000000000000C000000000000
000000000000000070000000000000
ENDCHAR
STARTCHAR 00C3
ENCODING 195
SWIDTH 1416 0
DWIDTH 102 0
BBX 117 84 0 -14
BITMAP
00000000000001C000000000000000
0000000000001E0000000000000000
000000000000E00000000000000000
000000000003000000000000000000
00000000000C000000000000000000
000000000010000000000000000000
000000000060000000000000000000
000000000080000000000000000000
00000000010000000000000001F800
000000000200000006000000023F18
0000000004000001FFF00000040FF0
000000000800000F801C00000001C0
000000001000003C00060000000000
00000000200000F000020000000000
00000000200003C000020000000000
000000004000078000030000001C00
0000000080000E000002000000FC00
0000000080001C000002000003F000
0000000180003800000200000EE000
000000010000700000040000338000
000000010000E00000040000470000
000000010001C000000800018C0000
000000010001C00000100006380000
000000010003800000300008700000
000000010007000000600030C00000
000000010007000000C00041800000
000000010006000001000087000000
00000001800E00000600030E000000
00000000800E00000C00041C000000
00000000400C000030000870000000
00000000600C0000C000B0E0000000
00000000180C0007000161C0000000
000000000E0C007800068380000000
0000000003EC3F8000090700000000
00000000000FE00000160E00000000
00000000000E0000006C1C00000000
000000000006000001983800000000
00000000000300000620F000000000
00000000000380001841E000000000
000000000000C000E183C000000000
0000000000003C0F03078000000000
00000000000003F006070000000000
00000000000000000C0E0000000000
0000000000000000101C0000000000
000000000000000060380000000000
0000000000000000C0780000000000
00001F000000000180F00000000000
0003E0E00000000300E00000000000
001C00380000000401C00000000000
0070001C0000001801C00000000000
00C0000C0000003003800000000000
0180000C00000FFF07000038000000
0300000C0007F0C1FE0007C7C00000
06000008003803000FC03C00600000
0C00001801C006000CF0F000300000
1800001007000C001C3FC000100000
380000200C001800180F0000100000
3000004038006000183F8000100000
600000806000C00010F9C000100000
60000300C003800031E0E000300000
60001C018006000037C07000200000
E0006003000C00003F003800400000
C0000002003000003C001800800000
C000000200600000F8001801800000
C000000201800003F0001802000000
E00000020700000FB0000C0C000000
E00000020C00001E30000C18000000
60000002300000F818000860000000
70000001E00003E018001980000000
3800000380000F000E001E00000000
1C00001C600078000380F800000000
0E0000601FFF8000007F3000000000
07C007800000000000003000000000
00FFF8000000000000006000000000
00000000000000000000C000000000
000000000000000000018000000000
000000000000000000030000000000
000000000000000000060000000000
0000000000000000000C0000000000
000000000000000000300000000000
000000000000000000E00000000000
000000000000000003800000000000
00000000000000000C000000000000
000000000000000070000000000000
ENDCHAR
STARTCHAR 00C4
ENCODING 196
SWIDTH 1416 0
DWIDTH 102 0
BBX 115 84 0 -14
BITMAP
00000000000001C000000000000000
0000000000001E0000000000000000
000000000000E00000000000000000
000000000003000000000000000000
00000000000C000000000000000000
000000000010000000000000000000
000000000060000000000000000000
0000000000800000000000000038E0
0000000001000000000000000071E0
00000000020000000600000000F1C0
0000000004000001FFF00000004000
000000000800000F801C0000000000
000000001000003C00060000000000
00000000200000F000020000000000
00000000200003C000020000000000
000000004000078000030000001C00
0000000080000E000002000000FC00
0000000080001C000002000003F000
0000000180003800000200000EE000
000000010000700000040000338000
000000010000E00000040000470000
000000010001C000000800018C0000
000000010001C00000100006380000
000000010003800000300008700000
000000010007000000600030C00000
000000010007000000C00041800000
000000010006000001000087000000
00000001800E00000600030E000000
00000000800E00000C00041C000000
00000000400C000030000870000000
00000000600C0000C000B0E0000000
00000000180C0007000161C0000000
000000000E0C007800068380000000
0000000003EC3F8000090700000000
00000000000FE00000160E00000000
00000000000E0000006C1C00000000
000000000006000001983800000000
00000000000300000620F000000000
00000000000380001841E000000000
000000000000C000E183C000000000
0000000000003C0F03078000000000
00000000000003F006070000000000
00000000000000000C0E0000000000
0000000000000000101C0000000000
000000000000000060380000000000
0000000000000000C0780000000000
00001F000000000180F00000000000
0003E0E00000000300E00000000000
001C00380000000401C00000000000
0070001C0000001801C00000000000
00C0000C0000003003800000000000
0180000C00000FFF07000038000000
0300000C0007F0C1FE0007C7C00000
06000008003803000FC03C00600000
0C00001801C006000CF0F000300000
1800001007000C001C3FC000100000
380000200C001800180F0000100000
3000004038006000183F8000100000
600000806000C00010F9C000100000
60000300C003800031E0E000300000
60001C018006000037C07000200000
E0006003000C00003F003800400000
C0000002003000003C001800800000
C000000200600000F8001801800000
C000000201800003F0001802000000
E00000020700000FB0000C0C000000
E00000020C00001E30000C18000000
60000002300000F818000860000000
70000001E00003E018001980000000
3800000380000F000E001E00000000
1C00001C600078000380F800000000
0E0000601FFF8000007F3000000000
07C007800000000000003000000000
00FFF8000000000000006000000000
00000000000000000000C000000000
000000000000000000018000000000
000000000000000000030000000000
000000000000000000060000000000
0000000000000000000C0000000000
000000000000000000300000000000
000000000000000000E00000000000
000000000000000003800000000000
00000000000000000C000000000000
000000000000000070000000000000
ENDCHAR
STARTCHAR 00C5
ENCODING 197
SWIDTH 1416 0
DWIDTH 102 0
BBX 114 84 0 -14
BITMAP
00000000000001C000000000000000
0000000000001E0000000000000000
000000000000E00000000000000000
000000000003000000000000000000
00000000000C000000000000000000
000000000010000000000000000000
000000000060000000000000000000
000000000080000000000000000380
000000000100000000000000000CC0
000000000200000006000000001840
0000000004000001FFF00000001080
000000000800000F801C0000001180
000000001000003C00060000000E00
00000000200000F000020000000000
00000000200003C000020000000000
000000004000078000030000001C00
0000000080000E000002000000FC00
0000000080001C000002000003F000
0000000180003800000200000EE000
000000010000700000040000338000
000000010000E00000040000470000
000000010001C000000800018C0000
000000010001C00000100006380000
000000010003800000300008700000
000000010007000000600030C00000
000000010007000000C00041800000
000000010006000001000087000000
00000001800E00000600030E000000
00000000800E00000C00041C000000
00000000400C000030000870000000
00000000600C0000C000B0E0000000
00000000180C0007000161C0000000
000000000E0C007800068380000000
0000000003EC3F8000090700000000
00000000000FE00000160E00000000
00000000000E0000006C1C00000000
000000000006000001983800000000
00000000000300000620F000000000
00000000000380001841E000000000
000000000000C000E183C000000000
0000000000003C0F03078000000000
00000000000003F006070000000000
00000000000000000C0E0000000000
0000000000000000101C0000000000
000000000000000060380000000000
0000000000000000C0780000000000
00001F000000000180F00000000000
0003E0E00000000300E00000000000
001C00380000000401C00000000000
0070001C0000001801C00000000000
00C0000C0000003003800000000000
0180000C00000FFF07000038000000
0300000C0007F0C1FE0007C7C00000
06000008003803000FC03C00600000
0C00001801C006000CF0F000300000
1800001007000C001C3FC000100000
380000200C001800180F0000100000
3000004038006000183F8000100000
600000806000C00010F9C000100000
60000300C003800031E0E000300000
60001C018006000037C07000200000
E0006003000C00003F003800400000
C0000002003000003C001800800000
C000000200600000F8001801800000
C000000201800003F0001802000000
E00000020700000FB0000C0C000000
E00000020C00001E30000C18000000
60000002300000F818000860000000
70000001E00003E018001980000000
3800000380000F000E001E00000000
1C00001C600078000380F800000000
0E0000601FFF8000007F3000000000
07C007800000000000003000000000
00FFF8000000000000006000000000
00000000000000000000C000000000
000000000000000000018000000000
000000000000000000030000000000
000000000000000000060000000000
0000000000000000000C0000000000
000000000000000000300000000000
000000000000000000E00000000000
000000000000000003800000000000
00000000000000000C000000000000
000000000000000070000000000000
ENDCHAR
STARTCHAR 00C6
ENCODING 198
SWIDTH 1500 0
DWIDTH 108 0
BBX 125 85 0 -14
BITMAP
00000000000001C00000000000000000
0000000000001E000000000000000000
000000000000E0000000000000000000
00000000000300000000000000000000
00000000000C00000000000000000000
00000000001000000000000000000000
00000000006000000000000000000000
00000000008000000000000000000000
00000000010000000000000000000000
00000000020000000600000000000000
0000000004000001FFF0000000000000
000000000800000F801C000000000000
000000001000003C0006000000000000
00000000200000F00002000000000000
00000000200003C00002000000000000
000000004000078000030000001C0000
0000000080000E000002000000FC0800
0000000080001C000002000003FFFFE0
0000000180003800000200000EFC0070
00000001000070000004000033E00038
000000010000E0000004000047800018
000000010001E000000800018F000010
000000010001C000001000063C000030
00000001000380000030000878000020
000000010003800000600030E0000040
000000010007000000C00041C0000080
00000001000700000100008780000100
00000001800E00000600030F00000600
00000000800E00000C00041E00000C00
00000000400C00003000083E00003000
00000000600C0000C000B0FC0000C000
00000000380C0007000161F800030000
000000000E0C0078000683B8000C0000
0000000003EC3F800009077000300000
00000000001FE00000160E7001C00000
00000000000E0000006C1C600E000000
000000000006000001987860F0000000
00000000000700000620F07F00000000
00000000000380001841FFE000000000
000000000000C000E183C02000000000
0000000000003C0F0307803000000000
00000000000003F0060700107F800000
00000000000000000C0E001F80600000
0000000000000000101C01E600600000
0000000000000000203C0E01FFC00000
0000000000000000C078300000000000
00001F000000000180F1C00000000000
0003E0E00000000300E3000000000000
001C00380000000401CE000000000000
0070001C0000001803DC000000000000
00C0000C0000003003F0000000000000
0180000C0000006007E0000000000000
0300000C00001FFFFFC0001FF8000000
060000080001E3000FF000E00E000000
0C000018000E06000F8E038007000000
1800001000700C000F01CE0003800000
3800002000C018001E00780003800000
30000040030060001E00F80003800000
600000800600C0001C03CC0003800000
600003000C0380003C07060003800000
60001C00180600003C1E030007000000
E0006000300C00003C78010007000000
C00000003038000038F000800E000000
C0000000206000003BC000800C000000
C0000000618000003F0000C01C000000
E0000000670000003C00004038000000
E00000003C0000007C00004060000000
6000000030000001FE000041C0000000
70000000F00000071E0000C380000000
380000031800003C0F00008E00000000
1C00001C0E0001E003C000F800000000
0E0000E003800F0001F007C000000000
07800F00007FF000001FF90000000000
00FFF000000000000000020000000000
00000000000000000000040000000000
000000000000000000000C0000000000
00000000000000000000100000000000
00000000000000000000600000000000
00000000000000000000C00000000000
00000000000000000003000000000000
0000000000000000000E000000000000
00000000000000000038000000000000
000000000000000001C0000000000000
00000000000000000E00000000000000
00000000000000003000000000000000
ENDCHAR
STARTCHAR 00C7
ENCODING 199
SWIDTH 1027 0
DWIDTH 74 0
BBX 88 83 0 -13
BITMAP
0000000E00000000000000
0000007800000000000000
000001C000000000000000
0000070000000000000000
00001C0000000000000000
0000300000000000000000
0000600000000000000000
0000C00000000000000000
0001800000000000000000
000300000003E000000000
00060000007FFE00000000
000E000003C00300000000
000C00000E000180000000
001C0000180000C0000000
00180000700000C0000000
00380000C00000C0000000
00300001800000C0000000
003000030000008001FFF8
00300006000001800F000E
0030000C00000100780006
0030001800000203E00003
003000100000040F800003
003800300000083E000003
0038006000003078000002
00180040000061F0000006
000C00C0000183C0000004
000E008000060F8000000C
0003008000381F00000018
0001C18000E03C00000010
000079801F007800000030
000007FFE000F000000060
000001000001E0000000C0
000001000007C000000180
0000010000078000000300
00000100000F0000000C00
00000100001E0000001800
00000100003E0000003000
00000100007C000000E000
0000018000F80000018000
0000018000F00000070000
000000C001E000001C0000
000000C003E00000700000
0000006003C00001C00000
0000003007800007000000
000000180F800038000000
0000000E0F0001E0000000
00000003DF001E00000000
00000000FFFFE000000000
000000003FF00000000000
000000003C000000000000
000000003C000000000000
000000007800000FF00000
00001FF8780000F03C0000
0003E000780003000C0000
001C0000F0001C00060000
00F00000F0007000060000
01C00000F000C000020000
07000000F0030000020000
0C000000F00E0000020000
18000000F0380000060000
30000000F0F00000060000
70000000F1C00000040000
60000000F78000000C0000
E00000007E000000180000
C00000007C000000300000
C0000000F8000000600000
C0000003F8000000C00000
C000000F1C000001800000
6000003E0E000003000000
700000F00700000C000000
380003C001E00070000000
0C001E00007FFF80000000
03F7F00000200000000000
0008000000400000000000
0000000000480000000000
0000000000FF8000000000
000000000003C000000000
000000000001E000000000
000000000001C000000000
000000000001C000000000
0000000000038000000000
00000000300F0000000000
000000000FFC0000000000
ENDCHAR
STARTCHAR 00C8
ENCODING 200
SWIDTH 1055 0
DWIDTH 76 0
BBX 94 90 0 -14
BITMAP
000000000380000000000000
000000001E00000000000000
000000007000000000000000
00000001C000000000000000
000000030000000000000000
0000000E0000000000000000
000000180000000000000000
000000300000000000000000
000000600000000000000000
000000C00000003F00000000
000001C000000FFFE0000000
0000018000003C0038000000
000003000000E00018000000
000007000003800008001800
00000600000E000008000E00
000006000018000008000380
00000E0000300000080000E0
00000C000060000010000018
00000C0000C0000010000004
00000C000180000020000000
00000C000300000040000000
00000C000600000080000000
00000E0004000003003FFF80
00000E000C00000601F800E0
00000700080000180FC00060
00000300180000703F000030
00000180100001C07C000020
000000C010000701F8000060
0000007030003803E0000040
0000001E3003C007C00000C0
00000001FFFC000F80000180
000000003000001F00000300
000000003000001E00000600
000000003000003C00001800
000000001000007800003000
00000000100000700000C000
00000000180000F000038000
000000000C0000E0000E0000
000000000C0000E000300000
00000000070000C000C00000
00000000018000C007000000
0000000000E000C078000000
00000000003E00DF80000000
000000000003FFE000000000
000000000000004000000000
000000000000004000000000
0000000000000020FE000000
000000000000007F01C00000
000000000000078C00C00000
0000000000001C03FF000000
000000000000E00000000000
000000000003800000000000
00000000000E000000000000
000000000018000000000000
000000000070000000000000
0000000000E0000000000000
0000000001C0000000000000
00007FFFFF80003FF0000000
0007800007E001C03C000000
003800000E1C0E000C000000
00C000001E033C000E000000
030000001C00F00006000000
060000003801E00007000000
180000003807100006000000
30000000781E08000E000000
20000000703804000E000000
6000000070F002001C000000
C0000000F3C002001C000000
C0000000F700010038000000
C00000007E00010070000000
C000000078000100E0000000
C0000001F8000101C0000000
C0000007F800010380000000
6000001E3C00010E00000000
300000781E00013800000000
1C0003C00F0002E000000000
0F003C0003E00F0000000000
00FFC000007FF40000000000
0000000000000C0000000000
000000000000080000000000
000000000000100000000000
000000000000600000000000
000000000000C00000000000
000000000001800000000000
000000000006000000000000
000000000018000000000000
000000000060000000000000
000000000380000000000000
000000003C00000000000000
00000000C000000000000000
ENDCHAR
STARTCHAR 00C9
ENCODING 201
SWIDTH 1055 0
DWIDTH 76 0
BBX 96 90 0 -14
BITMAP
000000000380000000000000
000000001E00000000000000
000000007000000000000000
00000001C000000000000000
000000030000000000000000
0000000E0000000000000000
000000180000000000000000
000000300000000000000000
000000600000000000000000
000000C00000003F00000000
000001C000000FFFE0000000
0000018000003C0038000000
000003000000E00018000000
000007000003800008000003
00000600000E00000800000E
000006000018000008000038
00000E0000300000080000E0
00000C000060000010000380
00000C0000C0000010000C00
00000C000180000020000000
00000C000300000040000000
00000C000600000080000000
00000E0004000003003FFF80
00000E000C00000601F800E0
00000700080000180FC00060
00000300180000703F000030
00000180100001C07C000020
000000C010000701F8000060
0000007030003803E0000040
0000001E3003C007C00000C0
00000001FFFC000F80000180
000000003000001F00000300
000000003000001E00000600
000000003000003C00001800
000000001000007800003000
00000000100000700000C000
00000000180000F000038000
000000000C0000E0000E0000
000000000C0000E000300000
00000000070000C000C00000
00000000018000C007000000
0000000000E000C078000000
00000000003E00DF80000000
000000000003FFE000000000
000000000000004000000000
000000000000004000000000
0000000000000020FE000000
000000000000007F01C00000
000000000000078C00C00000
0000000000001C03FF000000
000000000000E00000000000
000000000003800000000000
00000000000E000000000000
000000000018000000000000
000000000070000000000000
0000000000E0000000000000
0000000001C0000000000000
00007FFFFF80003FF0000000
0007800007E001C03C000000
003800000E1C0E000C000000
00C000001E033C000E000000
030000001C00F00006000000
060000003801E00007000000
180000003807100006000000
30000000781E08000E000000
20000000703804000E000000
6000000070F002001C000000
C0000000F3C002001C000000
C0000000F700010038000000
C00000007E00010070000000
C000000078000100E0000000
C0000001F8000101C0000000
C0000007F800010380000000
6000001E3C00010E00000000
300000781E00013800000000
1C0003C00F0002E000000000
0F003C0003E00F0000000000
00FFC000007FF40000000000
0000000000000C0000000000
000000000000080000000000
000000000000100000000000
000000000000600000000000
000000000000C00000000000
000000000001800000000000
000000000006000000000000
000000000018000000000000
000000000060000000000000
000000000380000000000000
000000003C00000000000000
00000000C000000000000000
ENDCHAR
STARTCHAR 00CA
ENCODING 202
SWIDTH 1055 0
DWIDTH 76 0
BBX 93 90 0 -14
BITMAP
000000000380000000000000
000000001E00000000000000
000000007000000000000000
00000001C000000000000000
000000030000000000000000
0000000E0000000000000000
000000180000000000000000
000000300000000000000000
000000600000000000000000
000000C00000003F00000000
000001C000000FFFE0000000
0000018000003C0038000000
000003000000E00018000000
0000070000038000080000E0
00000600000E0000080003E0
000006000018000008000E30
00000E000030000008003810
00000C00006000001000C018
00000C0000C0000010000008
00000C000180000020000000
00000C000300000040000000
00000C000600000080000000
00000E0004000003003FFF80
00000E000C00000601F800E0
00000700080000180FC00060
00000300180000703F000030
00000180100001C07C000020
000000C010000701F8000060
0000007030003803E0000040
0000001E3003C007C00000C0
00000001FFFC000F80000180
000000003000001F00000300
000000003000001E00000600
000000003000003C00001800
000000001000007800003000
00000000100000700000C000
00000000180000F000038000
000000000C0000E0000E0000
000000000C0000E000300000
00000000070000C000C00000
00000000018000C007000000
0000000000E000C078000000
00000000003E00DF80000000
000000000003FFE000000000
000000000000004000000000
000000000000004000000000
0000000000000020FE000000
000000000000007F01C00000
000000000000078C00C00000
0000000000001C03FF000000
000000000000E00000000000
000000000003800000000000
00000000000E000000000000
000000000018000000000000
000000000070000000000000
0000000000E0000000000000
0000000001C0000000000000
00007FFFFF80003FF0000000
0007800007E001C03C000000
003800000E1C0E000C000000
00C000001E033C000E000000
030000001C00F00006000000
060000003801E00007000000
180000003807100006000000
30000000781E08000E000000
20000000703804000E000000
6000000070F002001C000000
C0000000F3C002001C000000
C0000000F700010038000000
C00000007E00010070000000
C000000078000100E0000000
C0000001F8000101C0000000
C0000007F800010380000000
6000001E3C00010E00000000
300000781E00013800000000
1C0003C00F0002E000000000
0F003C0003E00F0000000000
00FFC000007FF40000000000
0000000000000C0000000000
000000000000080000000000
000000000000100000000000
000000000000600000000000
000000000000C00000000000
000000000001800000000000
000000000006000000000000
000000000018000000000000
000000000060000000000000
000000000380000000000000
000000003C00000000000000
00000000C000000000000000
ENDCHAR
STARTCHAR 00CB
ENCODING 203
SWIDTH 1055 0
DWIDTH 76 0
BBX 93 90 0 -14
BITMAP
000000000380000000000000
000000001E00000000000000
000000007000000000000000
00000001C000000000000000
000000030000000000000000
0000000E0000000000000000
000000180000000000000000
000000300000000000000000
000000600000000000000000
000000C00000003F00000000
000001C000000FFFE0000000
0000018000003C0038000000
000003000000E00018000000
000007000003800008000408
00000600000E000008000E38
000006000018000008001C70
00000E000030000008003860
00000C000060000010000000
00000C0000C0000010000000
00000C000180000020000000
00000C000300000040000000
00000C000600000080000000
00000E0004000003003FFF80
00000E000C00000601F800E0
00000700080000180FC00060
00000300180000703F000030
00000180100001C07C000020
000000C010000701F8000060
0000007030003803E0000040
0000001E3003C007C00000C0
00000001FFFC000F80000180
000000003000001F00000300
000000003000001E00000600
000000003000003C00001800
000000001000007800003000
00000000100000700000C000
00000000180000F000038000
000000000C0000E0000E0000
000000000C0000E000300000
00000000070000C000C00000
00000000018000C007000000
0000000000E000C078000000
00000000003E00DF80000000
000000000003FFE000000000
000000000000004000000000
000000000000004000000000
0000000000000020FE000000
000000000000007F01C00000
000000000000078C00C00000
0000000000001C03FF000000
000000000000E00000000000
000000000003800000000000
00000000000E000000000000
000000000018000000000000
000000000070000000000000
0000000000E0000000000000
0000000001C0000000000000
00007FFFFF80003FF0000000
0007800007E001C03C000000
003800000E1C0E000C000000
00C000001E033C000E000000
030000001C00F00006000000
060000003801E00007000000
180000003807100006000000
30000000781E08000E000000
20000000703804000E000000
6000000070F002001C000000
C0000000F3C002001C000000
C0000000F700010038000000
C00000007E00010070000000
C000000078000100E0000000
C0000001F8000101C0000000
C0000007F800010380000000
6000001E3C00010E00000000
300000781E00013800000000
1C0003C00F0002E000000000
0F003C0003E00F0000000000
00FFC000007FF40000000000
0000000000000C0000000000
000000000000080000000000
000000000000100000000000
000000000000600000000000
000000000000C00000000000
000000000001800000000000
000000000006000000000000
000000000018000000000000
000000000060000000000000
000000000380000000000000
000000003C00000000000000
00000000C000000000000000
ENDCHAR
STARTCHAR 00CC
ENCODING 204
SWIDTH 902 0
DWIDTH 65 0
BBX 113 66 0 -2
BITMAP
000000000000000000000000030000
00000000000000000000000003C000
000000000000000000000000007000
000000000000000000000000001C00
000000000000000000000000000700
000000000000000000000000000080
000000000000000000000000000000
000000000000000000000000000000
000000000000000000000000000000
00000000000000000000000003FE00
0000000000000000000000001C0200
000000000000000000000000E00200
000000000000000000000003800400
00000000000000000000000E001800
00000000000000000000001807E000
00000000000000000000007FF80000
00000000000000000001FFE0000000
000000000000000000FF8380000000
000000000000000007C00700000000
00000000000000003C000E00000000
0000000000000001E0001C00000000
000000000000000380007800000000
000000000000000E0000F000000000
00000000000000180001E000000000
00000000000000100003C000000000
000000000000003000070000000000
0000000000000060000F0000000000
0000000000000060001E0000000000
0000000000000060003C0000000000
000000000000004000780000000000
000000000000004001F00000000000
000000000000006003E00000000000
0000000000000061FFF00000000000
000000000000003E0FB00000000000
00000000000001F81F300000000000
0000000000000E0E3EE00000000000
0000000000003003FF000000000000
000000000000C000F8000000000000
0000000000018001F0000000000000
0000000000060003E0000000000000
00000000000C0007C0000000000000
000000000010000F80000000000000
000000000020001F00000000000000
000000000040003E00000000000000
000000000080007C00000000000000
00000000010000F800000000000000
00000000030001F000000000000000
00000000060003E000000000000000
000000000400078000000000000000
000000000C001F0000000000000000
0000000008003E0000000000000000
0000000008007C0000000000000000
600000001000F80000000000000000
E00000001003E00000000000000000
C00000001007C00000000000000000
80000000100F800000000000000000
80000000103E000000000000000000
800000001078000000000000000000
C000000011F0000300000000000000
4000000017C0000600000000000000
200000000F00001800000000000000
180000007C00006000000000000000
0E000001E600018000000000000000
03C0000F83800E0000000000000000
003FC7F800FFF80000000000000000
00003C000006000000000000000000
ENDCHAR
STARTCHAR 00CD
ENCODING 205
SWIDTH 902 0
DWIDTH 65 0
BBX 117 66 0 -3
BITMAP
000000000000000000000000000018
000000000000000000000000000078
0000000000000000000000000001E0
000000000000000000000000000780
000000000000000000000000001C00
000000000000000000000000003000
000000000000000000000000000000
000000000000000000000000000000
000000000000000000000000000000
00000000000000000000000003FE00
0000000000000000000000001C0200
000000000000000000000000E00200
000000000000000000000003800400
00000000000000000000000E001800
00000000000000000000001807E000
00000000000000000000007FF80000
00000000000000000001FFE0000000
000000000000000000FF8380000000
000000000000000007C00700000000
00000000000000003C000E00000000
0000000000000001E0001C00000000
000000000000000380007800000000
000000000000000E0000F000000000
00000000000000180001E000000000
00000000000000100003C000000000
000000000000003000070000000000
0000000000000060000F0000000000
0000000000000060001E0000000000
0000000000000060003C0000000000
000000000000004000780000000000
000000000000004001F00000000000
000000000000006003E00000000000
0000000000000061FFF00000000000
000000000000003E0FB00000000000
00000000000001F81F300000000000
0000000000000E0E3EE00000000000
0000000000003003FF000000000000
000000000000C000F8000000000000
0000000000018001F0000000000000
0000000000060003E0000000000000
00000000000C0007C0000000000000
000000000010000F80000000000000
000000000020001F00000000000000
000000000040003E00000000000000
000000000080007C00000000000000
00000000010000F800000000000000
00000000030001F000000000000000
00000000060003E000000000000000
000000000400078000000000000000
000000000C001F0000000000000000
0000000008003E0000000000000000
0000000008007C0000000000000000
600000001000F80000000000000000
E00000001003E00000000000000000
C00000001007C00000000000000000
80000000100F800000000000000000
80000000103E000000000000000000
800000001078000000000000000000
C000000011F0000300000000000000
4000000017C0000600000000000000
200000000F00001800000000000000
180000007C00006000000000000000
0E000001E600018000000000000000
03C0000F83800E0000000000000000
003FC7F800FFF80000000000000000
00003C000006000000000000000000
ENDCHAR
STARTCHAR 00CE
ENCODING 206
SWIDTH 902 0
DWIDTH 65 0
BBX 111 65 0 -2
BITMAP
0000000000000000000000000070
00000000000000000000000001D8
0000000000000000000000000708
000000000000000000000000380C
000000000000000000000000E004
0000000000000000000000000002
0000000000000000000000000000
0000000000000000000000000000
00000000000000000000000003FE
0000000000000000000000001C02
000000000000000000000000E002
0000000000000000000000038004
00000000000000000000000E0018
00000000000000000000001807E0
00000000000000000000007FF800
00000000000000000001FFE00000
000000000000000000FF83800000
000000000000000007C007000000
00000000000000003C000E000000
0000000000000001E0001C000000
0000000000000003800078000000
000000000000000E0000F0000000
00000000000000180001E0000000
00000000000000100003C0000000
0000000000000030000700000000
0000000000000060000F00000000
0000000000000060001E00000000
0000000000000060003C00000000
0000000000000040007800000000
000000000000004001F000000000
000000000000006003E000000000
0000000000000061FFF000000000
000000000000003E0FB000000000
00000000000001F81F3000000000
0000000000000E0E3EE000000000
0000000000003003FF0000000000
000000000000C000F80000000000
0000000000018001F00000000000
0000000000060003E00000000000
00000000000C0007C00000000000
000000000010000F800000000000
000000000020001F000000000000
000000000040003E000000000000
000000000080007C000000000000
00000000010000F8000000000000
00000000030001F0000000000000
00000000060003E0000000000000
0000000004000780000000000000
000000000C001F00000000000000
0000000008003E00000000000000
0000000008007C00000000000000
600000001000F800000000000000
E00000001003E000000000000000
C00000001007C000000000000000
80000000100F8000000000000000
80000000103E0000000000000000
8000000010780000000000000000
C000000011F00003000000000000
4000000017C00006000000000000
200000000F000018000000000000
180000007C000060000000000000
0E000001E6000180000000000000
03C0000F83800E00000000000000
003FC7F800FFF800000000000000
00003C0000060000000000000000
ENDCHAR
STARTCHAR 00CF
ENCODING 207
SWIDTH 902 0
DWIDTH 65 0
BBX 111 65 0 -3
BITMAP
0000000000000000000000000186
000000000000000000000000078E
000000000000000000000000071C
0000000000000000000000000618
0000000000000000000000000000
0000000000000000000000000000
0000000000000000000000000000
0000000000000000000000000000
00000000000000000000000003FE
0000000000000000000000001C02
000000000000000000000000E002
0000000000000000000000038004
00000000000000000000000E0018
00000000000000000000001807E0
00000000000000000000007FF800
00000000000000000001FFE00000
000000000000000000FF83800000
000000000000000007C007000000
00000000000000003C000E000000
0000000000000001E0001C000000
0000000000000003800078000000
000000000000000E0000F0000000
00000000000000180001E0000000
00000000000000100003C0000000
0000000000000030000700000000
0000000000000060000F00000000
0000000000000060001E00000000
0000000000000060003C00000000
0000000000000040007800000000
000000000000004001F000000000
000000000000006003E000000000
0000000000000061FFF000000000
000000000000003E0FB000000000
00000000000001F81F3000000000
0000000000000E0E3EE000000000
0000000000003003FF0000000000
000000000000C000F80000000000
0000000000018001F00000000000
0000000000060003E00000000000
00000000000C0007C00000000000
000000000010000F800000000000
000000000020001F000000000000
000000000040003E000000000000
000000000080007C000000000000
00000000010000F8000000000000
00000000030001F0000000000000
00000000060003E0000000000000
0000000004000780000000000000
000000000C001F00000000000000
0000000008003E00000000000000
0000000008007C00000000000000
600000001000F800000000000000
E00000001003E000000000000000
C00000001007C000000000000000
80000000100F8000000000000000
80000000103E0000000000000000
8000000010780000000000000000
C000000011F00003000000000000
4000000017C00006000000000000
200000000F000018000000000000
180000007C000060000000000000
0E000001E6000180000000000000
03C0000F83800E00000000000000
003FC7F800FFF800000000000000
00003C0000060000000000000000
ENDCHAR
STARTCHAR 00D0
ENCODING 208
SWIDTH 1166 0
DWIDTH 84 0
BBX 115 70 0 -6
BITMAP
0000000000007FE000000000000000
00000000000F803C00000000000000
000000000078000700000000000000
000000000180000380000000000000
000000000E000000C0000000000000
0000000030000000C0000000000000
00000000C000000060000000000000
00000003000000007FF00000000000
000000040000000FFFFF80000FF800
00000018000000FE2001E000F00600
00000020000007F020003803800180
000000C000001F8020000C0E0000C0
0000010000007C0020000638000040
000002000001F000200001E0000060
000000000003E000200001C0000060
00000000000F8000200007C0000060
00000000001E000060000E60000060
00000000003C000040001C60000040
000000000078000040007820000040
0000000000E00000C000F030000080
0000000001C000008001C030000180
000000000380000180038030000300
0000000003000001000F0010000600
0000000006000002001E0018000800
000000000E000006003C0018003000
000000000C00000400780038004000
000000001800000800F00038000000
000000001800001001E00038000000
000000001000002003C00030000000
00000000100000C007800030000000
00000000200001800F000070000000
00000000200007001E000070000000
0000000020000C003C000070000000
0000000010003800780000E0000000
000000001801E000F00000E0000000
000000000FBF8001E00001E0000000
0000000003FC0003C00001C0000000
0000000000000007C00003C0000000
000000000000000F80000380000000
000000000000001F00000780000000
000000000000003E00000F00000000
000000000000007C00000F00000000
00000000001FFFFFFF801E00000000
00000000001FFFFFFF803E00000000
00000000000003E000003C00000000
00000000000007C000007800000000
0000000000000F800000F000000000
0000000000001E000001F000000000
0000000000003C000003E000000000
00000000000078000007C000000000
000000000000F000000F8000000000
000000000003E000001F0000000000
000000000007C000003E0000000000
00000000000F800000FC0000000000
00000000001F000001F00000000000
00000000003C000003E00000000000
00000000007800000FC00000000000
0000000001F000001F000000000000
0000000003E000007E000000000000
0380000007800000F8000000000000
7DFF00001F000003E0000000000000
C003F0003C00001F80000000000000
C0003F00F800007C00000000000000
C00003F1E00003F000000000000000
E000003F80003F0000000000000000
7000003FFF7FF00000000000000000
3C0000F81FF8000000000000000000
1F0007E00000000000000000000000
0FFFFF000000000000000000000000
01FFF0000000000000000000000000
ENDCHAR
STARTCHAR 00D1
ENCODING 209
SWIDTH 1097 0
DWIDTH 79 0
BBX 141 87 -1 -15
BITMAP
000000000000010000000000000000000000
0000000000001E0000000000000000000000
000000000000E00000000000000000000000
000000000003000000000000000000000000
00000000001C000000000000000000000000
000000000020000000000000000000000000
0000000000C0000000000000000000000000
000000000100000000000000000000000000
000000000200000000000000000078000000
000000000C000000000000000001FE040000
0000000018000001FF80000000020FF80000
000000003000000FC3E00000000403F00000
000000002000007800300000000000000000
00000000400001E000180000000000000000
000000008000078000080000000000000000
0000000100000F00000C0000070000000000
0000000100003C00000C00001C0000000000
0000000200007800000C000070000000FC00
000000020000F00000080000E000001F0380
000000060001E00000080003C00000E00060
000000040001C00000100005800003000020
00000004000380000030000B00000C000030
000000040007000000200017000030000010
00000004000F00000040006E0000C0000018
00000004000E0000008000CC000100000018
00000004001C000001000198000600000018
00000004001C000002000338000800000018
00000006001800000C000270003000000038
0000000200380000180004E0004000000038
0000000300380000600009E0018000000070
0000000180300001800011C0030001800070
00000000C0300006000223800600060000E0
0000000070300038000C47800800180001C0
000000001C3007C0001087001000300003C0
0000000003FFF80000610E00200060000780
000000000030000000831E004000C0000700
000000000018000003061C01800080001E00
00000000001800000C0C3803000100003C00
00000000000C000030187806000100007800
0000000000060000C030700C00030000E000
00000000000180070060E01000020003C000
0000000000007FF80041E020000200070000
00000000000000000081C0400003001E0000
00000000000000000103C080000100780000
000000000000000002038180000181E00000
00000001FF0000000407830000007F000000
0000000E01C00000080F0600000000000000
0000003000600000100E0C00000000000000
0000004000600000201E1800000000000000
0000018000700000401C1000000000000000
0000020000300000803C2000000000000000
000004000070000100384000000000000000
000008000060000200708000000000000000
000010000060000400710000000000000000
0000300000E0000800E20000000000000000
00003FFFFFC0001000E40000000000000000
0001C00001F0002001CC0000000000000000
000E4000019C004001D80000000000000000
007080000387008003B00000000000000000
018080000701C10003E00000000000000000
070080000E00620007C00000000000000000
0C0100000C003C0007800000000000000000
18010000180018000F000000000000000000
3001000070003C000E000000000000000000
60010000E0004E000E000000000000000000
C0010001C00086001C000000000000000000
C00180038003070018000000000000000000
8000800E0004030030000000000000000000
8000C01C0018038020000000000000000000
800040700020038060000000000000000000
C00031C000C00380C0000000000000000000
60001F000700038080000000000000000000
1800F7007800038000000000000000000000
07FF00FF8000030000000000000000000000
000000000000070000000000000000000000
000000000000060000000000000000000000
0000000000000E0000000000000000000000
0000000000001C0000000000000000000000
000000000000180000000000000000000000
000000000000300000000000000000000000
000000000000E00000000000000000000000
000000000001C00000000000000000000000
000000000007000000000000000000000000
00000000001C000000000000000000000000
0000000000F0000000000000000000000000
000000000700000000000000000000000000
000000003800000000000000000000000000
ENDCHAR
STARTCHAR 00D2
ENCODING 210
SWIDTH 680 0
DWIDTH 49 0
BBX 82 81 -12 -5
BITMAP
00003C0000000000000000
0000E00000000000000000
0007000000000000000000
000C000000000000000000
0030000000000000000000
0060000000000000000000
00C000000FFE0000000000
018000007C078000000000
03000001C0008000000000
0600000700004000000000
0C00000C00004000010000
1C0000300000600001C000
180000600000400000F000
380000C000004000001C00
3000018000004000000700
700002000000C0000000C0
6000060000008000000000
60000C0000010000000000
6000180000030000000000
E00030000006000001FC00
E0002000000C00000E0300
6000600000180000380180
6000400000300000600080
6000C000006000000000C0
7000800000C001FF0000C0
3001800003800F818000C0
3801000006007C008000C0
1C0300001801F0008000C0
0E030000E007C000800080
03820003800F8001800080
00E2003C003E0001000180
001FFFC0007C0003000100
0006000000F80002000300
0006000003E00004000300
0006000007C0000C000600
000600000F800018000600
000600001F000030000C00
000600003E000060000C00
000200007C0001C0001800
00020000F8000300001800
00030001F0000600003000
00010003E0001C00006000
00018007C0003000006000
0000C00F8000C00000C000
0000601F00030000018000
0000383E001C0000018000
00001E3E00F00000030000
000007FC1F800000060000
000000FFF00000000C0000
000001F0000000000C0000
000001E000000000180000
000003E000000000300000
000007C000000000600000
0000078000000000C00000
00000F8000000001C00000
00000F0000000001800000
00001E0000000003000000
00001E0000000006000000
00003C000000000C000000
00003C0000000018000000
0000780000000030000000
0000780000000060000000
0000F000000000C0000000
0000F00000000180000000
0000E00000000300000000
0000E00000000600000000
0001E00000001800000000
0001C00000003000000000
0001C00000006000000000
0001C0000000C000000000
0001C00000038000000000
0001C00000060000000000
0001C000000C0000000000
0001C00000300000000000
0000C00000600000000000
0000C00001800000000000
0000E00006000000000000
0000700018000000000000
00003800E0000000000000
00000FDF00000000000000
0000002000000000000000
ENDCHAR
STARTCHAR 00D3
ENCODING 211
SWIDTH 680 0
DWIDTH 49 0
BBX 89 81 -12 -5
BITMAP
00003C000000000000000000
0000E0000000000000000000
000700000000000000000000
000C00000000000000000000
003000000000000000000000
006000000000000000000000
00C000000FFE000000000000
018000007C07800000000000
03000001C000800000000000
060000070000400000000000
0C00000C0000400000000180
1C0000300000600000000700
180000600000400000001C00
380000C00000400000007000
300001800000400000018000
700002000000C00000020000
600006000000800000000000
60000C000001000000000000
600018000003000000000000
E00030000006000001FC0000
E0002000000C00000E030000
600060000018000038018000
600040000030000060008000
6000C000006000000000C000
7000800000C001FF0000C000
3001800003800F818000C000
3801000006007C008000C000
1C0300001801F0008000C000
0E030000E007C00080008000
03820003800F800180008000
00E2003C003E000100018000
001FFFC0007C000300010000
0006000000F8000200030000
0006000003E0000400030000
0006000007C0000C00060000
000600000F80001800060000
000600001F000030000C0000
000600003E000060000C0000
000200007C0001C000180000
00020000F800030000180000
00030001F000060000300000
00010003E0001C0000600000
00018007C000300000600000
0000C00F8000C00000C00000
0000601F0003000001800000
0000383E001C000001800000
00001E3E00F0000003000000
000007FC1F80000006000000
000000FFF00000000C000000
000001F0000000000C000000
000001E00000000018000000
000003E00000000030000000
000007C00000000060000000
0000078000000000C0000000
00000F8000000001C0000000
00000F000000000180000000
00001E000000000300000000
00001E000000000600000000
00003C000000000C00000000
00003C000000001800000000
000078000000003000000000
000078000000006000000000
0000F000000000C000000000
0000F0000000018000000000
0000E0000000030000000000
0000E0000000060000000000
0001E0000000180000000000
0001C0000000300000000000
0001C0000000600000000000
0001C0000000C00000000000
0001C0000003800000000000
0001C0000006000000000000
0001C000000C000000000000
0001C0000030000000000000
0000C0000060000000000000
0000C0000180000000000000
0000E0000600000000000000
000070001800000000000000
00003800E000000000000000
00000FDF0000000000000000
000000200000000000000000
ENDCHAR
STARTCHAR 00D4
ENCODING 212
SWIDTH 680 0
DWIDTH 49 0
BBX 82 81 -12 -5
BITMAP
00003C0000000000000000
0000E00000000000000000
0007000000000000000000
000C000000000000000000
0030000000000000000000
0060000000000000000000
00C000000FFE0000000000
018000007C078000000000
03000001C0008000000000
0600000700004000000000
0C00000C00004000000600
1C00003000006000001F00
180000600000400000F300
380000C000004000038180
30000180000040000E0080
700002000000C0000000C0
6000060000008000000040
60000C0000010000000000
6000180000030000000000
E00030000006000001FC00
E0002000000C00000E0300
6000600000180000380180
6000400000300000600080
6000C000006000000000C0
7000800000C001FF0000C0
3001800003800F818000C0
3801000006007C008000C0
1C0300001801F0008000C0
0E030000E007C000800080
03820003800F8001800080
00E2003C003E0001000180
001FFFC0007C0003000100
0006000000F80002000300
0006000003E00004000300
0006000007C0000C000600
000600000F800018000600
000600001F000030000C00
000600003E000060000C00
000200007C0001C0001800
00020000F8000300001800
00030001F0000600003000
00010003E0001C00006000
00018007C0003000006000
0000C00F8000C00000C000
0000601F00030000018000
0000383E001C0000018000
00001E3E00F00000030000
000007FC1F800000060000
000000FFF00000000C0000
000001F0000000000C0000
000001E000000000180000
000003E000000000300000
000007C000000000600000
0000078000000000C00000
00000F8000000001C00000
00000F0000000001800000
00001E0000000003000000
00001E0000000006000000
00003C000000000C000000
00003C0000000018000000
0000780000000030000000
0000780000000060000000
0000F000000000C0000000
0000F00000000180000000
0000E00000000300000000
0000E00000000600000000
0001E00000001800000000
0001C00000003000000000
0001C00000006000000000
0001C0000000C000000000
0001C00000038000000000
0001C00000060000000000
0001C000000C0000000000
0001C00000300000000000
0000C00000600000000000
0000C00001800000000000
0000E00006000000000000
0000700018000000000000
00003800E0000000000000
00000FDF00000000000000
0000002000000000000000
ENDCHAR
STARTCHAR 00D5
ENCODING 213
SWIDTH 680 0
DWIDTH 49 0
BBX 86 81 -12 -5
BITMAP
00003C0000000000000000
0000E00000000000000000
0007000000000000000000
000C000000000000000000
0030000000000000000000
0060000000000000000000
00C000000FFE0000000000
018000007C078000000000
03000001C0008000000000
0600000700004000000000
0C00000C00004000000000
1C00003000006000001000
180000600000400000FE04
380000C000004000030FC8
30000180000040000403F0
700002000000C000000000
6000060000008000000000
60000C0000010000000000
6000180000030000000000
E00030000006000001FC00
E0002000000C00000E0300
6000600000180000380180
6000400000300000600080
6000C000006000000000C0
7000800000C001FF0000C0
3001800003800F818000C0
3801000006007C008000C0
1C0300001801F0008000C0
0E030000E007C000800080
03820003800F8001800080
00E2003C003E0001000180
001FFFC0007C0003000100
0006000000F80002000300
0006000003E00004000300
0006000007C0000C000600
000600000F800018000600
000600001F000030000C00
000600003E000060000C00
000200007C0001C0001800
00020000F8000300001800
00030001F0000600003000
00010003E0001C00006000
00018007C0003000006000
0000C00F8000C00000C000
0000601F00030000018000
0000383E001C0000018000
00001E3E00F00000030000
000007FC1F800000060000
000000FFF00000000C0000
000001F0000000000C0000
000001E000000000180000
000003E000000000300000
000007C000000000600000
0000078000000000C00000
00000F8000000001C00000
00000F0000000001800000
00001E0000000003000000
00001E0000000006000000
00003C000000000C000000
00003C0000000018000000
0000780000000030000000
0000780000000060000000
0000F000000000C0000000
0000F00000000180000000
0000E00000000300000000
0000E00000000600000000
0001E00000001800000000
0001C00000003000000000
0001C00000006000000000
0001C0000000C000000000
0001C00000038000000000
0001C00000060000000000
0001C000000C0000000000
0001C00000300000000000
0000C00000600000000000
0000C00001800000000000
0000E00006000000000000
0000700018000000000000
00003800E0000000000000
00000FDF00000000000000
0000002000000000000000
ENDCHAR
STARTCHAR 00D6
ENCODING 214
SWIDTH 680 0
DWIDTH 49 0
BBX 82 81 -12 -5
BITMAP
00003C0000000000000000
0000E00000000000000000
0007000000000000000000
000C000000000000000000
0030000000000000000000
0060000000000000000000
00C000000FFE0000000000
018000007C078000000000
03000001C0008000000000
0600000700004000000000
0C00000C00004000000000
1C0000300000600001C700
1800006000004000038F00
380000C000004000070E00
3000018000004000000000
700002000000C000000000
6000060000008000000000
60000C0000010000000000
6000180000030000000000
E00030000006000001FC00
E0002000000C00000E0300
6000600000180000380180
6000400000300000600080
6000C000006000000000C0
7000800000C001FF0000C0
3001800003800F818000C0
3801000006007C008000C0
1C0300001801F0008000C0
0E030000E007C000800080
03820003800F8001800080
00E2003C003E0001000180
001FFFC0007C0003000100
0006000000F80002000300
0006000003E00004000300
0006000007C0000C000600
000600000F800018000600
000600001F000030000C00
000600003E000060000C00
000200007C0001C0001800
00020000F8000300001800
00030001F0000600003000
00010003E0001C00006000
00018007C0003000006000
0000C00F8000C00000C000
0000601F00030000018000
0000383E001C0000018000
00001E3E00F00000030000
000007FC1F800000060000
000000FFF00000000C0000
000001F0000000000C0000
000001E000000000180000
000003E000000000300000
000007C000000000600000
0000078000000000C00000
00000F8000000001C00000
00000F0000000001800000
00001E0000000003000000
00001E0000000006000000
00003C000000000C000000
00003C0000000018000000
0000780000000030000000
0000780000000060000000
0000F000000000C0000000
0000F00000000180000000
0000E00000000300000000
0000E00000000600000000
0001E00000001800000000
0001C00000003000000000
0001C00000006000000000
0001C0000000C000000000
0001C00000038000000000
0001C00000060000000000
0001C000000C0000000000
0001C00000300000000000
0000C00000600000000000
0000C00001800000000000
0000E00006000000000000
0000700018000000000000
00003800E0000000000000
00000FDF00000000000000
0000002000000000000000
ENDCHAR
STARTCHAR 00D7
ENCODING 215
SWIDTH 388 0
DWIDTH 28 0
BBX 24 18 4 6
BITMAP
000001
030003
01800C
008018
004030
0060C0
003180
001600
000C00
001C00
006600
00C200
030100
060180
0C00C0
300040
600020
C00030
ENDCHAR
STARTCHAR 00D8
ENCODING 216
SWIDTH 680 0
DWIDTH 49 0
BBX 82 84 -12 -9
BITMAP
00003C0000000000000000
0000E00000000000000000
0007000000000000000000
000C000000000000000000
0030000000000000000000
0060000000000000000000
00C000000FFE0000000000
018000007C078000000000
03000001C0008000000000
0600000700004000000000
0C00000C00004000000000
1C00003000006000001000
1800006000004000003000
380000C000004000003000
3000018000004000006000
700002000000C00000E000
600006000000800000C000
60000C0000010000018000
6000180000030000038000
E00030000006000003FC00
E0002000000C00000E0300
60006000001800003E0180
60004000003000006C0080
6000C000006000001800C0
7000800000C001FF1800C0
3001800003800F81B000C0
3801000006007C00E000C0
1C0300001801F000E000C0
0E030000E007C000C00080
03820003800F8001800080
00E2003C003E0001800180
001FFFC0007C0003000100
0006000000F80007000300
0006000003E00006000300
0006000007C0000C000200
000600000F80001C000600
000600001F000038000400
000600003E000070000C00
000200007C0000F0001800
00020000F8000360001000
00030001F00006C0003000
00010003E0001CC0002000
00018007C0003180006000
0000C00F8000C30000C000
0000601F00030300018000
0000383E001C0600018000
00001E3E00F00E00030000
000007FC1F800C00060000
000000FFF0001800040000
000001F0000038000C0000
000001E000003000180000
000003E000006000300000
000007C000006000600000
000007800000C000C00000
00000F8000018000C00000
00000F0000018001800000
00001E0000030003000000
00001E0000060006000000
00003C000006000C000000
00003C00000C0018000000
0000780000180030000000
0000780000180060000000
0000F000003000C0000000
0000F00000700180000000
0000E00000600300000000
0000E00000C00600000000
0001E00001C01800000000
0001C00001803000000000
0001C00003006000000000
0001C0000300C000000000
0001C00006030000000000
0001C0000C060000000000
0001C0000C0C0000000000
0001C00018300000000000
0000C00030600000000000
0000C00031800000000000
0000E00066000000000000
00007000D8000000000000
00003800E0000000000000
00000FDF80000000000000
0000002180000000000000
0000000300000000000000
0000000600000000000000
0000000600000000000000
ENDCHAR
STARTCHAR 00D9
ENCODING 217
SWIDTH 861 0
DWIDTH 62 0
BBX 103 79 -25 -15
BITMAP
0000003FFF0000000000000000
000003C000C000000000000000
00001C00003000000000000000
00006000000C0000001C000000
00038000000600000007000000
000C0000000300000001C00000
00300000000100000000700000
004000000000800000000C0000
01800000000080000000020000
06000000000FFF800000000000
0800000000F04060000000001C
100000000300401000000000E6
200000001C0040080000000386
40000000600040080000000E06
800000018000C0040000001C0C
000000060000C0040000007008
0000000C0000C004000001E018
000000300000C0040000038030
00000060000180040000070060
000000C00001800C00001E00C0
000001000003800C00003C0180
00000200000300180000700300
00000400000700180000E00600
00000C00000600380003C00800
00001800000C00700007801000
00003000001C00F0000F006000
00002000003800E0001E00C000
00006000007001E0003C018000
0000600000E003C00078020000
0000400001C0078000F00C0000
0000400003800F0001E0180000
0000C00007001F0003C0300000
0000C0001C003E000780400000
0000400070007C000F01800000
00006001C000F8001E03000000
0000301F0003F0003C04000000
00001FF00007E0007818000000
00000000000FC000F030000000
00000000001F8000E0C0000000
00000000003F0001C180000000
00000000007E00038200000000
0000000000FC00070C00000000
0000000001F0000F1800000000
0000000003E0000E6000000000
0000000007C0001CC007C00000
000000000F80003B0038700000
000000001F00007E00C0380000
000000003E0000780300180000
000000007C0000F00600180000
00000000F00001C00800180000
00000001E00001C01000180000
00000003C00007802000180000
0000000780000B004000100000
0000000700003700C000300000
0000000E0000C6008000200000
0000001E00018E010000400000
0000001C00060C010000C00000
0000003800180C020001800000
0000003000701C020003000000
0000003000C018060006000000
00000020030018040008000000
000000200C0018040030000000
00000020300018040060000000
00000031C00018040180000000
0000001E000018040600000000
0000000000000C041C00000000
0000000000000E04E000000000
00000000000007FF8000000000
00000000000000740000000000
00000000000000040000000000
00000000000000040000000000
00000000000000020000000000
00000000000000020000008000
00000000000000010000010000
00000000000000018000020000
0000000000000000C0000C0000
00000000000000003000300000
00000000000000000E03C00000
000000000000000001FC000000
ENDCHAR
STARTCHAR 00DA
ENCODING 218
SWIDTH 861 0
DWIDTH 62 0
BBX 103 79 -25 -15
BITMAP
0000003FFF0000000000000000
000003C000C000000000000400
00001C00003000000000001C00
00006000000C00000000007000
0003800000060000000001C000
000C0000000300000000060000
00300000000100000000180000
00400000000080000000000000
01800000000080000000000000
06000000000FFF800000000000
0800000000F04060000000001C
100000000300401000000000E6
200000001C0040080000000386
40000000600040080000000E06
800000018000C0040000001C0C
000000060000C0040000007008
0000000C0000C004000001E018
000000300000C0040000038030
00000060000180040000070060
000000C00001800C00001E00C0
000001000003800C00003C0180
00000200000300180000700300
00000400000700180000E00600
00000C00000600380003C00800
00001800000C00700007801000
00003000001C00F0000F006000
00002000003800E0001E00C000
00006000007001E0003C018000
0000600000E003C00078020000
0000400001C0078000F00C0000
0000400003800F0001E0180000
0000C00007001F0003C0300000
0000C0001C003E000780400000
0000400070007C000F01800000
00006001C000F8001E03000000
0000301F0003F0003C04000000
00001FF00007E0007818000000
00000000000FC000F030000000
00000000001F8000E0C0000000
00000000003F0001C180000000
00000000007E00038200000000
0000000000FC00070C00000000
0000000001F0000F1800000000
0000000003E0000E6000000000
0000000007C0001CC007C00000
000000000F80003B0038700000
000000001F00007E00C0380000
000000003E0000780300180000
000000007C0000F00600180000
00000000F00001C00800180000
00000001E00001C01000180000
00000003C00007802000180000
0000000780000B004000100000
0000000700003700C000300000
0000000E0000C6008000200000
0000001E00018E010000400000
0000001C00060C010000C00000
0000003800180C020001800000
0000003000701C020003000000
0000003000C018060006000000
00000020030018040008000000
000000200C0018040030000000
00000020300018040060000000
00000031C00018040180000000
0000001E000018040600000000
0000000000000C041C00000000
0000000000000E04E000000000
00000000000007FF8000000000
00000000000000740000000000
00000000000000040000000000
00000000000000040000000000
00000000000000020000000000
00000000000000020000008000
00000000000000010000010000
00000000000000018000020000
0000000000000000C0000C0000
00000000000000003000300000
00000000000000000E03C00000
000000000000000001FC000000
ENDCHAR
STARTCHAR 00DB
ENCODING 219
SWIDTH 861 0
DWIDTH 62 0
BBX 103 79 -25 -15
BITMAP
0000003FFF0000000000000000
000003C000C000000000000000
00001C00003000000000180000
00006000000C00000000780000
00038000000600000001CC0000
000C00000003000000070C0000
00300000000100000018060000
00400000000080000060020000
01800000000080000000010000
06000000000FFF800000000000
0800000000F04060000000001C
100000000300401000000000E6
200000001C0040080000000386
40000000600040080000000E06
800000018000C0040000001C0C
000000060000C0040000007008
0000000C0000C004000001E018
000000300000C0040000038030
00000060000180040000070060
000000C00001800C00001E00C0
000001000003800C00003C0180
00000200000300180000700300
00000400000700180000E00600
00000C00000600380003C00800
00001800000C00700007801000
00003000001C00F0000F006000
00002000003800E0001E00C000
00006000007001E0003C018000
0000600000E003C00078020000
0000400001C0078000F00C0000
0000400003800F0001E0180000
0000C00007001F0003C0300000
0000C0001C003E000780400000
0000400070007C000F01800000
00006001C000F8001E03000000
0000301F0003F0003C04000000
00001FF00007E0007818000000
00000000000FC000F030000000
00000000001F8000E0C0000000
00000000003F0001C180000000
00000000007E00038200000000
0000000000FC00070C00000000
0000000001F0000F1800000000
0000000003E0000E6000000000
0000000007C0001CC007C00000
000000000F80003B0038700000
000000001F00007E00C0380000
000000003E0000780300180000
000000007C0000F00600180000
00000000F00001C00800180000
00000001E00001C01000180000
00000003C00007802000180000
0000000780000B004000100000
0000000700003700C000300000
0000000E0000C6008000200000
0000001E00018E010000400000
0000001C00060C010000C00000
0000003800180C020001800000
0000003000701C020003000000
0000003000C018060006000000
00000020030018040008000000
000000200C0018040030000000
00000020300018040060000000
00000031C00018040180000000
0000001E000018040600000000
0000000000000C041C00000000
0000000000000E04E000000000
00000000000007FF8000000000
00000000000000740000000000
00000000000000040000000000
00000000000000040000000000
00000000000000020000000000
00000000000000020000008000
00000000000000010000010000
00000000000000018000020000
0000000000000000C0000C0000
00000000000000003000300000
00000000000000000E03C00000
000000000000000001FC000000
ENDCHAR
STARTCHAR 00DC
ENCODING 220
SWIDTH 861 0
DWIDTH 62 0
BBX 103 79 -25 -15
BITMAP
0000003FFF0000000000000000
000003C000C000000000000000
00001C00003000000000040000
00006000000C000000071C0000
0003800000060000000F3C0000
000C000000030000000C380000
00300000000100000000000000
00400000000080000000000000
01800000000080000000000000
06000000000FFF800000000000
0800000000F04060000000001C
100000000300401000000000E6
200000001C0040080000000386
40000000600040080000000E06
800000018000C0040000001C0C
000000060000C0040000007008
0000000C0000C004000001E018
000000300000C0040000038030
00000060000180040000070060
000000C00001800C00001E00C0
000001000003800C00003C0180
00000200000300180000700300
00000400000700180000E00600
00000C00000600380003C00800
00001800000C00700007801000
00003000001C00F0000F006000
00002000003800E0001E00C000
00006000007001E0003C018000
0000600000E003C00078020000
0000400001C0078000F00C0000
0000400003800F0001E0180000
0000C00007001F0003C0300000
0000C0001C003E000780400000
0000400070007C000F01800000
00006001C000F8001E03000000
0000301F0003F0003C04000000
00001FF00007E0007818000000
00000000000FC000F030000000
00000000001F8000E0C0000000
00000000003F0001C180000000
00000000007E00038200000000
0000000000FC00070C00000000
0000000001F0000F1800000000
0000000003E0000E6000000000
0000000007C0001CC007C00000
000000000F80003B0038700000
000000001F00007E00C0380000
000000003E0000780300180000
000000007C0000F00600180000
00000000F00001C00800180000
00000001E00001C01000180000
00000003C00007802000180000
0000000780000B004000100000
0000000700003700C000300000
0000000E0000C6008000200000
0000001E00018E010000400000
0000001C00060C010000C00000
0000003800180C020001800000
0000003000701C020003000000
0000003000C018060006000000
00000020030018040008000000
000000200C0018040030000000
00000020300018040060000000
00000031C00018040180000000
0000001E000018040600000000
0000000000000C041C00000000
0000000000000E04E000000000
00000000000007FF8000000000
00000000000000740000000000
00000000000000040000000000
00000000000000040000000000
00000000000000020000000000
00000000000000020000008000
00000000000000010000010000
00000000000000018000020000
0000000000000000C0000C0000
00000000000000003000300000
00000000000000000E03C00000
000000000000000001FC000000
ENDCHAR
STARTCHAR 00DD
ENCODING 221
SWIDTH 597 0
DWIDTH 43 0
BBX 113 100 -30 -36
BITMAP
000000007FFC000000000000000000
000000078003800000000000000000
000000380000600000000006000000
000001C0000010000000001C000000
000006000000080000000070000000
0000180000000400000001C0000000
000060000000020000000600000000
000180000000030000000800000000
000200000000010000000000000000
000C000000001FFF00000000000000
001000000001E180C0000000000000
00200000000E018060000000000F80
00C000000030018030000000007180
0180000000C0018010000000018180
010000000300018010000000060180
000000000C00018008000000180100
000000001000018008000000600200
000000006000030018000000C00400
00000000C000030018000001000C00
000000010000030018000006001000
00000006000006001000000C002000
0000000C0000060030000018004000
0000001800000C0070000030008000
0000001000001C00600000E0030000
0000002000001800E00001C0060000
0000006000003001C0000380080000
0000004000007003C0000700100000
000000C00000E00780000E00600000
000000800001C00F80001C00C00000
000001800003800F00003801000000
000001800007001E00007006000000
00000180001C003C0000E00C000000
00000180003800F80001C030000000
0000018000E001F000038060000000
00000080038003F000070080000000
000000E03C0007E0000E0300000000
0000003FC0000FC0001C0600000000
0000000000001F0000381800000000
0000000000003E0000703000000000
0000000000007C0000F0C000000000
000000000000F80001E18000000000
000000000003F00003C60000000000
000000000007E000078C0000000000
00000000000FC00007300000000000
00000000001F80000E600000000000
00000000003F00001D800000000000
00000000007E00003E000000000000
0000000000F800007C000000000000
0000000001F00000F0000000000000
0000000003E00001E0000000000000
0000000003C00003C0000000000000
000000000780000780000000000000
000000000F00001F00000000000000
000000001E00003F00000000000000
000000001C0000DE00000000000000
000000003800033C00000000000000
0000000030000E7800000000000000
00000000700018F000000000000000
00000000600061E000000000000000
00000000400183C000000000000000
00000000C00607C000000000000000
00000000C0180F8000000000000000
00000000C0E01F0000000000000000
0000000043803E0000000000000000
000000007C003C0000000000000000
000000000000780000000000000000
000000000000F00000000000000000
000000000001E00000000000000000
000000000007FFC000000000000000
0000000001FFC03800000000000000
000000001E0F800C00000000000000
00000000F01F000600000000000000
00000007803E000600000000000000
0000003C007C000600000000000000
000000F000F8000600000000000000
000003C001F0000C00000000000000
00000F0003E0000C00000000000000
00003C0007C0001800000000000000
0000F0000F80003000000000000000
0001C0001F00006000000000000000
000780003E0000C000000000000000
000E00007C00038000000000000000
001C0000F800060000000000000000
00300001F0001C0000000000000000
00E00003E000300000000000000000
01C00087C000C00000000000000000
030000CF8007000000000000000000
0600007E0038000000000000000000
0C00003E03C0000000000000000000
18000079FC00000000000000000000
100001F00000000000000000000000
200003C00000000000000000000000
600007800000000000000000000000
40001F000000000000000000000000
80003C000000000000000000000000
8000F0000000000000000000000000
8001C0000000000000000000000000
C00F00000000000000000000000000
607C00000000000000000000000000
3FC000000000000000000000000000
ENDCHAR
STARTCHAR 00DE
ENCODING 222
SWIDTH 958 0
DWIDTH 69 0
BBX 125 73 0 -16
BITMAP
0000000000000000000000000003F000
000000000000000000000000003C0F00
00000000000000000000000001C001C0
000000000000000000000000070000E0
0000000000000000000000001C000070
000000000000FFFE0000000070000030
000000000007800380000001C0000018
0000000000380000E000000380000018
0000000000E000003000000E00000018
00000000038000001800001C00000018
000000000E0000001800003800000018
00000000180000000C0000F000000030
00000000600000000FF001C000000030
00000000C0000003FC0FE38000000060
000000030000003C06001F00000000C0
00000006000001C006000F0000000180
000000080000060006001DC000000300
00000000000018000E0078E000000C00
00000000000060000E00F07000007000
000000000000C0000C01E03800038000
00000000000380000C03C01800000000
00000000000600001C07801C00000000
00000000000C00001807001C00000000
0000000000180000180E001C00000000
0000000000300000381C001C00000000
00000000007000003038001C00000000
00000000006000006070001C00000000
0000000000C00000E0F0001C00000000
0000000001C00000C1E0003C00000000
000000000180000183C0003800000000
00000000018000038780007800000000
00000001FF8000070F00007000000000
0000000E03E0000E1E0000E000000000
000000300360001C3C0001E000000000
0000004003300030780003C000000000
0000018003300060F000078000000000
00000300033001C1E0000F0000000000
0000040003B00703C0003C0000000000
00000C0001F01C078000780000000000
0000180000FBE00F0001E00000000000
0000107FF06C001E0007800000000000
00003F800FE0003C007E000000000000
0003E00000F8007FFFF0000000000000
001C400001CE00F80000000000000000
00604000038181F00000000000000000
018080000700E3C00000000000000000
07008000060037800000000000000000
0C0080000E001F000000000000000000
180080001C001E000000000000000000
3000800038003E000000000000000000
60008000E00076000000000000000000
40008001C000C3000000000000000000
C0008003800383000000000000000000
C000C00E000E03800000000000000000
C000401C001801800000000000000000
C0002070006001800000000000000000
600031C0038001800000000000000000
30000E000E0001800000000000000000
0E01F3E1F00003800000000000000000
01FE000E000003800000000000000000
00000000000003000000000000000000
00000000000007000000000000000000
0000000000000E000000000000000000
0000000000000C000000000000000000
00000000000018000000000000000000
00000000000030000000000000000000
000000000000E0000000000000000000
000000000001C0000000000000000000
00000000000700000000000000000000
00000000001C00000000000000000000
0000000000E000000000000000000000
000000000F0000000000000000000000
00000000300000000000000000000000
ENDCHAR
STARTCHAR 00DF
ENCODING 223
SWIDTH 277 0
DWIDTH 20 0
BBX 69 68 -27 -27
BITMAP
000000000000000078
000000000000000188
000000000000000618
000000000000000C10
000000000000003020
000000000000006040
00000000000000C080
000000000000038100
000000000000060200
0000000000000C0400
000000000000181800
000000000000703000
000000000000E06000
000000000001C0C000
000000000003810000
000000000006020000
00000000000C0C0000
000000000018180000
000000000030300000
0000000000E0400000
0000000001C1800000
000000000383000000
000000000704000000
000000000E18000000
000000001C30000000
000000003840000000
000000007180000000
00000000E300000000
00000001C600000000
000000039E00000000
000000073E00000000
0000000ECE00000000
0000001D8E00000000
0000003E0E00000000
000000781C00000000
000000F01C04000000
000001C03C0C000000
000003803830000000
000003E07840000000
000006E07180000000
00000CC0E600000000
000018C1F800000000
00003867C000000000
000070180000000000
0000E0000000000000
0001C0000000000000
000380000000000000
000300000000000000
000600000000000000
000C00000000000000
001800000000000000
003000000000000000
007000000000000000
006000000000000000
00C000000000000000
018000000000000000
030000000000000000
020000000000000000
060000000000000000
0C0000000000000000
180000000000000000
100000000000000000
300000000000000000
200000000000000000
400000000000000000
400000000000000000
800000000000000000
800000000000000000
ENDCHAR
STARTCHAR 00E0
ENCODING 224
SWIDTH 361 0
DWIDTH 26 0
BBX 28 23 -3 -1
BITMAP
00038000
0001E000
00003800
00000E00
00000180
00000000
00000000
00000000
000FFB80
007C0F80
01F00F00
03C01E00
0F003C00
1E007800
3C00F000
3803E000
7007C030
E01B8040
C0270180
C0C60600
C3061800
FC066000
00038000
ENDCHAR
STARTCHAR 00E1
ENCODING 225
SWIDTH 361 0
DWIDTH 26 0
BBX 30 23 -3 -1
BITMAP
0000001C
00000078
000001E0
00000700
00001C00
00000000
00000000
00000000
000FFB80
007C0F80
01F00F00
03C01E00
0F003C00
1E007800
3C00F000
3803E000
7007C030
E01B8040
C0270180
C0C60600
C3061800
FC066000
00038000
ENDCHAR
STARTCHAR 00E2
ENCODING 226
SWIDTH 361 0
DWIDTH 26 0
BBX 28 24 -3 -2
BITMAP
00000800
00003C00
0000EC00
00038600
000C0200
00300300
00000100
00000000
00000000
000FFB80
007C0F80
01F00F00
03C01E00
0F003C00
1E007800
3C00F000
3803E000
7007C030
E01B8040
C0270180
C0C60600
C3061800
FC066000
00038000
ENDCHAR
STARTCHAR 00E3
ENCODING 227
SWIDTH 361 0
DWIDTH 26 0
BBX 28 22 -3 -1
BITMAP
0007E000
0008FC60
00103FC0
00000700
00000000
00000000
00000000
000FFB80
007C0F80
01F00F00
03C01E00
0F003C00
1E007800
3C00F000
3803E000
7007C030
E01B8040
C0270180
C0C60600
C3061800
FC066000
00038000
ENDCHAR
STARTCHAR 00E4
ENCODING 228
SWIDTH 361 0
DWIDTH 26 0
BBX 28 22 -3 -2
BITMAP
00003060
000071E0
0000F1C0
0000E180
00000000
00000000
00000000
000FFB80
007C0F80
01F00F00
03C01E00
0F003C00
1E007800
3C00F000
3803E000
7007C030
E01B8040
C0270180
C0C60600
C3061800
FC066000
00038000
ENDCHAR
STARTCHAR 00E5
ENCODING 229
SWIDTH 361 0
DWIDTH 26 0
BBX 28 24 -3 -2
BITMAP
00000380
00000440
00000840
00000840
00000880
00000F00
00000000
00000000
00000000
000FFB80
007C0F80
01F00F00
03C01E00
0F003C00
1E007800
3C00F000
3803E000
7007C030
E01B8040
C0270180
C0C60600
C3061800
FC066000
00038000
ENDCHAR
STARTCHAR 00E6
ENCODING 230
SWIDTH 430 0
DWIDTH 31 0
BBX 33 15 -3 -2
BITMAP
0000000700
000FF87980
007C0FE100
01F00F8300
03C01F0400
0F003C1800
1E00786000
3C00F38000
3803FC0000
7005C00180
E019800300
C061800C00
C0C1803000
C70181C000
F800FF0000
ENDCHAR
STARTCHAR 00E7
ENCODING 231
SWIDTH 250 0
DWIDTH 18 0
BBX 22 22 -5 -8
BITMAP
0007F0
001C10
007070
00E0F0
01C0C0
078000
0F0000
0E0000
1C0004
380018
380060
380180
380E00
1FF000
070000
040000
0E0000
01E000
00E000
00C000
818000
7E0000
ENDCHAR
STARTCHAR 00E8
ENCODING 232
SWIDTH 236 0
DWIDTH 17 0
BBX 18 22 -2 -1
BITMAP
01C000
00F000
003C00
000700
000180
000040
000000
000380
003CC0
00F080
03C180
0F8200
1E0C00
3C3000
79C000
7E0000
E000C0
C00180
C00600
C01800
C06000
7F8000
ENDCHAR
STARTCHAR 00E9
ENCODING 233
SWIDTH 236 0
DWIDTH 17 0
BBX 22 22 -2 -1
BITMAP
00000C
000038
0000E0
000380
000C00
001000
000000
000380
003CC0
00F080
03C180
0F8200
1E0C00
3C3000
79C000
7E0000
E000C0
C00180
C00600
C01800
C06000
7F8000
ENDCHAR
STARTCHAR 00EA
ENCODING 234
SWIDTH 236 0
DWIDTH 17 0
BBX 21 23 -2 -2
BITMAP
000080
0003C0
000F60
003860
00E030
030010
000008
000000
000380
003CC0
00F080
03C180
0F8200
1E0C00
3C3000
79C000
7E0000
E000C0
C00180
C00600
C01800
C06000
7F8000
ENDCHAR
STARTCHAR 00EB
ENCODING 235
SWIDTH 236 0
DWIDTH 17 0
BBX 20 21 -2 -2
BITMAP
000830
003C70
0038E0
0030C0
000000
000000
000380
003CC0
00F080
03C180
0F8200
1E0C00
3C3000
79C000
7E0000
E000C0
C00180
C00600
C01800
C06000
7F8000
ENDCHAR
STARTCHAR 00EC
ENCODING 236
SWIDTH 166 0
DWIDTH 12 0
BBX 17 23 -5 -1
BITMAP
070000
03C000
007000
001C00
000300
000080
000000
000000
000000
003800
007000
01E000
03C000
078000
0F0000
0E0000
1C0300
380600
701800
606000
E18000
FE0000
700000
ENDCHAR
STARTCHAR 00ED
ENCODING 237
SWIDTH 166 0
DWIDTH 12 0
BBX 25 23 -5 -1
BITMAP
00000380
00000F00
00003C00
0000E000
00018000
00000000
00000000
00000000
00000000
00380000
00700000
01E00000
03C00000
07800000
0F000000
0E000000
1C030000
38060000
70180000
60600000
E1800000
FE000000
70000000
ENDCHAR
STARTCHAR 00EE
ENCODING 238
SWIDTH 166 0
DWIDTH 12 0
BBX 20 23 -5 -1
BITMAP
000780
001EC0
007840
01C060
070020
000010
000000
000000
000000
003800
007000
01E000
03C000
078000
0F0000
0E0000
1C0300
380600
701800
606000
E18000
FE0000
700000
ENDCHAR
STARTCHAR 00EF
ENCODING 239
SWIDTH 166 0
DWIDTH 12 0
BBX 21 22 -5 -2
BITMAP
000618
001E38
001C70
001860
000000
000000
000000
000000
003800
007000
01E000
03C000
078000
0F0000
0E0000
1C0300
380600
701800
606000
E18000
FE0000
700000
ENDCHAR
STARTCHAR 00F0
ENCODING 240
SWIDTH 361 0
DWIDTH 26 0
BBX 34 44 -3 -2
BITMAP
000000F000
0000001E00
0000000700
0000000380
0000000180
0000000180
0000000180
00000001C0
0000000180
0000000180
0000000180
0000000180
0000000180
0000000300
0000000300
0000000300
0000000600
0000000600
0000000C00
0000000C00
0000001BC0
000003FC00
00003F3000
0000003000
0000006000
000000C000
000000C000
0000018000
0000030000
001FC60000
00F8660000
03C06C0000
0700780000
0E00700000
1C00E00000
3801C00000
7001C00000
7003803000
E007004000
E00F018000
C036060000
C0C6180000
FF06E00000
7C03000000
ENDCHAR
STARTCHAR 00F1
ENCODING 241
SWIDTH 416 0
DWIDTH 30 0
BBX 31 22 -1 -1
BITMAP
0000FC00
00031F08
000407F8
000001E0
00000000
00000000
00000000
001C0000
006C07E0
018C3860
031CC0E0
0C3901C0
187603C0
60780780
C0F01F02
01E03E04
03807818
0700F060
0E00E0C0
1C01C300
3801FC00
0000E000
ENDCHAR
STARTCHAR 00F2
ENCODING 242
SWIDTH 319 0
DWIDTH 23 0
BBX 25 23 -3 -1
BITMAP
00380000
001E0000
00078000
0000E000
00003000
00000800
00000000
00000000
001FC000
00F86000
03C06000
0700E000
0E01C000
1C01C000
38038000
70030080
70030180
E0070600
E00B9800
E031E000
E0400000
FF800000
7C000000
ENDCHAR
STARTCHAR 00F3
ENCODING 243
SWIDTH 319 0
DWIDTH 23 0
BBX 25 23 -3 -1
BITMAP
00000E00
00003C00
0000F000
00038000
000E0000
00000000
00000000
00000000
001FC000
00F86000
03C06000
0700E000
0E01C000
1C01C000
38038000
70030080
70030180
E0070600
E00B9800
E031E000
E0C00000
FF800000
3C000000
ENDCHAR
STARTCHAR 00F4
ENCODING 244
SWIDTH 319 0
DWIDTH 23 0
BBX 25 24 -3 -2
BITMAP
00004000
0001E000
0007B000
001C3000
00701800
01800800
00000C00
00000000
00000000
001FC000
00F86000
03C06000
0700E000
0E01C000
1C01C000
38038000
70030080
70030180
E0070600
E00B9800
E031E000
E0C00000
FF800000
3C000000
ENDCHAR
STARTCHAR 00F5
ENCODING 245
SWIDTH 319 0
DWIDTH 23 0
BBX 25 22 -3 -1
BITMAP
003F0000
0047E300
0081FE00
00003800
00000000
00000000
00000000
001FC000
00F86000
03C06000
0700E000
0E01C000
1C01C000
38038000
70030080
70030180
E0070600
E00B9800
E031E000
E0C00000
FF800000
3C000000
ENDCHAR
STARTCHAR 00F6
ENCODING 246
SWIDTH 319 0
DWIDTH 23 0
BBX 25 22 -3 -2
BITMAP
00060C00
000E3C00
001E3800
00183000
00000000
00000000
00000000
001FC000
00F86000
03C06000
0700E000
0E01C000
1C01C000
38038000
70030080
70030180
E0070600
E00B9800
E031E000
E0C00000
FF800000
3C000000
ENDCHAR
STARTCHAR 00F7
ENCODING 247
SWIDTH 416 0
DWIDTH 30 0
BBX 22 16 6 7
BITMAP
0003C0
000380
000780
000000
000000
000000
000000
FFFFFC
000000
000000
000000
000000
018000
038000
078000
060000
ENDCHAR
STARTCHAR 00F8
ENCODING 248
SWIDTH 319 0
DWIDTH 23 0
BBX 26 29 -4 -8
BITMAP
00000400
00000800
00001000
00001000
00002000
00004000
00008000
00008000
000FE000
007E3000
01E23000
03847000
0708E000
0E10E000
1C11C000
38218040
384180C0
70838300
7085CC00
7118F000
72600000
7B800000
3C000000
08000000
10000000
10000000
20000000
40000000
80000000
ENDCHAR
STARTCHAR 00F9
ENCODING 249
SWIDTH 361 0
DWIDTH 26 0
BBX 28 23 -3 -1
BITMAP
00380000
001E0000
00038000
0000E000
00003800
00000000
00000000
00000000
00700000
00E00700
01C00E00
03803C00
07007800
0E01F000
1C03E000
380DC010
70138030
606700C0
E18E0300
C60E0400
D80C1800
600FE000
00070000
ENDCHAR
STARTCHAR 00FA
ENCODING 250
SWIDTH 361 0
DWIDTH 26 0
BBX 28 23 -3 -1
BITMAP
00000070
000001E0
00000700
00001C00
00006000
00000000
00000000
00000000
00700000
00E00700
01C00E00
03803C00
07007800
0E01F000
1C03E000
380DC010
70138030
706700C0
E18E0300
C60E0600
D80C1800
600FE000
00070000
ENDCHAR
STARTCHAR 00FB
ENCODING 251
SWIDTH 361 0
DWIDTH 26 0
BBX 28 24 -3 -2
BITMAP
00000400
00001E00
00007600
0001C300
00060100
00180180
00000080
00000000
00000000
00700000
00E00700
01C00E00
03803C00
07007800
0E01F000
1C03E000
380DC010
70138030
706700C0
E18E0300
C60E0600
D80C1800
600FE000
00070000
ENDCHAR
STARTCHAR 00FC
ENCODING 252
SWIDTH 361 0
DWIDTH 26 0
BBX 28 22 -3 -2
BITMAP
0000C180
0001C780
0003C700
00030600
00000000
00000000
00000000
00700000
00E00700
01C00E00
03803C00
07007800
0E01F000
1C03E000
380DC010
70138030
706700C0
E18E0300
C60E0600
D80C1800
600FE000
00070000
ENDCHAR
STARTCHAR 00FD
ENCODING 253
SWIDTH 388 0
DWIDTH 28 0
BBX 50 49 -22 -28
BITMAP
000000000000C0
00000000000380
00000000000E00
00000000003800
0000000000C000
00000000010000
00000000000000
00000000000000
00000000000000
00000000C00700
00000007600E00
00000018601C00
00000020E03800
000000C3C07000
0000030780E000
0000060F03C000
0000001E078180
0000003C0F0200
000000783E0C00
00000070DC3000
000000E3386000
0000007C718000
00000000E60000
00000001D80000
00000003E00000
00000007800000
0000000E000000
0000001C000000
00000078000000
000001F0000000
000006E0000000
000019C0000000
00006380000000
00018700000000
00060E00000000
00181C00000000
00203800000000
00C07000000000
0300E000000000
0601C000000000
08030000000000
10060000000000
200C0000000000
40380000000000
40700000000000
80C00000000000
81800000000000
86000000000000
FC000000000000
ENDCHAR
STARTCHAR 00FE
ENCODING 254
SWIDTH 402 0
DWIDTH 29 0
BBX 73 69 -28 -25
BITMAP
00000000000000000180
00000000000000000380
00000000000000000700
00000000000000000E00
00000000000000001C00
00000000000000003800
00000000000000006000
0000000000000001C000
00000000000000038000
00000000000000070000
000000000000000E0000
000000000000001C0000
00000000000000380000
00000000000000700000
00000000000000C00000
00000000000001800000
00000000000003000000
00000000000006000000
0000000000000C000000
00000000000018000000
00000000000030000000
00000000000060000000
000000000001C0000000
00000000000380000000
00000000000700000000
00000000000E00000000
00000000001C00000000
00000000007800000000
0000000000F000000000
0000000003E000000000
0000000007C000000000
000000001B0380000000
00000000361CC0000000
000000006C60C0000000
000000019981C0000000
00000003360780000000
0000000C680F00000000
00000018F01E00000000
00000001C07C03000000
0000000780F004000000
0000000F01E018000000
0000001E01C060000000
0000003C038180000000
00000070030600000000
000000E003F800000000
000001C0000000000000
00000380000000000000
00000700000000000000
00000E00000000000000
00001C00000000000000
00003800000000000000
00007000000000000000
0000E000000000000000
0001C000000000000000
00038000000000000000
000F0000000000000000
001E0000000000000000
003C0000000000000000
00780000000000000000
00F00000000000000000
01E00000000000000000
03C00000000000000000
07800000000000000000
0F000000000000000000
1E000000000000000000
38000000000000000000
70000000000000000000
E0000000000000000000
40000000000000000000
ENDCHAR
STARTCHAR 00FF
ENCODING 255
SWIDTH 388 0
DWIDTH 28 0
BBX 49 48 -22 -29
BITMAP
0000000000C300
0000000001C700
00000000038F00
00000000030E00
00000000000000
00000000000000
00000000000000
00000000000000
00000000C00700
00000007600E00
00000018601C00
00000020E03800
000000C3C07000
0000030780E000
0000060F03C000
0000001E078180
0000003C0F0200
000000783E0C00
00000070DC3000
000000E3386000
0000007C718000
00000000E60000
00000001D80000
00000003E00000
00000007800000
0000000E000000
0000001C000000
00000078000000
000001F0000000
000006E0000000
000019C0000000
00006380000000
00018700000000
00060E00000000
00181C00000000
00203800000000
00C07000000000
0300E000000000
0601C000000000
08030000000000
10060000000000
200C0000000000
40380000000000
40700000000000
80C00000000000
81800000000000
86000000000000
FC000000000000
ENDCHAR
STARTCHAR 0131
ENCODING 305
SWIDTH 166 0
DWIDTH 12 0
BBX 16 14 -5 -1
BITMAP
0038
0070
01E0
03C0
0780
0F00
0E00
1C03
3806
7018
6060
E180
FE00
7000
ENDCHAR
STARTCHAR 0141
ENCODING 321
SWIDTH 1263 0
DWIDTH 91 0
BBX 104 89 0 -18
BITMAP
00000000000000800000000000
0000000000000F000000000000
00000000000030000000000000
000000000000C0000000000000
00000000000300000000000000
00000000000400000000000000
00000000001800000000000000
00000000002000000000000000
00000000004000000000000000
0000000000800000FFF8000000
0000000001000007E01E000000
000000000200001E0007000000
00000000040000780003000000
00000000040000E00003000000
00000000080003C00001800000
00000000100007000001000000
0000000010000E000003000000
0000000020001C0000030000C0
00000000200018000002001FFC
0000000020003000000600700E
0000000020006000000C01C006
000000004000E0000008070007
000000004000C00000180E0007
000000004001C00000303C0007
00000000400180000060780006
00000000600300000080F0000E
00000000200300000301E0000C
00000000300300000603C0001C
00000000100600001807800038
0000000008060000600F000030
0000000006060001801E000070
000000000386000E003C0000E0
0000000000F401F000780001C0
00000000000FFE0000F0000380
000000000004000001E0000700
000000000004000003C0000E00
00000000000400000780001C00
00000000000600000F00003800
00000000000600001E0000E000
00000000000200003C0001C000
00000000000300007800038000
0000000000010000F0000E0000
0000000000018000E0003C0000
000000000000C001C000700000
00000000000060038001C00000
0000000000003007000F000000
0000000000001C0E0038000000
000000000000079E01E0000000
00000000000000FFFE00000000
000000000000007B0000000000
00000000000000F00000000000
00000000000001E00000000000
00000000000003C00000000000
00000000000007800000000000
0000000003FFFFFFF000000000
0000000000001C000000000000
00000000000038000000000000
00000000000070000000000000
000000000000E0000000000000
000000000003C0000000000000
00000000000700000000000000
00000000000E00000000000000
00000000001C00000000000000
03FE000000700001FFFC000000
1E07F00000E0001E0003800000
30003F8001C000600000C00000
600003F8070001800000600000
6000003F9C0006000000600000
E0000003FC000C000000600000
60000000FFC018000000600000
6000000383FC30000000C00000
3000001C003FE0000003800000
1C0000F00003FE00000F000000
07000F000000CFFC01F8000000
01FFF0000000C03FFF80000000
00000000000080000000000000
00000000000080000000000000
00000000000080000000000000
00000000000080000000000000
000000000000C0000000000000
00000000000040000000000000
00000000000060000000000000
00000000000020000000000000
00000000000010000000000000
00000000000008000000000000
00000000000006000000000000
00000000000003000000000000
00000000000000E00000000000
000000000000001FE000000000
ENDCHAR
STARTCHAR 0142
ENCODING 322
SWIDTH 180 0
DWIDTH 13 0
BBX 47 44 -4 -1
BITMAP
00000000003E
0000000000E2
000000000384
000000000608
000000001C10
000000003820
0000000060C0
00000001C180
000000038300
000000070400
0000001E1800
000000383000
000000706000
000000E18000
000001C30000
0000038C0000
000007180000
00000E600000
00003CC00000
000071000000
0000E6000000
0001C8000000
0003B0000000
000740000000
000F80000000
000E00000000
001C00000000
003FE0000000
0FF800000000
0CE000000000
01C000000000
038000000000
030000000000
060000000000
0C0000000000
180000000000
180100000000
300300000000
200C00000000
601000000000
406000000000
C18000000000
7E0000000000
200000000000
ENDCHAR
STARTCHAR 0152
ENCODING 338
SWIDTH 1194 0
DWIDTH 86 0
BBX 114 90 -12 -14
BITMAP
00003C000000000000000000000000
0000E0000000000000000000000000
000700000000000000000000000000
000C00000000000000000000000000
003000000000000000000000000000
006000000000000000000000000000
00C000000FFE000000000000000000
018000007C07800000000000000000
03000001C000800000000000000000
060000070000400000000000000000
0C00000C0000400000000000000000
1C0000300000600000000000000000
180000600000400000000000000000
380000C00000400000000000000000
300001800000400000000000000000
700002000000C00000000000000000
600006000000800000000000000000
60000C000001000000000000000000
600018000003000000000000000000
E00030000006000001FC0000000000
E0002000000C00000E030000000000
600060000018000030018000000000
6000400000300000C00080007FFF00
6000C000006000018000C007E00180
7000800000C001FF0000C01F8000C0
3001800003800F878000C07E0000C0
3801000006007C0C8000C1F80000C0
1C0300001801F0188000C3E00000C0
0E030000E007C018800087C0000180
03820003800F803180008F80000100
00E2003C003E003100019E00000200
001FFFC0007C003300013C00000400
0006000000F8002200037800001800
0006000003E0002400037800003000
0006000007C0003C0006F000006000
000600000F8000380006E000018000
000600001F000030000DC000060000
000600003E000078000DC000180000
000200007C0000D800198000600000
00020000F800030C001B8003800000
00030001F00006070033801C000000
00010003E0001C03C06380E0000000
00018007C0003000FC613F00000000
0000C00F8000C0000FFFC000000000
0000601F0003000001818000000000
0000383E001C000001808000000000
00001E3E00F000000300C1FC000000
000007FC1F8000000600FE03800000
000000FFF00000000C0F1801000000
000001F0000000000C7007FE000000
000001E00000000019C00000000000
000003E00000000036000000000000
000007C0000000007C000000000000
0000078000000000F0000000000000
00000F8000000001E0000000000000
00000F0000000001C0000000000000
00001E000000000780000000000000
00001E0000FFFFFF0000FFC0000000
00003C000F00000FC0070070000000
00003C007000001C781C0038000000
00007801800000380E70001C000000
000078060000007803C0001C000000
0000F018000000F007C0001C000000
0000F030000001F00E60001C000000
0000E060000003E03C10001C000000
0000E0C0000006E0F008001C000000
0001E080000019E1C00C0038000000
0001C180000031E780040070000000
0001C180000061FE00040070000000
0001C1800000C1F8000200E0000000
0001C180000301F0000201C0000000
0001C180000603E000020380000000
0001C180000C0FF000020E00000000
0001C0C000303C7000021C00000000
0000C0E00061E03800047000000000
0000C0700187001E0007C000000000
0000E01E06780007C01E0000000000
00007003FF800000FFE80000000000
00003800E000000000100000000000
00000FDF0000000000300000000000
000000200000000000600000000000
000000000000000000C00000000000
000000000000000001800000000000
000000000000000006000000000000
00000000000000000C000000000000
000000000000000030000000000000
0000000000000001C0000000000000
000000000000000E00000000000000
000000000000007800000000000000
000000000000018000000000000000
ENDCHAR
STARTCHAR 0153
ENCODING 339
SWIDTH 430 0
DWIDTH 31 0
BBX 33 16 -3 -2
BITMAP
0000000E00
001FC0F300
00F863C300
03C06F8600
0700FE0C00
0E01FC1000
1C03F06000
3803E38000
7003FC0080
7003800180
E007800600
E00B000C00
E033003000
E04381C000
FF81FE0000
3C00000000
ENDCHAR
ENDFONT
